<?xml version="1.0" encoding="UTF-8" standalone="no"?>
<svg
   xmlns:dc="http://purl.org/dc/elements/1.1/"
   xmlns:cc="http://creativecommons.org/ns#"
   xmlns:rdf="http://www.w3.org/1999/02/22-rdf-syntax-ns#"
   xmlns:svg="http://www.w3.org/2000/svg"
   xmlns="http://www.w3.org/2000/svg"
   xmlns:sodipodi="http://sodipodi.sourceforge.net/DTD/sodipodi-0.dtd"
   xmlns:inkscape="http://www.inkscape.org/namespaces/inkscape"
   width="100mm"
   height="20.605419mm"
   viewBox="0 0 100 20.60542"
   version="1.1"
   id="svg1953"
   inkscape:version="1.0.2 (e86c8708, 2021-01-15)"
   sodipodi:docname="Logo_Asoblock.svg">
  <defs
     id="defs1947" />
  <sodipodi:namedview
     id="base"
     pagecolor="#ffffff"
     bordercolor="#666666"
     borderopacity="1.0"
     inkscape:pageopacity="0.0"
     inkscape:pageshadow="2"
     inkscape:zoom="1.6037111"
     inkscape:cx="73.579356"
     inkscape:cy="15.161333"
     inkscape:document-units="mm"
     inkscape:current-layer="layer1"
     inkscape:document-rotation="0"
     showgrid="false"
     inkscape:window-width="1440"
     inkscape:window-height="900"
     inkscape:window-x="0"
     inkscape:window-y="0"
     inkscape:window-maximized="0" />
  <metadata
     id="metadata1950">
    <rdf:RDF>
      <cc:Work
         rdf:about="">
        <dc:format>image/svg+xml</dc:format>
        <dc:type
           rdf:resource="http://purl.org/dc/dcmitype/StillImage" />
        <dc:title />
      </cc:Work>
    </rdf:RDF>
  </metadata>
  <g
     inkscape:label="Layer 1"
     inkscape:groupmode="layer"
     id="layer1"
     transform="translate(-122.65118,-114.67308)">
    <g
       id="g705"
       transform="matrix(0.90605135,0,0,-0.90605135,154.9039,130.09406)"
       style="display:inline">
      <path
         d="M 0,0 C 0.003,-0.014 0.007,-0.027 0.011,-0.041 0.007,-0.027 0.003,-0.014 0,0 M -0.016,0.106 C -0.014,0.093 -0.012,0.081 -0.01,0.067 -0.012,0.081 -0.014,0.093 -0.016,0.106 m 0.043,-0.209 c 0.003,-0.011 0.008,-0.021 0.012,-0.031 -0.004,0.01 -0.009,0.02 -0.012,0.031 m -0.029,0.52 C -0.003,0.414 -0.003,0.412 -0.004,0.409 c 0.001,0.003 0.001,0.005 0.002,0.008 m -4.404,7.437 c 0,0 10e-4,0 0.002,0 -0.001,0 -0.002,0 -0.002,0 m 0.416,0 c -10e-4,0 -0.002,-0.001 -0.003,-0.001 10e-4,0 0.002,0.001 0.003,0.001 M 1.047,1.285 C 0.591,1.285 0.203,1 0.049,0.597 0.05,0.598 0.05,0.599 0.05,0.6 h -3.848 v 7.311 c 0.392,0.158 0.669,0.541 0.669,0.99 0,0.591 -0.478,1.069 -1.068,1.069 -0.59,0 -1.068,-0.478 -1.068,-1.069 0,-0.446 0.275,-0.829 0.665,-0.988 -0.001,0 -0.002,0 -0.002,0 V 0.028 c 0,-0.154 0.077,-0.232 0.232,-0.232 h 4.434 c 0,10e-4 0,10e-4 0,10e-4 0.163,-0.381 0.541,-0.649 0.983,-0.649 0.59,0 1.068,0.479 1.068,1.068 0,0.591 -0.478,1.069 -1.068,1.069"
         style="fill:#000000;fill-opacity:1;fill-rule:nonzero;stroke:none"
         id="path707" />
    </g>
    <g
       id="g709"
       transform="matrix(0.90605135,0,0,-0.90605135,194.90153,134.8146)"
       style="display:inline">
      <path
         d="m 0,0 c -0.202,-0.108 -0.437,-0.163 -0.707,-0.163 -0.215,0 -0.413,0.039 -0.593,0.117 -0.179,0.077 -0.335,0.184 -0.466,0.321 -0.131,0.136 -0.234,0.297 -0.307,0.482 -0.074,0.185 -0.111,0.388 -0.111,0.607 0,0.219 0.037,0.421 0.111,0.606 0.073,0.185 0.176,0.346 0.307,0.483 0.131,0.136 0.287,0.243 0.466,0.32 0.18,0.078 0.378,0.117 0.593,0.117 0.266,0 0.497,-0.053 0.691,-0.157 0.194,-0.104 0.35,-0.244 0.469,-0.42 L 0.749,2.528 C 0.433,3.002 -0.052,3.24 -0.707,3.24 -0.965,3.24 -1.21,3.194 -1.44,3.103 -1.67,3.01 -1.869,2.882 -2.038,2.717 -2.207,2.552 -2.341,2.354 -2.44,2.124 -2.539,1.894 -2.588,1.64 -2.588,1.364 c 0,-0.277 0.049,-0.531 0.148,-0.76 0.099,-0.23 0.233,-0.429 0.402,-0.594 0.169,-0.165 0.368,-0.293 0.598,-0.385 0.23,-0.092 0.475,-0.137 0.733,-0.137 0.331,0 0.625,0.066 0.882,0.199 0.257,0.133 0.466,0.318 0.628,0.555 L 0.501,0.453 C 0.368,0.259 0.201,0.107 0,0"
         style="fill:#000000;fill-opacity:1;fill-rule:nonzero;stroke:none"
         id="path711" />
    </g>
    <g
       id="g713"
       transform="matrix(0.90605135,0,0,-0.90605135,199.36835,134.12598)"
       style="display:inline">
      <path
         d="m 0,0 c -0.074,-0.185 -0.177,-0.346 -0.31,-0.482 -0.133,-0.137 -0.289,-0.244 -0.469,-0.321 -0.18,-0.077 -0.377,-0.116 -0.593,-0.116 -0.212,0 -0.409,0.039 -0.59,0.116 -0.182,0.077 -0.338,0.184 -0.469,0.321 -0.132,0.136 -0.234,0.297 -0.308,0.482 -0.074,0.186 -0.11,0.388 -0.11,0.607 0,0.219 0.036,0.421 0.11,0.606 0.074,0.185 0.176,0.346 0.308,0.483 0.131,0.137 0.287,0.243 0.469,0.321 0.181,0.077 0.378,0.116 0.59,0.116 0.216,0 0.413,-0.039 0.593,-0.116 C -0.599,1.939 -0.443,1.833 -0.31,1.696 -0.177,1.559 -0.074,1.398 0,1.213 0.073,1.028 0.111,0.826 0.111,0.607 0.111,0.388 0.073,0.186 0,0 M -0.038,1.96 C -0.208,2.125 -0.409,2.253 -0.636,2.346 -0.865,2.437 -1.11,2.483 -1.372,2.483 -1.631,2.483 -1.875,2.437 -2.105,2.346 -2.335,2.253 -2.535,2.125 -2.704,1.96 -2.873,1.795 -3.006,1.597 -3.105,1.367 -3.204,1.137 -3.254,0.883 -3.254,0.607 c 0,-0.277 0.05,-0.53 0.149,-0.76 0.099,-0.23 0.232,-0.429 0.401,-0.594 0.169,-0.165 0.369,-0.293 0.599,-0.385 0.23,-0.092 0.474,-0.137 0.733,-0.137 0.262,0 0.507,0.045 0.736,0.137 0.227,0.092 0.428,0.22 0.598,0.385 0.171,0.165 0.306,0.364 0.405,0.594 0.098,0.23 0.148,0.483 0.148,0.76 0,0.276 -0.05,0.53 -0.148,0.76 -0.099,0.23 -0.234,0.428 -0.405,0.593"
         style="fill:#000000;fill-opacity:1;fill-rule:nonzero;stroke:none"
         id="path715" />
    </g>
    <g
       id="g717"
       transform="matrix(0.90605135,0,0,-0.90605135,202.50963,133.79076)"
       style="display:inline">
      <path
         d="M 0,0 C -0.077,0.088 -0.173,0.169 -0.287,0.243 -0.402,0.316 -0.535,0.387 -0.685,0.456 L -0.976,0.59 c -0.204,0.094 -0.352,0.187 -0.443,0.278 -0.092,0.091 -0.137,0.218 -0.137,0.381 0,0.158 0.051,0.284 0.153,0.379 0.103,0.096 0.246,0.143 0.429,0.143 0.173,0 0.311,-0.038 0.415,-0.113 0.105,-0.075 0.192,-0.171 0.264,-0.286 L 0.018,1.566 C -0.079,1.728 -0.206,1.86 -0.365,1.963 -0.523,2.065 -0.726,2.116 -0.974,2.116 -1.11,2.116 -1.238,2.095 -1.356,2.054 -1.475,2.013 -1.578,1.954 -1.666,1.876 -1.753,1.799 -1.821,1.707 -1.87,1.599 -1.92,1.491 -1.944,1.371 -1.944,1.238 c 0,-0.13 0.018,-0.243 0.054,-0.34 0.035,-0.097 0.088,-0.186 0.156,-0.264 0.068,-0.079 0.153,-0.152 0.253,-0.216 0.101,-0.065 0.216,-0.126 0.346,-0.184 L -0.845,0.1 c 0.115,-0.051 0.216,-0.101 0.303,-0.154 0.086,-0.052 0.158,-0.108 0.215,-0.167 0.057,-0.059 0.101,-0.125 0.13,-0.197 0.028,-0.072 0.043,-0.154 0.043,-0.248 0,-0.097 -0.02,-0.184 -0.06,-0.261 -0.039,-0.078 -0.093,-0.143 -0.161,-0.197 -0.069,-0.054 -0.148,-0.095 -0.24,-0.124 -0.092,-0.029 -0.192,-0.043 -0.299,-0.043 -0.13,0 -0.244,0.015 -0.343,0.046 -0.099,0.031 -0.185,0.072 -0.259,0.124 -0.073,0.052 -0.138,0.113 -0.194,0.183 -0.056,0.07 -0.105,0.143 -0.148,0.219 l -0.324,-0.173 c 0.047,-0.097 0.107,-0.191 0.181,-0.28 0.073,-0.091 0.163,-0.169 0.267,-0.238 0.104,-0.068 0.225,-0.123 0.361,-0.164 0.137,-0.041 0.293,-0.062 0.469,-0.062 0.165,0 0.317,0.022 0.456,0.067 0.138,0.045 0.258,0.109 0.358,0.192 0.101,0.082 0.18,0.184 0.238,0.304 0.057,0.121 0.085,0.256 0.085,0.407 0,0.137 -0.018,0.26 -0.058,0.37 C 0.135,-0.187 0.077,-0.088 0,0"
         style="fill:#000000;fill-opacity:1;fill-rule:nonzero;stroke:none"
         id="path719" />
    </g>
    <g
       id="g721"
       transform="matrix(0.90605135,0,0,-0.90605135,203.41479,132.23234)"
       style="display:inline">
      <path
         d="M 0,0 H 1.127 V -3.321 H 1.515 V 0 H 2.641 V 0.345 H 0 Z"
         style="fill:#000000;fill-opacity:1;fill-rule:nonzero;stroke:none"
         id="path723" />
    </g>
    <g
       id="g725"
       transform="matrix(0.90605135,0,0,-0.90605135,207.58899,132.77598)"
       style="display:inline">
      <path
         d="m 0,0 c 0.016,-0.051 0.033,-0.097 0.051,-0.141 l 0.647,-1.628 h -1.579 l 0.646,1.628 c 0.018,0.044 0.036,0.09 0.051,0.141 0.017,0.05 0.032,0.097 0.047,0.14 0.014,0.05 0.03,0.102 0.048,0.156 C -0.074,0.242 -0.061,0.19 -0.046,0.14 -0.031,0.097 -0.016,0.05 0,0 m -0.121,0.986 -1.52,-3.703 h 0.382 l 0.243,0.614 h 1.855 l 0.247,-0.614 h 0.41 l -1.552,3.703 z"
         style="fill:#000000;fill-opacity:1;fill-rule:nonzero;stroke:none"
         id="path727" />
    </g>
    <g
       id="g729"
       transform="matrix(0.90605135,0,0,-0.90605135,212.10473,134.0535)"
       style="display:inline">
      <path
         d="M 0,0 H -0.415 V 2.011 H 0 C 0.205,2.011 0.38,1.985 0.526,1.935 0.671,1.885 0.789,1.815 0.879,1.725 0.969,1.635 1.035,1.528 1.075,1.404 1.117,1.28 1.138,1.146 1.138,1.003 1.138,0.859 1.117,0.726 1.075,0.604 1.035,0.481 0.969,0.375 0.879,0.286 0.789,0.196 0.672,0.125 0.529,0.076 0.385,0.025 0.208,0 0,0 M 1.35,0.28 C 1.478,0.485 1.542,0.726 1.542,1.003 1.542,1.201 1.51,1.382 1.445,1.547 1.38,1.712 1.284,1.855 1.157,1.976 1.029,2.096 0.87,2.189 0.682,2.256 0.493,2.323 0.273,2.356 0.022,2.356 H -0.803 V -1.31 h 0.388 v 0.976 h 0.437 c 0.133,0 0.262,0.01 0.388,0.032 L 1.116,-1.31 H 1.574 L 0.776,-0.183 C 1.032,-0.079 1.223,0.076 1.35,0.28"
         style="fill:#000000;fill-opacity:1;fill-rule:nonzero;stroke:none"
         id="path731" />
    </g>
    <path
       d="m 214.64531,135.24044 h 0.35154 v -3.32158 h -0.35154 z"
       style="display:inline;fill:#000000;fill-opacity:1;fill-rule:nonzero;stroke:none;stroke-width:0.906052"
       id="path733" />
    <g
       id="g735"
       transform="matrix(0.90605135,0,0,-0.90605135,218.42081,134.8146)"
       style="display:inline">
      <path
         d="m 0,0 c -0.202,-0.108 -0.437,-0.163 -0.706,-0.163 -0.216,0 -0.413,0.039 -0.594,0.117 -0.179,0.077 -0.334,0.184 -0.465,0.321 -0.132,0.136 -0.234,0.297 -0.308,0.482 -0.074,0.185 -0.111,0.388 -0.111,0.607 0,0.219 0.037,0.421 0.111,0.606 0.074,0.185 0.176,0.346 0.308,0.483 0.131,0.136 0.286,0.243 0.465,0.32 0.181,0.078 0.378,0.117 0.594,0.117 0.266,0 0.495,-0.053 0.69,-0.157 0.194,-0.104 0.35,-0.244 0.469,-0.42 L 0.75,2.528 C 0.433,3.002 -0.052,3.24 -0.706,3.24 -0.965,3.24 -1.21,3.194 -1.44,3.103 -1.669,3.01 -1.869,2.882 -2.038,2.717 -2.207,2.552 -2.341,2.354 -2.44,2.124 -2.539,1.894 -2.588,1.64 -2.588,1.364 c 0,-0.277 0.049,-0.531 0.148,-0.76 0.099,-0.23 0.233,-0.429 0.402,-0.594 0.169,-0.165 0.369,-0.293 0.598,-0.385 0.23,-0.092 0.475,-0.137 0.734,-0.137 0.33,0 0.624,0.066 0.881,0.199 0.257,0.133 0.466,0.318 0.629,0.555 L 0.501,0.453 C 0.368,0.259 0.201,0.107 0,0"
         style="fill:#000000;fill-opacity:1;fill-rule:nonzero;stroke:none"
         id="path737" />
    </g>
    <g
       id="g739"
       transform="matrix(0.90605135,0,0,-0.90605135,221.29573,132.77598)"
       style="display:inline">
      <path
         d="m 0,0 c 0.017,-0.051 0.033,-0.097 0.051,-0.141 l 0.647,-1.628 h -1.579 l 0.647,1.628 c 0.017,0.044 0.035,0.09 0.051,0.141 0.016,0.05 0.031,0.097 0.046,0.14 0.014,0.05 0.03,0.102 0.048,0.156 C -0.075,0.242 -0.06,0.19 -0.046,0.14 -0.032,0.097 -0.016,0.05 0,0 m -0.122,0.986 -1.519,-3.703 h 0.382 l 0.243,0.614 h 1.855 l 0.248,-0.614 h 0.409 l -1.553,3.703 z"
         style="fill:#000000;fill-opacity:1;fill-rule:nonzero;stroke:none"
         id="path741" />
    </g>
    <g
       id="g743"
       transform="matrix(0.90605135,0,0,-0.90605135,191.43045,128.30008)"
       style="display:inline">
      <path
         d="M 0,0 C -0.078,0.094 -0.152,0.142 -0.225,0.142 -0.251,0.137 -0.282,0.13 -0.318,0.122 -0.355,0.113 -0.391,0.096 -0.424,0.07 -0.69,-0.122 -0.98,-0.272 -1.296,-0.379 -1.61,-0.487 -1.941,-0.54 -2.288,-0.54 c -0.438,0 -0.838,0.082 -1.202,0.244 -0.365,0.163 -0.68,0.386 -0.946,0.669 -0.265,0.283 -0.472,0.613 -0.62,0.993 -0.148,0.38 -0.222,0.785 -0.222,1.218 0,0.437 0.074,0.846 0.222,1.228 0.148,0.381 0.355,0.713 0.62,0.996 0.266,0.283 0.581,0.507 0.946,0.671 0.364,0.166 0.764,0.248 1.202,0.248 0.347,0 0.675,-0.053 0.983,-0.161 0.308,-0.107 0.598,-0.256 0.868,-0.449 0.034,-0.022 0.068,-0.038 0.103,-0.049 0.034,-0.01 0.064,-0.016 0.09,-0.016 0.081,0 0.158,0.049 0.231,0.148 l 0.624,1.061 c 0.025,0.051 0.038,0.1 0.038,0.148 0,0.06 -0.018,0.111 -0.051,0.154 C 0.563,6.606 0.52,6.643 0.469,6.672 0.066,6.942 -0.364,7.149 -0.823,7.292 -1.282,7.436 -1.766,7.508 -2.275,7.508 -2.73,7.508 -3.166,7.448 -3.584,7.331 -4.002,7.213 -4.393,7.048 -4.757,6.836 -5.121,6.624 -5.452,6.368 -5.75,6.067 -6.048,5.768 -6.304,5.435 -6.518,5.068 -6.732,4.702 -6.898,4.31 -7.013,3.892 -7.128,3.475 -7.186,3.039 -7.186,2.584 c 0,-0.455 0.058,-0.89 0.173,-1.308 0.115,-0.418 0.281,-0.808 0.495,-1.17 0.214,-0.362 0.47,-0.692 0.768,-0.99 0.298,-0.298 0.629,-0.553 0.993,-0.768 0.364,-0.214 0.755,-0.38 1.173,-0.495 0.418,-0.116 0.854,-0.174 1.309,-0.174 0.514,0 1.003,0.075 1.468,0.222 0.465,0.148 0.899,0.357 1.302,0.627 0.047,0.035 0.089,0.07 0.125,0.109 0.036,0.039 0.055,0.088 0.055,0.148 0,0.043 -0.013,0.09 -0.039,0.141 z"
         style="fill:#000000;fill-opacity:1;fill-rule:nonzero;stroke:none"
         id="path745" />
    </g>
    <g
       id="g747"
       transform="matrix(0.90605135,0,0,-0.90605135,200.87785,130.02158)"
       style="display:inline">
      <path
         d="M 0,0 V 8.986 C 0,9.072 -0.031,9.14 -0.094,9.189 -0.156,9.238 -0.229,9.263 -0.315,9.263 H -1.577 C -1.662,9.263 -1.73,9.235 -1.782,9.179 -1.833,9.124 -1.858,9.057 -1.858,8.98 V 5.65 h -4.314 v 3.33 c 0,0.077 -0.031,0.144 -0.096,0.199 C -6.332,9.235 -6.4,9.263 -6.472,9.263 H -7.754 C -7.839,9.263 -7.907,9.234 -7.955,9.176 -8.004,9.118 -8.029,9.053 -8.029,8.98 v -9 c 0,-0.175 0.091,-0.263 0.275,-0.263 h 1.269 c 0.209,0 0.313,0.095 0.313,0.283 v 3.889 h 4.314 V 0 c 0,-0.188 0.094,-0.283 0.281,-0.283 h 1.275 C -0.101,-0.283 0,-0.188 0,0"
         style="fill:#000000;fill-opacity:1;fill-rule:nonzero;stroke:none"
         id="path749" />
    </g>
    <g
       id="g751"
       transform="matrix(0.90605135,0,0,-0.90605135,204.97139,127.17658)"
       style="display:inline">
      <path
         d="M 0,0 C 0.231,0.587 0.462,1.198 0.691,1.832 0.92,2.466 1.151,3.079 1.382,3.67 L 2.738,0 Z m 5.843,-3.233 c 0,0.021 -0.004,0.047 -0.01,0.08 -0.006,0.032 -0.009,0.054 -0.009,0.067 L 2.43,5.406 2.217,5.908 C 2.196,5.946 2.163,5.991 2.118,6.042 2.073,6.094 1.998,6.12 1.896,6.12 H 0.861 C 0.763,6.12 0.684,6.09 0.627,6.033 0.569,5.975 0.533,5.922 0.52,5.875 l -3.464,-8.626 c -0.022,-0.061 -0.047,-0.126 -0.074,-0.2 -0.028,-0.072 -0.053,-0.152 -0.074,-0.237 -0.005,-0.013 -0.006,-0.033 -0.006,-0.059 0,-0.059 0.025,-0.105 0.074,-0.134 0.049,-0.03 0.114,-0.045 0.195,-0.045 h 1.286 c 0.163,0 0.274,0.079 0.334,0.238 0.074,0.197 0.162,0.427 0.267,0.691 0.105,0.263 0.213,0.545 0.325,0.845 H 3.349 C 3.426,-1.862 3.506,-2.07 3.587,-2.276 3.668,-2.481 3.75,-2.687 3.831,-2.893 L 3.947,-3.188 C 3.981,-3.27 4.024,-3.33 4.075,-3.369 4.126,-3.407 4.2,-3.426 4.294,-3.426 H 5.56 c 0.189,0 0.283,0.064 0.283,0.193"
         style="fill:#000000;fill-opacity:1;fill-rule:nonzero;stroke:none"
         id="path753" />
    </g>
    <g
       id="g755"
       transform="matrix(0.90605135,0,0,-0.90605135,213.10771,121.69496)"
       style="display:inline">
      <path
         d="m 0,0 c -0.063,0.051 -0.132,0.077 -0.204,0.077 h -1.275 c -0.094,0 -0.165,-0.028 -0.212,-0.084 -0.047,-0.055 -0.07,-0.122 -0.07,-0.199 v -8.98 c 0,-0.189 0.094,-0.283 0.282,-0.283 h 1.275 c 0.2,0 0.301,0.094 0.301,0.283 v 8.98 C 0.097,-0.121 0.064,-0.052 0,0"
         style="fill:#000000;fill-opacity:1;fill-rule:nonzero;stroke:none"
         id="path757" />
    </g>
    <g
       id="g759"
       transform="matrix(0.90605135,0,0,-0.90605135,222.50531,121.69496)"
       style="display:inline">
      <path
         d="M 0,0 C -0.062,0.051 -0.136,0.077 -0.222,0.077 H -1.463 C -1.536,0.077 -1.598,0.056 -1.649,0.012 -1.7,-0.03 -1.733,-0.09 -1.746,-0.167 v -6.159 c -0.732,1.046 -1.459,2.084 -2.178,3.115 -0.72,1.03 -1.447,2.068 -2.18,3.114 -0.043,0.06 -0.091,0.104 -0.145,0.132 -0.053,0.027 -0.109,0.042 -0.169,0.042 h -1.479 c -0.09,0 -0.16,-0.028 -0.209,-0.084 -0.049,-0.055 -0.074,-0.124 -0.074,-0.205 v -8.98 c 0,-0.086 0.023,-0.154 0.067,-0.203 0.046,-0.049 0.117,-0.074 0.216,-0.074 h 1.234 c 0.107,0 0.183,0.024 0.229,0.071 0.044,0.047 0.067,0.118 0.067,0.212 v 6.447 c 0.75,-1.097 1.498,-2.191 2.246,-3.281 0.748,-1.09 1.499,-2.183 2.253,-3.275 0.082,-0.116 0.17,-0.174 0.264,-0.174 h 1.395 c 0.201,0 0.302,0.088 0.302,0.263 v 9 C 0.093,-0.121 0.062,-0.052 0,0"
         style="fill:#000000;fill-opacity:1;fill-rule:nonzero;stroke:none"
         id="path761" />
    </g>
    <g
       id="g763"
       transform="matrix(0.90605135,0,0,-0.90605135,148.46006,128.51754)"
       style="display:inline">
      <path
         d="M 0,0 C -0.092,-0.223 -0.217,-0.417 -0.375,-0.584 -0.533,-0.751 -0.716,-0.885 -0.923,-0.985 -1.131,-1.086 -1.35,-1.136 -1.581,-1.136 H -5.307 V 2.22 2.592 h 3.681 c 0.235,0 0.46,-0.052 0.674,-0.157 0.213,-0.105 0.4,-0.245 0.561,-0.42 0.16,-0.176 0.288,-0.377 0.385,-0.603 C 0.09,1.185 0.138,0.949 0.138,0.706 0.138,0.458 0.092,0.222 0,0 m -4.757,7.298 c 10e-4,-0.006 0.002,-0.011 0.002,-0.017 0,0.006 -0.001,0.011 -0.002,0.017 m -0.019,0.106 c 10e-4,-0.003 0.002,-0.005 0.002,-0.008 0,0.003 -0.001,0.005 -0.002,0.008 m -0.03,0.105 c 0.001,0 0.001,-0.001 0.001,-0.002 0,0.001 0,0.002 -0.001,0.002 m 0.04,-0.533 c 0.001,0.006 0.002,0.011 0.002,0.017 0,-0.006 -10e-4,-0.011 -0.002,-0.017 M 0.502,2.166 C 0.363,2.375 0.198,2.563 0.008,2.729 -0.183,2.894 -0.391,3.022 -0.618,3.117 -0.291,3.335 -0.028,3.618 0.169,3.965 0.367,4.312 0.466,4.697 0.466,5.121 0.466,5.472 0.4,5.8 0.27,6.104 0.139,6.407 -0.041,6.672 -0.27,6.896 c -0.229,0.225 -0.497,0.401 -0.805,0.527 -0.309,0.127 -0.64,0.19 -0.996,0.19 h -2.776 c 0,-0.001 0,-0.001 0.001,-0.002 -0.169,0.368 -0.54,0.623 -0.971,0.623 -0.59,0 -1.068,-0.478 -1.068,-1.068 0,-0.59 0.478,-1.069 1.068,-1.069 0.466,0 0.861,0.299 1.007,0.714 0,-0.001 0,-0.001 0,-0.002 h 0.056 2.683 c 0.244,0 0.472,-0.042 0.683,-0.128 0.213,-0.085 0.395,-0.204 0.55,-0.355 0.154,-0.152 0.276,-0.331 0.365,-0.538 0.09,-0.207 0.135,-0.433 0.135,-0.676 0,-0.243 -0.045,-0.469 -0.135,-0.679 C -0.562,4.224 -0.687,4.042 -0.845,3.889 -1.003,3.735 -1.187,3.615 -1.397,3.527 -1.607,3.439 -1.833,3.396 -2.078,3.396 h -3.229 v 0.778 0.423 c 0,0.197 -0.102,0.296 -0.307,0.296 H -5.782 C -6.001,4.893 -6.11,4.794 -6.11,4.597 V 4.174 2.22 -1.753 c 0.008,-0.051 0.028,-0.094 0.061,-0.129 0.032,-0.034 0.078,-0.053 0.138,-0.057 h 4.324 c 0.355,0.004 0.687,0.079 0.995,0.225 0.308,0.146 0.575,0.339 0.802,0.582 0.227,0.242 0.405,0.522 0.536,0.84 0.13,0.317 0.196,0.651 0.196,1.003 0,0.262 -0.039,0.517 -0.116,0.766 C 0.749,1.725 0.641,1.955 0.502,2.166"
         style="fill:#000000;fill-opacity:1;fill-rule:nonzero;stroke:none"
         id="path765" />
    </g>
    <g
       id="g767"
       transform="matrix(0.90605135,0,0,-0.90605135,182.97155,129.31484)"
       style="display:inline">
      <path
         d="M 0,0 C -0.001,-0.001 -0.002,-0.002 -0.003,-0.004 -0.002,-0.002 -0.001,-0.001 0,0 M 0.278,0.256 C 0.275,0.254 0.272,0.253 0.269,0.25 0.272,0.253 0.275,0.254 0.278,0.256 M 0.129,0.142 C 0.127,0.139 0.124,0.137 0.12,0.134 0.124,0.137 0.127,0.139 0.129,0.142 M -6.256,6.991 C -6.253,6.99 -6.25,6.99 -6.247,6.989 -6.25,6.99 -6.253,6.99 -6.256,6.991 m 0.385,0 C -5.873,6.99 -5.875,6.99 -5.877,6.99 c 0.002,0 0.004,0 0.006,10e-4 M 0.851,0.424 C 0.705,0.424 0.566,0.395 0.438,0.341 L -3.076,4.521 0.53,8.295 C 0.517,8.321 0.513,8.333 0.517,8.333 L 0.524,8.327 c 0,-0.005 0.002,-0.009 0.006,-0.013 0.043,0.042 0.064,0.08 0.064,0.109 0,0.039 -0.045,0.058 -0.134,0.058 H -0.247 C -0.299,8.481 -0.352,8.463 -0.405,8.426 -0.459,8.39 -0.515,8.342 -0.575,8.282 L -5.692,2.851 v 4.19 c 0.406,0.15 0.696,0.541 0.696,1 0,0.59 -0.479,1.068 -1.068,1.068 -0.59,0 -1.069,-0.478 -1.069,-1.068 0,-0.461 0.293,-0.853 0.702,-1.003 0,10e-4 0,10e-4 -0.001,10e-4 v -7.808 c 0,-0.197 0.095,-0.295 0.284,-0.295 h 0.154 c 0.201,0 0.302,0.098 0.302,0.295 V 1.764 L -3.57,4 -0.101,-0.162 c -0.074,-0.145 -0.116,-0.308 -0.116,-0.483 0,-0.589 0.478,-1.068 1.068,-1.068 0.59,0 1.069,0.479 1.069,1.068 0,0.591 -0.479,1.069 -1.069,1.069"
         style="fill:#000000;fill-opacity:1;fill-rule:nonzero;stroke:none"
         id="path769" />
    </g>
    <g
       id="g771"
       transform="matrix(0.90605135,0,0,-0.90605135,135.065,119.86474)"
       style="display:inline">
      <path
         d="M 0,0 C 0.235,0.001 0.447,-0.095 0.601,-0.25 L 5.105,2.327 0.009,5.271 -5.009,2.393 -0.529,-0.195 C -0.385,-0.076 -0.202,-0.001 0,0"
         style="fill:#000000;fill-opacity:1;fill-rule:nonzero;stroke:none"
         id="path773" />
    </g>
    <g
       id="g775"
       transform="matrix(0.90605135,0,0,-0.90605135,135.81702,120.49898)"
       style="display:inline">
      <path
         d="m 0,0 c 0.008,-0.047 0.015,-0.095 0.016,-0.144 0.001,-0.372 -0.24,-0.685 -0.575,-0.798 l 0.013,-5.251 5.069,2.906 0.003,5.876 z"
         style="fill:#000000;fill-opacity:1;fill-rule:nonzero;stroke:none"
         id="path777" />
    </g>
    <g
       id="g779"
       transform="matrix(0.90605135,0,0,-0.90605135,134.3456,129.33298)"
       style="display:inline">
      <path
         d="m 0,0 c 0,0.033 0.006,0.065 0.01,0.098 l -4.511,2.606 0.097,-5.86 4.978,-2.876 -0.009,5.244 C 0.239,-0.673 0.002,-0.366 0,0"
         style="fill:#000000;fill-opacity:1;fill-rule:nonzero;stroke:none"
         id="path781" />
    </g>
    <g
       id="g783"
       transform="matrix(0.90605135,0,0,-0.90605135,126.72388,124.98394)"
       style="display:inline">
      <path
         d="m 0,0 c 0,0.053 0.005,0.105 0.015,0.156 l -4.51,2.605 0.015,-5.813 5.145,-2.971 -0.081,5.23 C 0.247,-0.685 0.001,-0.373 0,0"
         style="fill:#000000;fill-opacity:1;fill-rule:nonzero;stroke:none"
         id="path785" />
    </g>
    <g
       id="g787"
       transform="matrix(0.90605135,0,0,-0.90605135,127.48224,124.22284)"
       style="display:inline">
      <path
         d="m 0,0 c 0.228,0.001 0.433,-0.089 0.586,-0.235 l 4.483,2.578 -5.107,2.93 -5.051,-2.922 4.498,-2.598 C -0.44,-0.096 -0.231,-0.001 0,0"
         style="fill:#000000;fill-opacity:1;fill-rule:nonzero;stroke:none"
         id="path789" />
    </g>
    <g
       id="g791"
       transform="matrix(0.90605135,0,0,-0.90605135,134.30664,120.63488)"
       style="display:inline">
      <path
         d="m 0,0 c 0,0.081 0.014,0.158 0.035,0.232 l -4.454,2.574 0.018,-2.734 2.684,-1.541 0.044,-2.511 c 0.33,-0.112 0.571,-0.421 0.572,-0.791 C -1.1,-4.858 -1.117,-4.94 -1.141,-5.02 L 0.623,-6.039 0.609,-0.801 C 0.26,-0.7 0.002,-0.382 0,0"
         style="fill:#000000;fill-opacity:1;fill-rule:nonzero;stroke:none"
         id="path793" />
    </g>
    <g
       id="g795"
       transform="matrix(0.90605135,0,0,-0.90605135,135.10486,128.5719)"
       style="display:inline">
      <path
         d="M 0,0 C 0.244,0.001 0.462,-0.104 0.617,-0.269 L 5.073,2.28 2.788,3.602 -0.009,1.998 -2.305,3.325 C -2.447,3.212 -2.623,3.143 -2.818,3.142 -3.005,3.141 -3.176,3.203 -3.316,3.305 L -5.094,2.293 -0.626,-0.288 C -0.473,-0.114 -0.251,-0.001 0,0"
         style="fill:#000000;fill-opacity:1;fill-rule:nonzero;stroke:none"
         id="path797" />
    </g>
    <g
       id="g799"
       transform="matrix(0.90605135,0,0,-0.90605135,135.85868,129.22426)"
       style="display:inline">
      <path
         d="M 0,0 C 0.006,-0.039 0.012,-0.077 0.012,-0.117 0.014,-0.505 -0.25,-0.831 -0.606,-0.929 l 0.008,-5.231 5.1,2.905 -0.01,5.825 z"
         style="fill:#000000;fill-opacity:1;fill-rule:nonzero;stroke:none"
         id="path801" />
    </g>
    <g
       id="g803"
       transform="matrix(0.90605135,0,0,-0.90605135,132.33868,124.2319)"
       style="display:inline">
      <path
         d="m 0,0 -0.033,1.928 -4.5,-2.587 c 0.012,-0.054 0.018,-0.11 0.019,-0.167 0.001,-0.382 -0.253,-0.701 -0.6,-0.806 l 0.081,-5.242 2.292,1.34 -0.052,3.184 2.232,1.271 C -0.59,-0.994 -0.61,-0.904 -0.61,-0.809 -0.612,-0.424 -0.353,-0.101 0,0"
         style="fill:#000000;fill-opacity:1;fill-rule:nonzero;stroke:none"
         id="path805" />
    </g>
    <g
       id="g807"
       transform="matrix(0.90605135,0,0,-0.90605135,144.47614,118.48754)"
       style="display:inline">
      <path
         d="m 0,0 -0.656,1.652 c -0.072,0.175 -0.143,0.443 -0.143,0.443 0,0 -0.076,-0.268 -0.147,-0.443 L -1.603,0 Z m -0.831,2.795 h 0.065 L 0.81,-0.963 H 0.394 l -0.252,0.624 h -1.881 l -0.247,-0.624 h -0.388 z"
         style="fill:#000000;fill-opacity:1;fill-rule:nonzero;stroke:none"
         id="path809" />
    </g>
    <g
       id="g811"
       transform="matrix(0.90605135,0,0,-0.90605135,145.58608,118.72312)"
       style="display:inline">
      <path
         d="m 0,0 0.328,0.175 c 0.175,-0.312 0.432,-0.58 0.958,-0.58 0.432,0 0.771,0.241 0.771,0.634 0,0.378 -0.235,0.569 -0.7,0.777 L 1.061,1.143 c -0.53,0.241 -0.82,0.498 -0.82,1.018 0,0.536 0.421,0.891 0.979,0.891 0.498,0 0.81,-0.23 1.007,-0.558 L 1.909,2.297 C 1.767,2.527 1.57,2.702 1.22,2.702 0.853,2.702 0.629,2.489 0.629,2.171 0.629,1.843 0.804,1.696 1.22,1.504 L 1.515,1.367 C 2.134,1.094 2.451,0.788 2.451,0.229 2.451,-0.383 1.964,-0.755 1.297,-0.755 0.585,-0.755 0.197,-0.394 0,0"
         style="fill:#000000;fill-opacity:1;fill-rule:nonzero;stroke:none"
         id="path813" />
    </g>
    <g
       id="g815"
       transform="matrix(0.90605135,0,0,-0.90605135,151.48356,117.68116)"
       style="display:inline">
      <path
         d="m 0,0 c 0,0.886 -0.635,1.548 -1.504,1.548 -0.865,0 -1.499,-0.662 -1.499,-1.548 0,-0.886 0.634,-1.548 1.499,-1.548 C -0.635,-1.548 0,-0.886 0,0 m -3.414,0 c 0,1.122 0.854,1.904 1.91,1.904 1.061,0 1.914,-0.782 1.914,-1.904 0,-1.121 -0.853,-1.903 -1.914,-1.903 -1.056,0 -1.91,0.782 -1.91,1.903"
         style="fill:#000000;fill-opacity:1;fill-rule:nonzero;stroke:none"
         id="path817" />
    </g>
    <g
       id="g819"
       transform="matrix(0.90605135,0,0,-0.90605135,152.43944,117.68116)"
       style="display:inline">
      <path
         d="m 0,0 c 0,1.122 0.853,1.904 1.909,1.904 0.657,0 1.16,-0.246 1.477,-0.722 L 3.085,0.963 C 2.845,1.318 2.445,1.548 1.909,1.548 1.039,1.548 0.41,0.886 0.41,0 c 0,-0.886 0.629,-1.548 1.499,-1.548 0.542,0 0.958,0.236 1.225,0.624 L 3.441,-1.138 C 3.113,-1.619 2.577,-1.903 1.909,-1.903 0.853,-1.903 0,-1.121 0,0"
         style="fill:#000000;fill-opacity:1;fill-rule:nonzero;stroke:none"
         id="path821" />
    </g>
    <path
       d="m 156.2947,115.9959 h 0.36148 v 3.3707 h -0.36148 z"
       style="display:inline;fill:#000000;fill-opacity:1;fill-rule:nonzero;stroke:none;stroke-width:0.906052"
       id="path823" />
    <g
       id="g825"
       transform="matrix(0.90605135,0,0,-0.90605135,159.5157,118.48754)"
       style="display:inline">
      <path
         d="m 0,0 -0.656,1.652 c -0.072,0.175 -0.143,0.443 -0.143,0.443 0,0 -0.076,-0.268 -0.147,-0.443 L -1.603,0 Z m -0.831,2.795 h 0.065 L 0.81,-0.963 H 0.394 l -0.252,0.624 h -1.881 l -0.247,-0.624 h -0.388 z"
         style="fill:#000000;fill-opacity:1;fill-rule:nonzero;stroke:none"
         id="path827" />
    </g>
    <g
       id="g829"
       transform="matrix(0.90605135,0,0,-0.90605135,160.52596,117.68116)"
       style="display:inline">
      <path
         d="m 0,0 c 0,1.122 0.853,1.904 1.909,1.904 0.657,0 1.16,-0.246 1.477,-0.722 L 3.085,0.963 C 2.845,1.318 2.445,1.548 1.909,1.548 1.039,1.548 0.41,0.886 0.41,0 c 0,-0.886 0.629,-1.548 1.499,-1.548 0.542,0 0.958,0.236 1.225,0.624 L 3.441,-1.138 C 3.113,-1.619 2.577,-1.903 1.909,-1.903 0.853,-1.903 0,-1.121 0,0"
         style="fill:#000000;fill-opacity:1;fill-rule:nonzero;stroke:none"
         id="path831" />
    </g>
    <path
       d="m 164.38209,115.9959 h 0.36152 v 3.3707 h -0.36152 z"
       style="display:inline;fill:#000000;fill-opacity:1;fill-rule:nonzero;stroke:none;stroke-width:0.906052"
       id="path833" />
    <g
       id="g835"
       transform="matrix(0.90605135,0,0,-0.90605135,167.45905,114.67308)"
       style="display:inline">
      <path
         d="m 0,0 h 0.438 l -0.509,-1.056 h -0.301 z m 1.291,-3.315 c 0,0.886 -0.635,1.548 -1.504,1.548 -0.865,0 -1.499,-0.662 -1.499,-1.548 0,-0.886 0.634,-1.548 1.499,-1.548 0.869,0 1.504,0.662 1.504,1.548 m -3.414,0 c 0,1.122 0.854,1.904 1.91,1.904 1.061,0 1.914,-0.782 1.914,-1.904 0,-1.121 -0.853,-1.903 -1.914,-1.903 -1.056,0 -1.91,0.782 -1.91,1.903"
         style="fill:#000000;fill-opacity:1;fill-rule:nonzero;stroke:none"
         id="path837" />
    </g>
    <g
       id="g839"
       transform="matrix(0.90605135,0,0,-0.90605135,170.31853,117.01974)"
       style="display:inline">
      <path
         d="m 0,0 c -0.104,0.126 -0.257,0.345 -0.257,0.345 0,0 0.033,-0.263 0.033,-0.422 v -2.51 h -0.372 v 3.758 h 0.065 L 1.69,-1.455 C 1.794,-1.581 1.947,-1.8 1.947,-1.8 c 0,0 -0.027,0.263 -0.027,0.422 v 2.51 H 2.286 V -2.625 H 2.221 Z"
         style="fill:#000000;fill-opacity:1;fill-rule:nonzero;stroke:none"
         id="path841" />
    </g>
    <g
       id="g843"
       transform="matrix(0.90605135,0,0,-0.90605135,161.44014,130.25714)"
       style="display:inline">
      <path
         d="m 0,0 c -2.339,0 -4.241,1.903 -4.241,4.241 0,2.339 1.902,4.242 4.241,4.242 0.265,0 0.523,-0.028 0.775,-0.074 C 0.766,8.353 0.758,8.296 0.758,8.238 c 0,-0.585 0.474,-1.059 1.059,-1.059 0.327,0 0.617,0.152 0.811,0.385 C 3.609,6.787 4.241,5.587 4.241,4.241 4.241,1.903 2.339,0 0,0 M 2.87,8.183 C 2.871,8.202 2.876,8.219 2.876,8.238 2.876,8.823 2.402,9.297 1.817,9.297 1.531,9.297 1.272,9.182 1.082,8.998 0.733,9.077 0.372,9.12 0,9.12 c -2.69,0 -4.879,-2.188 -4.879,-4.879 0,-2.69 2.189,-4.879 4.879,-4.879 2.69,0 4.879,2.189 4.879,4.879 0,1.618 -0.792,3.054 -2.009,3.942"
         style="fill:#000000;fill-opacity:1;fill-rule:nonzero;stroke:none"
         id="path845" />
    </g>
    <g
       id="g847"
       transform="matrix(0.90605135,0,0,-0.90605135,161.44014,122.61914)"
       style="display:inline">
      <path
         d="m 0,0 c -2.309,0 -4.188,-1.879 -4.188,-4.188 0,-2.31 1.879,-4.188 4.188,-4.188 2.309,0 4.188,1.878 4.188,4.188 0,1.266 -0.565,2.447 -1.553,3.249 -0.213,-0.233 -0.508,-0.365 -0.818,-0.365 -0.614,0 -1.112,0.499 -1.112,1.112 0,0.045 0.004,0.088 0.009,0.128 C 0.468,-0.021 0.233,0 0,0 m 0,-8.483 c -2.368,0 -4.295,1.927 -4.295,4.295 0,2.368 1.927,4.294 4.295,4.294 0.256,0 0.512,-0.024 0.785,-0.075 L 0.836,0.021 0.827,-0.03 C 0.819,-0.081 0.811,-0.136 0.811,-0.192 c 0,-0.555 0.451,-1.006 1.006,-1.006 0.296,0 0.576,0.134 0.77,0.366 l 0.033,0.04 0.041,-0.032 C 3.699,-1.646 4.294,-2.873 4.294,-4.188 4.294,-6.556 2.368,-8.483 0,-8.483 m 0,9.12 c -2.661,0 -4.826,-2.164 -4.826,-4.825 0,-2.661 2.165,-4.826 4.826,-4.826 2.661,0 4.826,2.165 4.826,4.826 0,1.533 -0.743,2.99 -1.987,3.898 l -0.023,0.018 0.001,0.028 c 10e-4,0.01 0.002,0.019 0.003,0.029 0.001,0.007 0.003,0.015 0.003,0.023 0,0.555 -0.452,1.006 -1.006,1.006 C 1.556,0.814 1.308,0.713 1.118,0.53 L 1.098,0.51 1.07,0.517 C 0.717,0.597 0.357,0.637 0,0.637 M 0,-9.12 c -2.72,0 -4.932,2.212 -4.932,4.932 0,2.719 2.212,4.932 4.932,4.932 0.355,0 0.714,-0.04 1.065,-0.118 0.207,0.19 0.473,0.294 0.752,0.294 0.613,0 1.112,-0.499 1.112,-1.112 0,-0.01 -10e-4,-0.02 -0.002,-0.03 1.256,-0.93 2.005,-2.41 2.005,-3.966 C 4.932,-6.908 2.72,-9.12 0,-9.12"
         style="fill:#000000;fill-opacity:1;fill-rule:nonzero;stroke:none"
         id="path849" />
    </g>
    <g
       id="g851"
       transform="matrix(0.90605135,0,0,-0.90605135,174.30153,127.86518)"
       style="display:inline">
      <path
         d="m 0,0 c -0.585,0 -1.059,-0.474 -1.059,-1.059 0,-0.135 0.027,-0.262 0.073,-0.38 -0.713,-0.519 -1.572,-0.802 -2.454,-0.802 -2.309,0 -4.188,1.879 -4.188,4.188 0,2.309 1.879,4.188 4.188,4.188 0.552,0 1.09,-0.108 1.592,-0.317 -0.015,-0.07 -0.023,-0.144 -0.023,-0.218 0,-0.585 0.474,-1.059 1.059,-1.059 0.585,0 1.059,0.474 1.059,1.059 0,0.585 -0.474,1.059 -1.059,1.059 -0.235,0 -0.45,-0.079 -0.626,-0.209 -0.626,0.28 -1.303,0.429 -2.002,0.429 -2.72,0 -4.932,-2.212 -4.932,-4.932 0,-2.719 2.212,-4.932 4.932,-4.932 1.069,0 2.103,0.35 2.954,0.99 0.146,-0.076 0.31,-0.123 0.486,-0.123 0.585,0 1.059,0.474 1.059,1.059 C 1.059,-0.474 0.585,0 0,0"
         style="fill:#000000;fill-opacity:1;fill-rule:nonzero;stroke:none"
         id="path853" />
    </g>
  </g>
</svg>
