<?xml version="1.0" encoding="UTF-8" standalone="no"?>
<svg
   xmlns:dc="http://purl.org/dc/elements/1.1/"
   xmlns:cc="http://creativecommons.org/ns#"
   xmlns:rdf="http://www.w3.org/1999/02/22-rdf-syntax-ns#"
   xmlns:svg="http://www.w3.org/2000/svg"
   xmlns="http://www.w3.org/2000/svg"
   xmlns:sodipodi="http://sodipodi.sourceforge.net/DTD/sodipodi-0.dtd"
   xmlns:inkscape="http://www.inkscape.org/namespaces/inkscape"
   width="50.000004mm"
   height="34.738071mm"
   viewBox="0 0 50.000004 34.738072"
   version="1.1"
   id="svg3667"
   inkscape:version="1.0.2 (e86c8708, 2021-01-15)"
   sodipodi:docname="Logo_Tigo.svg">
  <defs
     id="defs3661" />
  <sodipodi:namedview
     id="base"
     pagecolor="#ffffff"
     bordercolor="#666666"
     borderopacity="1.0"
     inkscape:pageopacity="0.0"
     inkscape:pageshadow="2"
     inkscape:zoom="9.207525"
     inkscape:cx="50.827986"
     inkscape:cy="35.313316"
     inkscape:document-units="mm"
     inkscape:current-layer="layer1"
     inkscape:document-rotation="0"
     showgrid="false"
     inkscape:window-width="1440"
     inkscape:window-height="900"
     inkscape:window-x="0"
     inkscape:window-y="0"
     inkscape:window-maximized="0" />
  <metadata
     id="metadata3664">
    <rdf:RDF>
      <cc:Work
         rdf:about="">
        <dc:format>image/svg+xml</dc:format>
        <dc:type
           rdf:resource="http://purl.org/dc/dcmitype/StillImage" />
        <dc:title />
      </cc:Work>
    </rdf:RDF>
  </metadata>
  <g
     inkscape:label="Layer 1"
     inkscape:groupmode="layer"
     id="layer1"
     transform="translate(-156.64104,-172.84125)">
    <g
       id="g991"
       transform="matrix(0.65580661,0,0,-0.65580661,157.7428,178.39659)"
       style="display:inline">
      <path
         d="m 0,0 c 0.769,0.857 1.772,1.547 2.688,1.547 h 1.334 v -5.062 h 7.986 v -2.291 c 0,-1.166 -1.06,-2.651 -3.442,-2.651 H 4.022 v -8.759 c 0,-2.902 1.315,-4.049 3.598,-4.049 1.853,0 3.29,0.256 4.184,0.806 h 0.204 v -2.008 c 0,-2.264 -1.712,-3.727 -5.058,-3.727 -5.803,0 -8.63,3.072 -8.63,8.314 v 13.455 c 0,2.192 0.423,3.024 1.68,4.425"
         style="fill:#002e82;fill-opacity:1;fill-rule:nonzero;stroke:none"
         id="path993" />
    </g>
    <g
       id="g995"
       transform="matrix(0.65580661,0,0,-0.65580661,170.18411,179.6754)"
       style="display:inline">
      <path
         d="m 0,0 c -1.832,0 -3.326,1.479 -3.326,3.279 0,1.798 1.494,3.238 3.326,3.238 1.826,0 3.385,-1.44 3.385,-3.238 C 3.385,1.479 1.826,0 0,0 m 4.096,-24.209 c -4.479,0 -6.918,2.454 -6.918,6.981 v 15.154 h 1.651 c 2.535,0 4.088,-1.339 4.088,-4.153 v -10.46 c 0,-2.25 0.989,-2.949 3.506,-2.949 h 1.062 v -1.21 c 0,-2.401 -0.971,-3.363 -3.389,-3.363"
         style="fill:#002e82;fill-opacity:1;fill-rule:nonzero;stroke:none"
         id="path997" />
    </g>
    <g
       id="g999"
       transform="matrix(0.65580661,0,0,-0.65580661,202.74031,188.33206)"
       style="display:inline">
      <path
         d="m 0,0 c 0,-3.672 -1.62,-6.317 -4.973,-6.317 -3.773,0 -5.458,2.645 -5.458,7.085 0,3.727 1.685,6.385 4.967,6.385 C -1.705,7.153 0,4.495 0,0 m -16.372,0 c 0,-5.927 3.978,-11.295 10.908,-11.295 7.422,0 11.412,5.368 11.412,12.063 0,5.961 -3.99,11.342 -10.921,11.342 -7.421,0 -11.399,-5.381 -11.399,-12.11"
         style="fill:#002e82;fill-opacity:1;fill-rule:nonzero;stroke:none"
         id="path1001" />
    </g>
    <g
       id="g1003"
       transform="matrix(0.65580661,0,0,-0.65580661,192.73139,178.82286)"
       style="display:inline">
      <path
         d="m 0,0 h 0.121 c 1.865,2.562 5.519,4.717 10.502,4.717 4.596,0 7.729,-2.129 9.956,-4.734 h 0.097 v 2.358 c 0,0.74 -0.364,1.924 -0.88,2.592 C 18.009,7.204 14.4,9.121 10.16,9.121 5.859,9.121 1.986,6.679 0.778,4.785 0.326,4.083 0,3.081 0,2.439 Z"
         style="fill:#002e82;fill-opacity:1;fill-rule:nonzero;stroke:none"
         id="path1005" />
    </g>
    <g
       id="g1007"
       transform="matrix(0.65580661,0,0,-0.65580661,200.84437,200.27429)"
       style="display:inline">
      <path
         d="m 0,0 c 0,-1.079 -0.506,-2.739 -1.143,-3.905 -1.828,-3.179 -7.677,-7.234 -14.164,-7.234 -6.408,0 -11.857,3.184 -14.517,6.988 -0.787,1.11 -1.352,3.072 -1.352,4.283 v 2.803 h 0.179 c 3.345,-4.319 8.072,-7.893 15,-7.893 7.553,0 13.026,3.617 15.838,7.87 H 0"
         style="fill:#002e82;fill-opacity:1;fill-rule:nonzero;stroke:none"
         id="path1009" />
    </g>
    <g
       id="g1011"
       transform="matrix(0.65580661,0,0,-0.65580661,188.19584,188.29926)"
       style="display:inline">
      <path
         d="m 0,0 h -3.047 l 0.109,-0.516 c 0.027,-0.007 0.368,-1.472 0.368,-3.16 v -1.802 c 0,-0.886 -0.201,-1.701 -2.511,-1.701 -3.338,0 -7.343,1.313 -7.343,7.462 0,3.898 3.135,6.753 7.392,6.753 2.717,0 5.269,-0.71 6.731,-1.808 L 1.806,5.144 h 0.751 v 1.93 c 0,2.345 -2.19,4.834 -6.996,4.834 -8.182,0 -13.899,-5.04 -13.899,-12.252 0,-7.694 6.392,-11.708 12.7,-11.708 5.78,0 8.584,1.977 8.584,6.01 v 3.567 C 2.946,-1.201 1.543,0 0,0"
         style="fill:#002e82;fill-opacity:1;fill-rule:nonzero;stroke:none"
         id="path1013" />
    </g>
  </g>
</svg>
