<?xml version="1.0" encoding="UTF-8" standalone="no"?>
<svg
   xmlns:dc="http://purl.org/dc/elements/1.1/"
   xmlns:cc="http://creativecommons.org/ns#"
   xmlns:rdf="http://www.w3.org/1999/02/22-rdf-syntax-ns#"
   xmlns:svg="http://www.w3.org/2000/svg"
   xmlns="http://www.w3.org/2000/svg"
   xmlns:sodipodi="http://sodipodi.sourceforge.net/DTD/sodipodi-0.dtd"
   xmlns:inkscape="http://www.inkscape.org/namespaces/inkscape"
   width="49.999996mm"
   height="10.325101mm"
   viewBox="0 0 49.999996 10.325101"
   version="1.1"
   id="svg3343"
   inkscape:version="1.0.2 (e86c8708, 2021-01-15)"
   sodipodi:docname="Logo_Sfera.svg">
  <defs
     id="defs3337" />
  <sodipodi:namedview
     id="base"
     pagecolor="#ffffff"
     bordercolor="#666666"
     borderopacity="1.0"
     inkscape:pageopacity="0.0"
     inkscape:pageshadow="2"
     inkscape:zoom="4.9530004"
     inkscape:cx="94.488182"
     inkscape:cy="19.512001"
     inkscape:document-units="mm"
     inkscape:current-layer="layer1"
     inkscape:document-rotation="0"
     showgrid="false"
     inkscape:window-width="1440"
     inkscape:window-height="900"
     inkscape:window-x="0"
     inkscape:window-y="0"
     inkscape:window-maximized="0" />
  <metadata
     id="metadata3340">
    <rdf:RDF>
      <cc:Work
         rdf:about="">
        <dc:format>image/svg+xml</dc:format>
        <dc:type
           rdf:resource="http://purl.org/dc/dcmitype/StillImage" />
        <dc:title />
      </cc:Work>
    </rdf:RDF>
  </metadata>
  <g
     inkscape:label="Layer 1"
     inkscape:groupmode="layer"
     id="layer1"
     transform="translate(-91.401195,-145.18642)">
    <g
       id="g947"
       transform="matrix(0.61109759,0,0,-0.61109759,91.401195,152.08204)"
       style="display:inline">
      <path
         d="m 0,0 c 0,1.688 0.949,2.462 3.288,2.814 0.211,0.035 1.794,0.264 2.058,0.299 1.618,0.263 2.022,0.562 2.022,1.196 0,0.686 -0.58,1.125 -2.444,1.125 C 3.218,5.434 2.515,5.047 2.304,4.643 2.216,4.467 2.216,4.062 2.216,3.957 H 0.369 c 0,0.193 0.018,0.791 0.141,1.178 0.457,1.319 1.846,1.934 4.361,1.934 3.007,0 4.361,-1.195 4.361,-2.76 C 9.232,2.62 8.335,1.847 6.19,1.513 5.908,1.46 4.449,1.231 4.22,1.196 2.567,0.932 1.864,0.668 1.864,-0.158 c 0,-0.844 0.651,-1.266 2.567,-1.266 1.776,0 2.743,0.211 2.919,0.862 0.071,0.263 0.071,0.474 0.071,0.632 H 9.302 C 9.302,-0.246 9.285,-0.527 9.215,-0.932 8.863,-2.444 7.421,-2.989 4.449,-2.989 1.266,-2.989 0,-1.917 0,0"
         style="fill:#1a1a1a;fill-opacity:1;fill-rule:nonzero;stroke:none"
         id="path949" />
    </g>
    <g
       id="g951"
       transform="matrix(0.61109759,0,0,-0.61109759,99.933339,148.90434)"
       style="display:inline">
      <path
         d="M 0,0 V -8.036 H -1.917 V 0 h -1.758 v 1.636 h 1.758 v 1.776 c 0,1.529 1.126,2.672 3.289,2.672 0.703,0 1.266,-0.07 1.565,-0.105 V 4.309 C 2.655,4.361 2.11,4.432 1.46,4.432 0.334,4.432 0,3.729 0,2.99 V 1.636 H 2.884 V 0 Z"
         style="fill:#1a1a1a;fill-opacity:1;fill-rule:nonzero;stroke:none"
         id="path953" />
    </g>
    <g
       id="g955"
       transform="matrix(0.61109759,0,0,-0.61109759,106.57413,149.2771)"
       style="display:inline">
      <path
         d="M 0,0 C -0.51,0.51 -1.284,0.844 -2.462,0.844 -3.587,0.844 -4.343,0.492 -4.871,0 -5.363,-0.439 -5.609,-1.055 -5.662,-1.811 H 0.633 C 0.633,-1.073 0.457,-0.457 0,0 m 1.038,-6.665 c -0.774,-0.58 -1.917,-0.932 -3.447,-0.932 -1.776,0 -3.183,0.528 -4.168,1.777 -0.65,0.826 -0.967,1.863 -0.967,3.288 0,1.354 0.352,2.391 0.985,3.218 0.862,1.09 2.251,1.793 4.097,1.793 1.987,0 3.324,-0.703 4.115,-1.775 0.739,-0.933 1.02,-2.515 0.862,-3.975 H -5.68 c 0.035,-0.773 0.317,-1.372 0.827,-1.881 0.545,-0.528 1.424,-0.845 2.462,-0.845 0.984,0 1.758,0.212 2.233,0.511 0.58,0.369 0.774,0.861 0.774,1.09 h 1.846 c 0,-0.651 -0.527,-1.583 -1.424,-2.269"
         style="fill:#1a1a1a;fill-opacity:1;fill-rule:nonzero;stroke:none"
         id="path957" />
    </g>
    <g
       id="g959"
       transform="matrix(0.61109759,0,0,-0.61109759,113.41965,149.08155)"
       style="display:inline">
      <path
         d="m 0,0 c -0.598,0.193 -1.266,0.281 -2.163,0.281 -1.6,0 -2.901,-1.09 -2.901,-2.936 V -7.737 H -6.981 V 1.935 H -5.1 V 0.281 c 0.264,1.091 1.741,1.865 3.289,1.865 0.879,0 1.406,-0.088 1.811,-0.194 z"
         style="fill:#1a1a1a;fill-opacity:1;fill-rule:nonzero;stroke:none"
         id="path961" />
    </g>
    <g
       id="g963"
       transform="matrix(0.61109759,0,0,-0.61109759,116.98662,151.03706)"
       style="display:inline">
      <path
         d="m 0,0 c -1.178,-0.018 -2.181,-0.141 -2.866,-0.545 -0.423,-0.247 -0.651,-0.651 -0.651,-1.126 0,-0.386 0.07,-0.685 0.334,-0.932 0.352,-0.334 1.09,-0.563 2.04,-0.563 0.897,0 1.582,0.124 2.286,0.528 0.405,0.246 0.844,0.774 0.95,1.548 0.053,0.386 0.07,0.791 0.07,0.967 C 1.424,-0.035 0.721,0.018 0,0 m 2.356,-4.537 c -0.087,0 -0.228,0.58 -0.21,1.231 -0.581,-0.756 -1.671,-1.336 -3.799,-1.336 -2.321,0 -3.71,0.932 -3.763,2.514 0,0.123 -0.018,0.352 0,0.528 0.053,1.565 1.371,2.919 4.783,2.989 0.844,0.018 1.741,-0.017 2.743,-0.123 0,0.246 0,0.738 -0.035,1.073 C 1.987,3.271 1.213,3.746 -0.405,3.746 -1.477,3.746 -2.163,3.57 -2.603,3.165 -2.99,2.813 -3.13,2.392 -3.13,1.881 h -1.811 c 0,0.704 0.281,1.548 0.703,2.023 0.756,0.967 1.969,1.442 3.798,1.442 2.814,0 4.203,-1.073 4.326,-2.62 C 3.921,2.25 3.957,0.861 3.939,0.123 3.921,-0.493 3.921,-1.864 3.921,-2.532 c 0,-0.739 0.071,-1.776 0.194,-2.005 z"
         style="fill:#1a1a1a;fill-opacity:1;fill-rule:nonzero;stroke:none"
         id="path965" />
    </g>
    <g
       id="g967"
       transform="matrix(0.61109759,0,0,-0.61109759,120.97343,153.81144)"
       style="display:inline">
      <path
         d="m 0,0 c -0.035,0.035 -0.052,0.176 -0.052,0.369 v 12.802 c 0,0.317 -0.018,0.756 -0.036,0.897 H 0.405 C 0.422,13.98 0.44,13.699 0.44,13.329 V 0.915 C 0.44,0.422 0.44,0.07 0.475,0 Z"
         style="fill:#1a1a1a;fill-opacity:1;fill-rule:nonzero;stroke:none"
         id="path969" />
    </g>
    <g
       id="g971"
       transform="matrix(0.61109759,0,0,-0.61109759,125.2395,148.08545)"
       style="display:inline">
      <path
         d="M 0,0 C -2.585,0 -3.851,-1.583 -3.851,-4.273 H 3.816 C 3.904,-1.213 2.567,0 0,0 m 0.158,-9.531 c -2.62,0 -4.502,1.302 -4.502,5.03 0,3.323 1.477,4.976 4.361,4.976 2.972,0 4.362,-1.512 4.362,-4.572 v -0.615 h -8.23 c 0,-3.078 1.582,-4.361 4.027,-4.361 2.444,0 3.429,1.072 3.64,2.514 H 4.308 C 4.08,-8.44 2.743,-9.531 0.158,-9.531"
         style="fill:#1a1a1a;fill-opacity:1;fill-rule:nonzero;stroke:none"
         id="path973" />
    </g>
    <g
       id="g975"
       transform="matrix(0.61109759,0,0,-0.61109759,129.04358,149.86987)"
       style="display:inline">
      <path
         d="m 0,0 c 0,-1.811 1.073,-2.919 3.324,-2.919 1.987,0 3.411,0.897 3.411,2.972 0,1.653 -0.932,2.954 -3.411,2.954 C 1.125,3.007 0,1.671 0,0 m 7.685,-6.84 c 0,1.231 -0.756,1.793 -4.151,1.916 -1.3,0.053 -1.775,0.088 -1.986,0.123 -0.915,-0.175 -2.005,-0.949 -2.005,-2.039 0,-1.091 0.967,-1.988 3.974,-1.988 3.148,0 4.168,0.757 4.168,1.988 M 6.19,2.567 C 6.63,2.99 7.808,3.236 8.493,3.236 V 2.778 C 8.054,2.778 6.841,2.603 6.454,2.251 6.77,1.882 7.192,1.073 7.192,0.053 c 0,-2.462 -1.793,-3.376 -3.868,-3.376 -1.196,0 -2.216,0.369 -2.585,0.685 -0.475,-0.105 -0.704,-0.386 -0.704,-0.843 0,-0.511 0.58,-0.968 3.587,-1.02 3.518,-0.071 4.538,-0.774 4.538,-2.304 0,-1.618 -1.231,-2.427 -4.643,-2.427 -3.183,0 -4.431,0.809 -4.431,2.392 0,1.16 0.985,1.987 1.793,2.198 -0.844,0.087 -1.301,0.58 -1.301,1.125 0,0.545 0.37,1.002 0.862,1.108 -0.563,0.387 -0.897,1.389 -0.897,2.409 0,2.075 1.565,3.447 3.781,3.447 1.582,0 2.426,-0.51 2.866,-0.88"
         style="fill:#1a1a1a;fill-opacity:1;fill-rule:nonzero;stroke:none"
         id="path977" />
    </g>
    <g
       id="g979"
       transform="matrix(0.61109759,0,0,-0.61109759,137.37163,150.67651)"
       style="display:inline">
      <path
         d="m 0,0 c -3.042,0 -3.992,-1.037 -3.992,-2.532 0,-1.46 0.915,-2.286 3.13,-2.286 1.337,0 2.304,0.281 2.884,0.861 0.598,0.598 0.862,1.39 0.862,2.445 v 1.354 C 1.864,-0.07 0.949,0 0,0 m 2.972,-5.135 c 0,0 -0.141,1.302 -0.106,1.636 -0.404,-0.897 -1.371,-1.759 -3.798,-1.759 -2.427,0 -3.57,0.88 -3.57,2.743 0,1.372 0.827,2.955 4.484,2.955 0.88,0 1.829,-0.036 2.902,-0.176 0,0.317 0,1.442 -0.018,1.864 -0.07,1.512 -0.914,2.093 -3.235,2.093 -2.199,0 -3.201,-0.827 -3.201,-2.797 h -0.475 c 0,2.199 1.266,3.289 3.676,3.289 2.62,0 3.64,-0.792 3.71,-2.427 0.018,-0.404 0.018,-2.128 0.018,-2.778 0,-0.686 -0.018,-2.251 -0.018,-2.796 0,-0.633 0.106,-1.601 0.176,-1.847 z"
         style="fill:#1a1a1a;fill-opacity:1;fill-rule:nonzero;stroke:none"
         id="path981" />
    </g>
    <g
       id="g983"
       transform="matrix(0.61109759,0,0,-0.61109759,141.11092,153.81144)"
       style="display:inline">
      <path
         d="m 0,0 c -0.035,0.035 -0.052,0.176 -0.052,0.369 v 12.802 c 0,0.317 -0.018,0.756 -0.036,0.897 H 0.405 C 0.422,13.98 0.44,13.699 0.44,13.329 V 0.915 C 0.44,0.422 0.44,0.07 0.475,0 Z"
         style="fill:#1a1a1a;fill-opacity:1;fill-rule:nonzero;stroke:none"
         id="path985" />
    </g>
  </g>
</svg>
