<?xml version="1.0" encoding="UTF-8" standalone="no"?>
<svg
   xmlns:dc="http://purl.org/dc/elements/1.1/"
   xmlns:cc="http://creativecommons.org/ns#"
   xmlns:rdf="http://www.w3.org/1999/02/22-rdf-syntax-ns#"
   xmlns:svg="http://www.w3.org/2000/svg"
   xmlns="http://www.w3.org/2000/svg"
   xmlns:sodipodi="http://sodipodi.sourceforge.net/DTD/sodipodi-0.dtd"
   xmlns:inkscape="http://www.inkscape.org/namespaces/inkscape"
   version="1.1"
   id="svg1738"
   xml:space="preserve"
   width="145.28667"
   height="49.146664"
   viewBox="0 0 145.28667 49.146664"
   sodipodi:docname="Logo_PowerAde_S.svg"
   inkscape:version="1.0.2 (e86c8708, 2021-01-15)"><metadata
     id="metadata1744"><rdf:RDF><cc:Work
         rdf:about=""><dc:format>image/svg+xml</dc:format><dc:type
           rdf:resource="http://purl.org/dc/dcmitype/StillImage" /><dc:title></dc:title></cc:Work></rdf:RDF></metadata><defs
     id="defs1742" /><sodipodi:namedview
     pagecolor="#ffffff"
     bordercolor="#666666"
     borderopacity="1"
     objecttolerance="10"
     gridtolerance="10"
     guidetolerance="10"
     inkscape:pageopacity="0"
     inkscape:pageshadow="2"
     inkscape:window-width="1440"
     inkscape:window-height="872"
     id="namedview1740"
     showgrid="false"
     inkscape:zoom="0.77927928"
     inkscape:cx="122.64574"
     inkscape:cy="62.54902"
     inkscape:window-x="0"
     inkscape:window-y="28"
     inkscape:window-maximized="0"
     inkscape:current-layer="g1746" /><g
     id="g1746"
     inkscape:groupmode="layer"
     inkscape:label="Logo_PowerAde"
     transform="matrix(1.3333333,0,0,-1.3333333,-13.845586,877.40451)"><g
       id="g1748"
       transform="translate(356.52819,5164.6734)"><path
         d="m -282.027,-4506.65 -3.714,-10.28 -3.636,10.28 h -4.23 l -3.578,-10.28 -3.652,10.28 h -4.278 l 6.187,-17.2 h 3.515 l 3.984,11.11 3.98,-11.11 h 3.479 l 6.187,17.2 z"
         style="fill:#000000;fill-opacity:1;fill-rule:nonzero;stroke:none"
         id="path1750" /></g><g
       id="g1752"
       transform="translate(329.86619,5152.9234)"><path
         d="m -282.027,-4506.65 c 0,-0.96 -0.533,-1.44 -1.605,-1.44 h -9.187 c -1.065,0 -1.608,0.48 -1.608,1.44 v 6.29 c 0,0.96 0.543,1.44 1.608,1.44 h 9.187 c 1.072,0 1.605,-0.48 1.605,-1.44 z m 4.017,6.3 c 0,1.55 -0.544,2.85 -1.64,3.89 -1.099,1.03 -2.419,1.55 -3.982,1.55 h -9.187 c -1.559,0 -2.887,-0.52 -3.979,-1.55 -1.097,-1.04 -1.639,-2.34 -1.639,-3.89 v -6.31 c 0,-1.56 0.542,-2.85 1.639,-3.89 1.092,-1.04 2.42,-1.55 3.979,-1.55 h 9.187 c 1.563,0 2.883,0.51 3.982,1.55 1.096,1.04 1.64,2.33 1.64,3.89 z"
         style="fill:#000000;fill-opacity:1;fill-rule:nonzero;stroke:none"
         id="path1754" /></g><g
       id="g1756"
       transform="translate(307.56019,5157.1334)"><path
         d="m -282.027,-4506.65 h -10.057 l 3.979,-4.02 h 6.078 c 1.494,0 2.695,0.62 3.607,1.84 0.846,1.09 1.265,2.4 1.265,3.94 0,1.54 -0.419,2.86 -1.265,3.97 -0.912,1.23 -2.113,1.84 -3.607,1.84 h -15.149 v -17.16 h 4.005 v 13.15 h 11.144 c 0.581,0 0.865,-0.6 0.865,-1.8 0,-1.18 -0.284,-1.76 -0.865,-1.76"
         style="fill:#000000;fill-opacity:1;fill-rule:nonzero;stroke:none"
         id="path1758" /></g><g
       id="g1760"
       transform="translate(378.59119,5164.6734)"><path
         d="m -282.027,-4506.65 h -17 v -17.2 h 17.417 v 4.01 h -13.404 v 2.58 h 12.504 v 4.02 h -12.504 v 2.58 h 13.436 v 3.53 0.48 z"
         style="fill:#000000;fill-opacity:1;fill-rule:nonzero;stroke:none"
         id="path1762" /></g><g
       id="g1764"
       transform="translate(400.00419,5147.4834)"><path
         d="m -282.027,-4506.65 -5.056,5.61 h 1.54 c 1.538,0 2.753,0.61 3.649,1.81 0.392,0.52 0.69,1.09 0.896,1.72 0.228,0.69 0.343,1.44 0.343,2.26 0,1.56 -0.413,2.89 -1.239,3.98 -0.896,1.2 -2.111,1.81 -3.649,1.81 h -3.104 -12.667 v -2.24 -14.95 h 4.012 v 10.73 2.45 h 11.53 c 0.731,0 1.098,-0.6 1.098,-1.78 0,-1.18 -0.367,-1.77 -1.098,-1.77 h -10.344 l 2.215,-2.49 4.872,-5.45 1.509,-1.69 z"
         style="fill:#000000;fill-opacity:1;fill-rule:nonzero;stroke:none"
         id="path1766" /></g><g
       id="g1768"
       transform="translate(401.00419,5129.4134)"><path
         d="m -282.027,-4506.65 c 0,-0.7 -0.518,-1.23 -1.187,-1.23 -0.673,0 -1.186,0.53 -1.186,1.23 0,0.68 0.513,1.2 1.186,1.2 0.669,0 1.187,-0.52 1.187,-1.2 m -2.749,0 c 0,-0.87 0.701,-1.57 1.562,-1.57 0.861,0 1.559,0.7 1.559,1.57 0,0.86 -0.698,1.55 -1.559,1.55 -0.861,0 -1.562,-0.69 -1.562,-1.55"
         style="fill:#000000;fill-opacity:1;fill-rule:nonzero;stroke:none"
         id="path1770" /></g><g
       id="g1772"
       transform="translate(399.61519,5129.9434)"><path
         d="m -282.027,-4506.65 h 0.264 c 0.139,0 0.228,-0.11 0.228,-0.22 0,-0.12 -0.089,-0.22 -0.228,-0.22 h -0.264 z m -0.368,-1.36 h 0.368 v 0.64 h 0.185 l 0.295,-0.64 h 0.419 l -0.343,0.69 c 0.165,0.07 0.305,0.22 0.305,0.45 0,0.27 -0.218,0.51 -0.551,0.51 h -0.678 z"
         style="fill:#000000;fill-opacity:1;fill-rule:nonzero;stroke:none"
         id="path1774" /></g><g
       id="g1776"
       transform="translate(341.01719,5139.7334)"><path
         d="m -282.027,-4506.65 c 0,0.86 0.28,1.3 0.832,1.3 h 10.465 c 0.575,0 0.868,-0.44 0.868,-1.31 v -2.4 h -12.165 z m 0,-6.43 h 12.165 v -5.45 h 4.013 v 11.88 c 0,1.45 -0.45,2.7 -1.355,3.74 -0.904,1.05 -2.083,1.57 -3.526,1.57 h -10.465 c -1.426,0 -2.589,-0.52 -3.492,-1.57 -0.906,-1.04 -1.354,-2.29 -1.354,-3.74 v -11.88 h 4.014 z"
         style="fill:#000000;fill-opacity:1;fill-rule:nonzero;stroke:none"
         id="path1778" /></g><g
       id="g1780"
       transform="translate(396.44519,5141.0334)"><path
         d="m -282.027,-4506.65 v 4 h -17.451 v -17.19 h 17.414 v 4.01 h -13.393 v 2.58 h 12.491 v 4.02 h -12.491 v 2.58 z"
         style="fill:#000000;fill-opacity:1;fill-rule:nonzero;stroke:none"
         id="path1782" /></g><g
       id="g1784"
       transform="translate(373.59519,5133.3034)"><path
         d="m -282.027,-4506.65 c 0,-0.96 -0.517,-1.44 -1.54,-1.44 h -9.301 v 9.17 h 9.301 c 1.023,0 1.54,-0.48 1.54,-1.44 z m -1.571,11.74 h -13.284 v -17.19 h 13.284 c 1.561,0 2.883,0.52 3.961,1.55 1.082,1.04 1.626,2.33 1.626,3.89 v 6.31 c 0,1.55 -0.544,2.85 -1.626,3.89 -1.078,1.03 -2.4,1.55 -3.961,1.55"
         style="fill:#000000;fill-opacity:1;fill-rule:nonzero;stroke:none"
         id="path1786" /></g></g></svg>
