<?xml version="1.0" encoding="UTF-8" standalone="no"?>
<svg
   xmlns:dc="http://purl.org/dc/elements/1.1/"
   xmlns:cc="http://creativecommons.org/ns#"
   xmlns:rdf="http://www.w3.org/1999/02/22-rdf-syntax-ns#"
   xmlns:svg="http://www.w3.org/2000/svg"
   xmlns="http://www.w3.org/2000/svg"
   xmlns:sodipodi="http://sodipodi.sourceforge.net/DTD/sodipodi-0.dtd"
   xmlns:inkscape="http://www.inkscape.org/namespaces/inkscape"
   width="49.999996mm"
   height="20.222925mm"
   viewBox="0 0 49.999996 20.222925"
   version="1.1"
   id="svg3487"
   inkscape:version="1.0.2 (e86c8708, 2021-01-15)"
   sodipodi:docname="Logo_Catalina.svg">
  <defs
     id="defs3481" />
  <sodipodi:namedview
     id="base"
     pagecolor="#ffffff"
     bordercolor="#666666"
     borderopacity="1.0"
     inkscape:pageopacity="0.0"
     inkscape:pageshadow="2"
     inkscape:zoom="0.35"
     inkscape:cx="201.37228"
     inkscape:cy="396.79688"
     inkscape:document-units="mm"
     inkscape:current-layer="layer1"
     inkscape:document-rotation="0"
     showgrid="false"
     inkscape:window-width="1440"
     inkscape:window-height="900"
     inkscape:window-x="0"
     inkscape:window-y="0"
     inkscape:window-maximized="0" />
  <metadata
     id="metadata3484">
    <rdf:RDF>
      <cc:Work
         rdf:about="">
        <dc:format>image/svg+xml</dc:format>
        <dc:type
           rdf:resource="http://purl.org/dc/dcmitype/StillImage" />
        <dc:title />
      </cc:Work>
    </rdf:RDF>
  </metadata>
  <g
     inkscape:label="Layer 1"
     inkscape:groupmode="layer"
     id="layer1"
     transform="translate(-52.553585,-43.180826)">
    <g
       id="g859"
       transform="matrix(0.59889567,0,0,-0.59889567,56.183495,46.66221)"
       style="display:inline">
      <path
         d="m 0,0 c 0.602,0 1.144,-0.091 1.627,-0.271 0.483,-0.183 0.896,-0.389 1.244,-0.624 0.346,-0.233 0.613,-0.466 0.801,-0.7 0.189,-0.235 0.283,-0.413 0.283,-0.531 0,-0.166 -0.067,-0.308 -0.202,-0.431 -0.136,-0.119 -0.288,-0.18 -0.453,-0.18 -0.195,0 -0.361,0.068 -0.496,0.203 -0.378,0.331 -0.807,0.6 -1.289,0.804 -0.484,0.204 -1.003,0.305 -1.562,0.305 -0.557,0 -1.08,-0.106 -1.568,-0.318 -0.492,-0.212 -0.923,-0.5 -1.291,-0.871 -0.37,-0.367 -0.659,-0.802 -0.87,-1.298 -0.212,-0.496 -0.318,-1.026 -0.318,-1.584 0,-0.555 0.106,-1.081 0.318,-1.57 0.211,-0.49 0.5,-0.918 0.87,-1.289 0.368,-0.37 0.799,-0.66 1.291,-0.87 0.488,-0.21 1.011,-0.316 1.568,-0.316 0.559,0 1.078,0.102 1.562,0.304 0.482,0.205 0.911,0.487 1.289,0.847 0.135,0.136 0.301,0.206 0.496,0.206 0.181,0 0.342,-0.066 0.487,-0.192 0.143,-0.13 0.214,-0.291 0.214,-0.486 0,-0.123 -0.087,-0.299 -0.26,-0.533 C 3.567,-9.627 3.307,-9.858 2.96,-10.083 2.615,-10.31 2.188,-10.505 1.684,-10.67 c -0.505,-0.166 -1.082,-0.248 -1.731,-0.248 -0.753,0 -1.456,0.135 -2.113,0.404 -0.656,0.272 -1.232,0.649 -1.729,1.13 -0.496,0.482 -0.89,1.056 -1.177,1.719 -0.285,0.665 -0.427,1.385 -0.427,2.169 0,0.753 0.138,1.459 0.415,2.114 0.281,0.655 0.665,1.23 1.155,1.72 0.489,0.49 1.07,0.879 1.739,1.174 0.671,0.295 1.4,0.456 2.184,0.488"
         style="fill:#231f20;fill-opacity:1;fill-rule:nonzero;stroke:none"
         id="path861" />
    </g>
    <g
       id="g863"
       transform="matrix(0.59889567,0,0,-0.59889567,64.766866,49.938179)"
       style="display:inline">
      <path
         d="m 0,0 c 0,0.558 -0.106,1.085 -0.315,1.584 -0.212,0.496 -0.503,0.931 -0.871,1.297 -0.37,0.371 -0.802,0.66 -1.301,0.871 -0.496,0.213 -1.025,0.319 -1.582,0.319 -0.557,0 -1.082,-0.106 -1.572,-0.319 C -6.129,3.541 -6.56,3.252 -6.93,2.881 -7.297,2.515 -7.589,2.08 -7.798,1.584 -8.01,1.085 -8.116,0.558 -8.116,0 c 0,-0.558 0.106,-1.083 0.318,-1.571 0.209,-0.492 0.501,-0.918 0.868,-1.289 0.37,-0.369 0.801,-0.66 1.289,-0.871 0.49,-0.21 1.015,-0.316 1.572,-0.316 0.543,0 1.056,0.104 1.539,0.305 0.48,0.203 0.907,0.488 1.275,0.848 0.37,0.363 0.665,0.789 0.883,1.278 C -0.154,-1.126 -0.03,-0.587 0,0 m 0,-3.39 c -0.496,-0.56 -1.096,-1.037 -1.797,-1.437 -0.699,-0.399 -1.457,-0.598 -2.272,-0.598 -0.753,0 -1.458,0.135 -2.113,0.404 -0.655,0.272 -1.232,0.649 -1.729,1.135 -0.498,0.479 -0.892,1.052 -1.177,1.715 -0.285,0.664 -0.429,1.387 -0.429,2.171 0,0.753 0.14,1.465 0.417,2.137 0.279,0.668 0.665,1.255 1.155,1.751 0.49,0.499 1.068,0.891 1.74,1.177 0.67,0.284 1.397,0.43 2.181,0.43 0.724,0 1.413,-0.148 2.068,-0.441 C -1.299,4.76 -0.722,4.363 -0.225,3.865 0.271,3.369 0.669,2.788 0.96,2.125 1.255,1.461 1.401,0.753 1.401,0 V -4.77 C 1.401,-4.967 1.336,-5.133 1.2,-5.269 1.064,-5.404 0.897,-5.47 0.701,-5.47 0.506,-5.47 0.34,-5.404 0.205,-5.269 0.069,-5.133 0,-4.967 0,-4.77 Z"
         style="fill:#231f20;fill-opacity:1;fill-rule:nonzero;stroke:none"
         id="path865" />
    </g>
    <g
       id="g867"
       transform="matrix(0.59889567,0,0,-0.59889567,67.095373,44.967337)"
       style="display:inline">
      <path
         d="M 0,0 C 0,0.197 0.069,0.363 0.204,0.499 0.34,0.634 0.506,0.702 0.702,0.702 0.897,0.702 1.062,0.634 1.2,0.499 1.336,0.363 1.402,0.197 1.402,0 V -2.758 H 2.91 c 0.198,0 0.366,-0.066 0.503,-0.201 0.136,-0.136 0.205,-0.304 0.205,-0.499 0,-0.195 -0.069,-0.36 -0.205,-0.496 C 3.276,-4.089 3.108,-4.16 2.91,-4.16 H 1.402 v -8.885 c 0,-0.195 -0.066,-0.36 -0.2,-0.496 -0.133,-0.136 -0.296,-0.201 -0.49,-0.201 -0.193,0 -0.356,0.065 -0.488,0.201 -0.134,0.136 -0.201,0.301 -0.201,0.496 v 8.885 h -1.507 c -0.198,0 -0.366,0.071 -0.502,0.206 -0.137,0.136 -0.206,0.301 -0.206,0.496 0,0.195 0.069,0.363 0.204,0.499 0.136,0.135 0.301,0.201 0.497,0.201 H 0 Z"
         style="fill:#231f20;fill-opacity:1;fill-rule:nonzero;stroke:none"
         id="path869" />
    </g>
    <g
       id="g871"
       transform="matrix(0.59889567,0,0,-0.59889567,74.786981,49.938179)"
       style="display:inline">
      <path
         d="m 0,0 c 0,0.558 -0.106,1.085 -0.318,1.584 -0.211,0.496 -0.5,0.931 -0.87,1.297 -0.37,0.371 -0.803,0.66 -1.301,0.871 -0.497,0.213 -1.025,0.319 -1.582,0.319 -0.558,0 -1.082,-0.106 -1.572,-0.319 C -6.132,3.541 -6.562,3.252 -6.93,2.881 -7.299,2.515 -7.589,2.08 -7.801,1.584 -8.012,1.085 -8.118,0.558 -8.118,0 c 0,-0.558 0.106,-1.083 0.317,-1.571 0.212,-0.492 0.502,-0.918 0.871,-1.289 0.368,-0.369 0.798,-0.66 1.287,-0.871 0.49,-0.21 1.014,-0.316 1.572,-0.316 0.543,0 1.055,0.104 1.537,0.305 0.484,0.203 0.909,0.488 1.279,0.848 0.368,0.363 0.661,0.789 0.88,1.278 C -0.157,-1.126 -0.033,-0.587 0,0 m 0,-3.39 c -0.499,-0.56 -1.096,-1.037 -1.798,-1.437 -0.703,-0.399 -1.458,-0.598 -2.273,-0.598 -0.753,0 -1.459,0.135 -2.114,0.404 -0.655,0.272 -1.232,0.649 -1.728,1.135 -0.5,0.479 -0.89,1.052 -1.177,1.715 -0.287,0.664 -0.43,1.387 -0.43,2.171 0,0.753 0.141,1.465 0.418,2.137 0.281,0.668 0.665,1.255 1.154,1.751 0.489,0.499 1.071,0.891 1.743,1.177 0.668,0.284 1.397,0.43 2.18,0.43 0.724,0 1.412,-0.148 2.069,-0.441 C -1.301,4.76 -0.724,4.363 -0.228,3.865 0.271,3.369 0.666,2.788 0.96,2.125 1.252,1.461 1.399,0.753 1.399,0 V -4.77 C 1.399,-4.967 1.333,-5.133 1.197,-5.269 1.061,-5.404 0.896,-5.47 0.701,-5.47 c -0.199,0 -0.364,0.066 -0.5,0.201 C 0.067,-5.133 0,-4.967 0,-4.77 Z"
         style="fill:#231f20;fill-opacity:1;fill-rule:nonzero;stroke:none"
         id="path873" />
    </g>
    <g
       id="g875"
       transform="matrix(0.59889567,0,0,-0.59889567,76.559709,44.967337)"
       style="display:inline">
      <path
         d="M 0,0 C 0,0.197 0.069,0.363 0.205,0.499 0.34,0.634 0.506,0.702 0.701,0.702 0.897,0.702 1.062,0.634 1.198,0.499 1.333,0.363 1.402,0.197 1.402,0 v -13.045 c 0,-0.195 -0.069,-0.36 -0.204,-0.496 -0.136,-0.136 -0.301,-0.201 -0.497,-0.201 -0.195,0 -0.361,0.065 -0.496,0.201 C 0.069,-13.405 0,-13.24 0,-13.045 Z"
         style="fill:#231f20;fill-opacity:1;fill-rule:nonzero;stroke:none"
         id="path877" />
    </g>
    <g
       id="g879"
       transform="matrix(0.59889567,0,0,-0.59889567,78.387542,47.039514)"
       style="display:inline">
      <path
         d="M 0,0 C 0,0.195 0.069,0.363 0.203,0.499 0.338,0.634 0.506,0.7 0.702,0.7 0.897,0.7 1.062,0.634 1.198,0.499 1.334,0.363 1.402,0.195 1.402,0 v -9.587 c 0,-0.195 -0.068,-0.36 -0.204,-0.496 -0.136,-0.136 -0.301,-0.201 -0.496,-0.201 -0.196,0 -0.364,0.065 -0.499,0.201 C 0.069,-9.947 0,-9.782 0,-9.587 Z m -0.227,3.233 c 0,0.255 0.091,0.473 0.274,0.655 C 0.226,4.071 0.444,4.16 0.702,4.16 0.956,4.16 1.174,4.071 1.357,3.888 1.538,3.706 1.627,3.488 1.627,3.233 1.627,2.977 1.538,2.758 1.357,2.578 1.174,2.396 0.956,2.307 0.702,2.307 c -0.258,0 -0.476,0.089 -0.655,0.271 -0.183,0.18 -0.274,0.399 -0.274,0.655"
         style="fill:#231f20;fill-opacity:1;fill-rule:nonzero;stroke:none"
         id="path881" />
    </g>
    <g
       id="g883"
       transform="matrix(0.59889567,0,0,-0.59889567,80.162069,47.039514)"
       style="display:inline">
      <path
         d="M 0,0 C 0,0.195 0.067,0.363 0.202,0.499 0.338,0.634 0.503,0.7 0.701,0.7 0.897,0.7 1.062,0.634 1.198,0.499 1.333,0.363 1.399,0.195 1.399,0 v -0.294 c 0.348,0.3 0.747,0.544 1.2,0.723 C 3.05,0.611 3.532,0.7 4.045,0.7 c 0.559,0 1.087,-0.106 1.584,-0.314 0.496,-0.212 0.931,-0.5 1.298,-0.871 0.37,-0.371 0.66,-0.802 0.871,-1.302 0.212,-0.496 0.318,-1.024 0.318,-1.58 v -6.22 c 0,-0.195 -0.069,-0.36 -0.205,-0.496 -0.136,-0.136 -0.301,-0.201 -0.497,-0.201 -0.195,0 -0.361,0.065 -0.496,0.201 -0.136,0.136 -0.205,0.301 -0.205,0.496 v 6.22 c 0,0.361 -0.071,0.702 -0.214,1.027 -0.144,0.324 -0.335,0.606 -0.577,0.848 -0.24,0.242 -0.523,0.43 -0.848,0.566 -0.323,0.135 -0.666,0.203 -1.029,0.203 -0.36,0 -0.698,-0.068 -1.015,-0.203 C 2.712,-1.062 2.434,-1.244 2.192,-1.469 1.951,-1.694 1.763,-1.963 1.627,-2.271 1.491,-2.582 1.416,-2.909 1.399,-3.254 v -6.333 c 0,-0.195 -0.066,-0.36 -0.201,-0.496 -0.136,-0.136 -0.301,-0.201 -0.497,-0.201 -0.198,0 -0.363,0.065 -0.499,0.201 C 0.067,-9.947 0,-9.782 0,-9.587 Z"
         style="fill:#231f20;fill-opacity:1;fill-rule:nonzero;stroke:none"
         id="path885" />
    </g>
    <g
       id="g887"
       transform="matrix(0.59889567,0,0,-0.59889567,91.385382,49.938179)"
       style="display:inline">
      <path
         d="m 0,0 c 0,0.558 -0.106,1.085 -0.317,1.584 -0.212,0.496 -0.501,0.931 -0.869,1.297 -0.37,0.371 -0.803,0.66 -1.301,0.871 -0.497,0.213 -1.025,0.319 -1.584,0.319 -0.556,0 -1.08,-0.106 -1.569,-0.319 C -6.13,3.541 -6.56,3.252 -6.93,2.881 -7.297,2.515 -7.589,2.08 -7.799,1.584 -8.012,1.085 -8.116,0.558 -8.116,0 c 0,-0.558 0.104,-1.083 0.317,-1.571 0.21,-0.492 0.502,-0.918 0.869,-1.289 0.37,-0.369 0.8,-0.66 1.29,-0.871 0.489,-0.21 1.013,-0.316 1.569,-0.316 0.545,0 1.057,0.104 1.537,0.305 0.484,0.203 0.909,0.488 1.279,0.848 0.37,0.363 0.665,0.789 0.882,1.278 C -0.155,-1.126 -0.031,-0.587 0,0 m 0,-3.39 c -0.497,-0.56 -1.097,-1.037 -1.798,-1.437 -0.701,-0.399 -1.456,-0.598 -2.273,-0.598 -0.751,0 -1.457,0.135 -2.111,0.404 -0.655,0.272 -1.233,0.649 -1.731,1.135 -0.496,0.479 -0.89,1.052 -1.175,1.715 -0.287,0.664 -0.429,1.387 -0.429,2.171 0,0.753 0.138,1.465 0.418,2.137 0.278,0.668 0.662,1.255 1.154,1.751 0.489,0.499 1.068,0.891 1.74,1.177 0.671,0.284 1.397,0.43 2.18,0.43 0.724,0 1.414,-0.148 2.069,-0.441 C -1.301,4.76 -0.724,4.363 -0.226,3.865 0.271,3.369 0.669,2.788 0.96,2.125 1.254,1.461 1.401,0.753 1.401,0 V -4.77 C 1.401,-4.967 1.335,-5.133 1.199,-5.269 1.064,-5.404 0.896,-5.47 0.701,-5.47 0.506,-5.47 0.34,-5.404 0.205,-5.269 0.069,-5.133 0,-4.967 0,-4.77 Z"
         style="fill:#231f20;fill-opacity:1;fill-rule:nonzero;stroke:none"
         id="path889" />
    </g>
    <g
       id="g891"
       transform="matrix(0.59889567,0,0,-0.59889567,94.349915,44.805635)"
       style="display:inline">
      <path
         d="m 0,0 c 0.105,0.242 0.301,0.362 0.588,0.362 0.211,0 0.384,-0.07 0.52,-0.216 0.135,-0.142 0.204,-0.318 0.204,-0.53 0,-0.106 -0.023,-0.201 -0.069,-0.294 L -0.61,-3.91 c -0.151,-0.241 -0.362,-0.362 -0.634,-0.362 -0.211,0 -0.377,0.076 -0.496,0.227 -0.121,0.15 -0.182,0.307 -0.182,0.473 0,0.122 0.03,0.235 0.092,0.341 z"
         style="fill:#231f20;fill-opacity:1;fill-rule:nonzero;stroke:none"
         id="path893" />
    </g>
    <g
       id="g895"
       transform="matrix(0.59889567,0,0,-0.59889567,94.715845,48.339122)"
       style="display:inline">
      <path
         d="M 0,0 C 0,0.528 0.106,0.973 0.318,1.333 0.527,1.696 0.807,1.991 1.155,2.216 1.499,2.442 1.892,2.605 2.329,2.701 2.766,2.801 3.202,2.85 3.641,2.85 4.002,2.85 4.385,2.807 4.792,2.725 5.199,2.642 5.576,2.517 5.923,2.351 6.27,2.186 6.557,1.982 6.783,1.741 7.008,1.499 7.123,1.215 7.123,0.884 7.123,0.717 7.065,0.556 6.953,0.396 6.838,0.238 6.654,0.159 6.398,0.159 6.111,0.159 5.893,0.324 5.741,0.655 5.606,0.944 5.344,1.158 4.952,1.302 4.558,1.444 4.122,1.516 3.641,1.516 3.384,1.516 3.124,1.497 2.86,1.459 2.595,1.42 2.359,1.344 2.15,1.232 1.938,1.12 1.759,0.965 1.617,0.768 1.473,0.573 1.402,0.318 1.402,0 c 0,-0.225 0.071,-0.422 0.215,-0.587 0.142,-0.165 0.323,-0.306 0.541,-0.418 0.219,-0.114 0.46,-0.201 0.724,-0.261 0.265,-0.059 0.518,-0.112 0.759,-0.159 0.556,-0.089 1.08,-0.22 1.57,-0.394 C 5.7,-1.993 6.13,-2.215 6.5,-2.487 6.87,-2.756 7.162,-3.08 7.382,-3.458 7.601,-3.835 7.709,-4.272 7.709,-4.77 7.709,-5.266 7.604,-5.722 7.392,-6.137 7.183,-6.551 6.89,-6.905 6.522,-7.2 6.153,-7.494 5.721,-7.719 5.222,-7.878 4.726,-8.037 4.197,-8.113 3.641,-8.113 c -0.952,0 -1.784,0.218 -2.498,0.655 -0.717,0.437 -1.195,1.039 -1.436,1.808 -0.017,0.045 -0.024,0.112 -0.024,0.201 0,0.196 0.065,0.371 0.193,0.522 0.129,0.151 0.297,0.225 0.509,0.225 0.165,0 0.311,-0.049 0.441,-0.147 0.128,-0.099 0.23,-0.229 0.305,-0.394 0.195,-0.483 0.531,-0.848 1.007,-1.098 0.473,-0.248 0.974,-0.373 1.503,-0.373 0.738,0 1.368,0.17 1.887,0.508 0.52,0.34 0.779,0.819 0.779,1.436 0,0.498 -0.255,0.92 -0.767,1.266 C 5.027,-3.157 4.393,-2.932 3.641,-2.826 2.554,-2.675 1.676,-2.378 1.007,-1.931 0.336,-1.488 0,-0.846 0,0"
         style="fill:#231f20;fill-opacity:1;fill-rule:nonzero;stroke:none"
         id="path897" />
    </g>
    <g
       id="g899"
       transform="matrix(0.59889567,0,0,-0.59889567,55.843319,56.861411)"
       style="display:inline">
      <path
         d="m 0,0 c 0.602,0 1.144,-0.091 1.627,-0.271 0.483,-0.183 0.896,-0.389 1.244,-0.624 0.346,-0.233 0.612,-0.466 0.801,-0.7 0.191,-0.235 0.283,-0.413 0.283,-0.531 0,-0.166 -0.067,-0.308 -0.202,-0.431 -0.136,-0.119 -0.288,-0.18 -0.453,-0.18 -0.195,0 -0.361,0.068 -0.496,0.203 -0.378,0.331 -0.807,0.6 -1.29,0.804 -0.483,0.203 -1.002,0.305 -1.561,0.305 -0.555,0 -1.08,-0.106 -1.57,-0.318 -0.491,-0.212 -0.918,-0.5 -1.288,-0.871 -0.371,-0.367 -0.66,-0.802 -0.872,-1.298 -0.211,-0.496 -0.315,-1.026 -0.315,-1.584 0,-0.555 0.104,-1.081 0.315,-1.57 0.212,-0.49 0.501,-0.918 0.872,-1.289 0.37,-0.37 0.797,-0.66 1.288,-0.87 0.49,-0.21 1.015,-0.316 1.57,-0.316 0.559,0 1.078,0.102 1.561,0.304 0.483,0.205 0.912,0.487 1.29,0.847 0.135,0.136 0.301,0.206 0.496,0.206 0.181,0 0.342,-0.066 0.488,-0.192 0.142,-0.13 0.213,-0.291 0.213,-0.486 0,-0.123 -0.087,-0.299 -0.26,-0.533 C 3.566,-9.627 3.307,-9.858 2.962,-10.083 2.615,-10.31 2.19,-10.505 1.684,-10.67 c -0.505,-0.166 -1.082,-0.248 -1.731,-0.248 -0.753,0 -1.456,0.135 -2.111,0.404 -0.655,0.272 -1.232,0.649 -1.731,1.13 -0.496,0.482 -0.89,1.056 -1.175,1.719 -0.287,0.665 -0.429,1.385 -0.429,2.169 0,0.753 0.138,1.459 0.417,2.114 0.279,0.655 0.663,1.23 1.153,1.72 0.489,0.49 1.071,0.879 1.741,1.174 C -1.511,-0.193 -0.784,-0.032 0,0"
         style="fill:#231f20;fill-opacity:1;fill-rule:nonzero;stroke:none"
         id="path901" />
    </g>
    <g
       id="g903"
       transform="matrix(0.59889567,0,0,-0.59889567,61.962829,57.705843)"
       style="display:inline">
      <path
         d="m 0,0 c -0.559,0 -1.08,-0.106 -1.572,-0.318 -0.49,-0.212 -0.919,-0.501 -1.287,-0.871 -0.37,-0.367 -0.659,-0.802 -0.871,-1.298 -0.211,-0.498 -0.317,-1.026 -0.317,-1.584 0,-0.557 0.106,-1.083 0.317,-1.571 0.212,-0.492 0.501,-0.918 0.871,-1.289 0.368,-0.369 0.797,-0.659 1.287,-0.871 0.492,-0.21 1.013,-0.316 1.572,-0.316 0.559,0 1.084,0.106 1.584,0.316 0.496,0.212 0.93,0.502 1.298,0.871 0.37,0.371 0.66,0.797 0.871,1.289 0.211,0.488 0.318,1.014 0.318,1.571 0,0.558 -0.107,1.086 -0.318,1.584 C 3.542,-1.991 3.252,-1.556 2.882,-1.189 2.514,-0.819 2.08,-0.53 1.584,-0.318 1.084,-0.106 0.559,0 0,0 M 0.046,1.424 C 0.77,1.424 1.46,1.276 2.115,0.983 2.77,0.689 3.347,0.292 3.843,-0.206 4.341,-0.702 4.736,-1.283 5.031,-1.946 5.325,-2.61 5.472,-3.318 5.472,-4.071 5.472,-4.809 5.328,-5.506 5.043,-6.164 4.755,-6.818 4.366,-7.395 3.878,-7.891 3.388,-8.39 2.811,-8.78 2.149,-9.068 1.485,-9.352 0.77,-9.496 0,-9.496 c -0.754,0 -1.458,0.136 -2.113,0.405 -0.657,0.271 -1.234,0.649 -1.73,1.134 -0.499,0.479 -0.889,1.052 -1.174,1.715 -0.288,0.664 -0.433,1.387 -0.433,2.171 0,0.753 0.141,1.459 0.421,2.114 0.279,0.655 0.663,1.228 1.151,1.717 0.49,0.492 1.072,0.882 1.743,1.177 0.669,0.294 1.397,0.456 2.181,0.487"
         style="fill:#231f20;fill-opacity:1;fill-rule:nonzero;stroke:none"
         id="path905" />
    </g>
    <g
       id="g907"
       transform="matrix(0.59889567,0,0,-0.59889567,65.916146,55.172514)"
       style="display:inline">
      <path
         d="M 0,0 C 0,0.197 0.069,0.363 0.204,0.498 0.34,0.634 0.506,0.702 0.701,0.702 0.898,0.702 1.064,0.634 1.199,0.498 1.335,0.363 1.401,0.197 1.401,0 v -13.045 c 0,-0.195 -0.066,-0.36 -0.202,-0.496 -0.135,-0.136 -0.301,-0.201 -0.498,-0.201 -0.195,0 -0.361,0.065 -0.497,0.201 C 0.069,-13.405 0,-13.24 0,-13.045 Z"
         style="fill:#231f20;fill-opacity:1;fill-rule:nonzero;stroke:none"
         id="path909" />
    </g>
    <g
       id="g911"
       transform="matrix(0.59889567,0,0,-0.59889567,67.799068,55.172514)"
       style="display:inline">
      <path
         d="m 0,0 c 0,0.197 0.067,0.363 0.201,0.498 0.136,0.136 0.302,0.204 0.5,0.204 0.195,0 0.36,-0.068 0.496,-0.204 C 1.333,0.363 1.399,0.197 1.399,0 v -13.045 c 0,-0.195 -0.066,-0.36 -0.202,-0.496 -0.136,-0.136 -0.301,-0.201 -0.496,-0.201 -0.198,0 -0.364,0.065 -0.5,0.201 C 0.067,-13.405 0,-13.24 0,-13.045 Z"
         style="fill:#231f20;fill-opacity:1;fill-rule:nonzero;stroke:none"
         id="path913" />
    </g>
    <g
       id="g915"
       transform="matrix(0.59889567,0,0,-0.59889567,74.974437,59.694189)"
       style="display:inline">
      <path
         d="M 0,0 C -0.089,0.467 -0.254,0.903 -0.496,1.31 -0.738,1.717 -1.037,2.069 -1.391,2.362 -1.745,2.657 -2.143,2.89 -2.589,3.064 -3.034,3.235 -3.505,3.325 -4.001,3.325 -4.499,3.325 -4.97,3.235 -5.415,3.064 -5.858,2.89 -6.258,2.657 -6.613,2.362 -6.967,2.069 -7.261,1.717 -7.494,1.31 -7.728,0.903 -7.891,0.467 -7.98,0 Z m -8.003,-1.401 c 0.076,-0.484 0.235,-0.931 0.477,-1.344 0.237,-0.418 0.536,-0.774 0.89,-1.077 0.354,-0.302 0.757,-0.537 1.211,-0.711 0.451,-0.174 0.926,-0.26 1.424,-0.26 0.558,0 1.077,0.104 1.561,0.305 0.481,0.203 0.909,0.488 1.287,0.848 0.135,0.136 0.303,0.203 0.498,0.203 0.195,0 0.36,-0.067 0.496,-0.203 0.136,-0.136 0.206,-0.301 0.206,-0.496 0,-0.197 -0.07,-0.363 -0.206,-0.496 -0.496,-0.56 -1.06,-0.954 -1.681,-1.19 -0.628,-0.233 -1.349,-0.349 -2.161,-0.349 -0.754,0 -1.458,0.135 -2.115,0.404 -0.655,0.272 -1.232,0.649 -1.728,1.135 -0.499,0.479 -0.889,1.051 -1.177,1.715 -0.284,0.664 -0.428,1.387 -0.428,2.171 0,0.753 0.14,1.458 0.415,2.114 0.282,0.655 0.666,1.227 1.156,1.717 0.49,0.492 1.07,0.882 1.738,1.177 0.672,0.294 1.402,0.455 2.184,0.487 0.708,0 1.391,-0.146 2.046,-0.43 C -1.255,4.033 -0.678,3.64 -0.182,3.142 0.318,2.646 0.714,2.069 1.018,1.414 1.319,0.757 1.469,0.053 1.469,-0.702 1.469,-0.928 1.395,-1.1 1.242,-1.221 1.094,-1.342 0.935,-1.401 0.767,-1.401 Z"
         style="fill:#231f20;fill-opacity:1;fill-rule:nonzero;stroke:none"
         id="path917" />
    </g>
    <g
       id="g919"
       transform="matrix(0.59889567,0,0,-0.59889567,79.605102,56.861411)"
       style="display:inline">
      <path
         d="m 0,0 c 0.602,0 1.145,-0.091 1.626,-0.271 0.484,-0.183 0.897,-0.389 1.245,-0.624 0.345,-0.233 0.612,-0.466 0.803,-0.7 0.189,-0.235 0.282,-0.413 0.282,-0.531 0,-0.166 -0.068,-0.308 -0.203,-0.431 -0.136,-0.119 -0.289,-0.18 -0.454,-0.18 -0.195,0 -0.361,0.068 -0.496,0.203 -0.378,0.331 -0.806,0.6 -1.289,0.804 -0.484,0.203 -1.003,0.305 -1.561,0.305 -0.555,0 -1.079,-0.106 -1.568,-0.318 -0.49,-0.212 -0.92,-0.5 -1.291,-0.871 -0.37,-0.367 -0.66,-0.802 -0.87,-1.298 -0.212,-0.496 -0.316,-1.026 -0.316,-1.584 0,-0.555 0.104,-1.081 0.316,-1.57 0.21,-0.49 0.5,-0.918 0.87,-1.289 0.371,-0.37 0.801,-0.66 1.291,-0.87 0.489,-0.21 1.013,-0.316 1.568,-0.316 0.558,0 1.077,0.102 1.561,0.304 0.483,0.205 0.911,0.487 1.289,0.847 0.135,0.136 0.301,0.206 0.496,0.206 0.182,0 0.343,-0.066 0.488,-0.192 0.142,-0.13 0.214,-0.291 0.214,-0.486 0,-0.123 -0.085,-0.299 -0.259,-0.533 -0.174,-0.232 -0.433,-0.463 -0.78,-0.688 -0.348,-0.227 -0.772,-0.422 -1.279,-0.587 -0.504,-0.166 -1.081,-0.248 -1.73,-0.248 -0.75,0 -1.456,0.135 -2.111,0.404 -0.655,0.272 -1.232,0.649 -1.732,1.13 -0.496,0.482 -0.889,1.056 -1.173,1.719 -0.288,0.665 -0.43,1.385 -0.43,2.169 0,0.753 0.138,1.459 0.417,2.114 0.278,0.655 0.662,1.23 1.152,1.72 0.492,0.49 1.07,0.879 1.742,1.174 C -1.512,-0.193 -0.784,-0.032 0,0"
         style="fill:#231f20;fill-opacity:1;fill-rule:nonzero;stroke:none"
         id="path921" />
    </g>
    <g
       id="g923"
       transform="matrix(0.59889567,0,0,-0.59889567,83.151168,55.172514)"
       style="display:inline">
      <path
         d="M 0,0 C 0,0.197 0.07,0.363 0.206,0.498 0.341,0.634 0.507,0.702 0.702,0.702 0.899,0.702 1.064,0.634 1.2,0.498 1.336,0.363 1.403,0.197 1.403,0 v -2.758 h 1.508 c 0.197,0 0.365,-0.066 0.502,-0.201 0.138,-0.136 0.208,-0.304 0.208,-0.499 0,-0.195 -0.07,-0.36 -0.208,-0.496 C 3.276,-4.09 3.108,-4.16 2.911,-4.16 H 1.403 v -8.885 c 0,-0.195 -0.067,-0.36 -0.201,-0.496 -0.134,-0.136 -0.297,-0.201 -0.488,-0.201 -0.195,0 -0.356,0.065 -0.491,0.201 -0.132,0.136 -0.2,0.301 -0.2,0.496 v 8.885 h -1.507 c -0.197,0 -0.365,0.07 -0.5,0.206 -0.138,0.136 -0.206,0.301 -0.206,0.496 0,0.195 0.068,0.363 0.203,0.499 0.136,0.135 0.301,0.201 0.496,0.201 H 0 Z"
         style="fill:#231f20;fill-opacity:1;fill-rule:nonzero;stroke:none"
         id="path925" />
    </g>
    <g
       id="g927"
       transform="matrix(0.59889567,0,0,-0.59889567,85.846793,57.244708)"
       style="display:inline">
      <path
         d="M 0,0 C 0,0.195 0.068,0.363 0.204,0.499 0.339,0.634 0.505,0.7 0.7,0.7 0.897,0.7 1.062,0.634 1.198,0.499 1.336,0.363 1.401,0.195 1.401,0 v -9.587 c 0,-0.195 -0.065,-0.36 -0.203,-0.496 -0.136,-0.136 -0.301,-0.201 -0.498,-0.201 -0.195,0 -0.361,0.065 -0.496,0.201 C 0.068,-9.947 0,-9.782 0,-9.587 Z m -0.225,3.233 c 0,0.255 0.089,0.473 0.272,0.655 C 0.225,4.071 0.443,4.16 0.7,4.16 0.956,4.16 1.177,4.071 1.355,3.888 1.537,3.706 1.626,3.488 1.626,3.233 1.626,2.977 1.537,2.758 1.355,2.578 1.177,2.396 0.956,2.307 0.7,2.307 c -0.257,0 -0.475,0.089 -0.653,0.271 -0.183,0.18 -0.272,0.399 -0.272,0.655"
         style="fill:#231f20;fill-opacity:1;fill-rule:nonzero;stroke:none"
         id="path929" />
    </g>
    <g
       id="g931"
       transform="matrix(0.59889567,0,0,-0.59889567,90.571474,57.705843)"
       style="display:inline">
      <path
         d="m 0,0 c -0.558,0 -1.079,-0.106 -1.571,-0.318 -0.49,-0.212 -0.92,-0.501 -1.287,-0.871 -0.371,-0.367 -0.659,-0.802 -0.871,-1.298 -0.212,-0.498 -0.316,-1.026 -0.316,-1.584 0,-0.557 0.104,-1.083 0.316,-1.571 0.212,-0.492 0.5,-0.918 0.871,-1.289 0.367,-0.369 0.797,-0.659 1.287,-0.871 0.492,-0.21 1.013,-0.316 1.571,-0.316 0.56,0 1.085,0.106 1.584,0.316 0.496,0.212 0.93,0.502 1.299,0.871 0.369,0.371 0.66,0.797 0.872,1.289 0.21,0.488 0.316,1.014 0.316,1.571 0,0.558 -0.106,1.086 -0.316,1.584 C 3.543,-1.991 3.252,-1.556 2.883,-1.189 2.514,-0.819 2.08,-0.53 1.584,-0.318 1.085,-0.106 0.56,0 0,0 M 0.047,1.424 C 0.772,1.424 1.461,1.276 2.116,0.983 2.771,0.689 3.348,0.292 3.844,-0.206 4.342,-0.702 4.738,-1.283 5.031,-1.946 5.326,-2.61 5.472,-3.318 5.472,-4.071 5.472,-4.809 5.328,-5.506 5.044,-6.164 4.755,-6.818 4.367,-7.395 3.878,-7.891 3.388,-8.39 2.811,-8.78 2.15,-9.068 1.486,-9.352 0.772,-9.496 0,-9.496 c -0.753,0 -1.457,0.136 -2.112,0.405 -0.657,0.271 -1.233,0.649 -1.73,1.134 -0.496,0.479 -0.89,1.052 -1.174,1.715 -0.289,0.664 -0.433,1.387 -0.433,2.171 0,0.753 0.14,1.459 0.418,2.114 0.282,0.655 0.666,1.228 1.155,1.717 0.488,0.492 1.071,0.882 1.741,1.177 0.67,0.294 1.397,0.456 2.182,0.487"
         style="fill:#231f20;fill-opacity:1;fill-rule:nonzero;stroke:none"
         id="path933" />
    </g>
    <g
       id="g935"
       transform="matrix(0.59889567,0,0,-0.59889567,94.47089,57.244708)"
       style="display:inline">
      <path
         d="M 0,0 C 0,0.195 0.07,0.363 0.206,0.499 0.341,0.634 0.507,0.7 0.702,0.7 0.897,0.7 1.062,0.634 1.198,0.499 1.336,0.363 1.404,0.195 1.404,0 V -0.294 C 1.749,0.006 2.15,0.25 2.601,0.429 3.053,0.611 3.536,0.7 4.047,0.7 c 0.558,0 1.086,-0.106 1.584,-0.314 0.498,-0.212 0.929,-0.5 1.3,-0.871 0.368,-0.371 0.659,-0.802 0.871,-1.302 0.21,-0.496 0.316,-1.024 0.316,-1.58 v -6.22 c 0,-0.195 -0.068,-0.36 -0.204,-0.496 -0.135,-0.136 -0.301,-0.201 -0.496,-0.201 -0.199,0 -0.365,0.065 -0.5,0.201 -0.136,0.136 -0.201,0.301 -0.201,0.496 v 6.22 C 6.717,-3.006 6.642,-2.665 6.5,-2.34 6.358,-2.016 6.165,-1.734 5.923,-1.492 5.682,-1.251 5.4,-1.062 5.078,-0.926 4.751,-0.791 4.41,-0.723 4.047,-0.723 3.685,-0.723 3.348,-0.791 3.03,-0.926 2.714,-1.062 2.434,-1.244 2.194,-1.469 1.953,-1.694 1.764,-1.963 1.628,-2.271 1.493,-2.582 1.416,-2.909 1.404,-3.254 v -6.333 c 0,-0.195 -0.068,-0.36 -0.206,-0.496 -0.136,-0.136 -0.301,-0.201 -0.496,-0.201 -0.195,0 -0.361,0.065 -0.496,0.201 C 0.07,-9.947 0,-9.782 0,-9.587 Z"
         style="fill:#231f20;fill-opacity:1;fill-rule:nonzero;stroke:none"
         id="path937" />
    </g>
    <g
       id="g939"
       transform="matrix(0.59889567,0,0,-0.59889567,100.65029,44.607994)"
       style="display:inline">
      <path
         d="M 0,0 H 0.528 C 0.78,0 0.956,0.036 1.047,0.113 1.138,0.189 1.185,0.289 1.185,0.414 1.185,0.494 1.162,0.566 1.119,0.628 1.075,0.691 1.013,0.738 0.933,0.77 0.854,0.799 0.708,0.816 0.496,0.816 H 0 Z M -0.437,-1.524 V 1.183 H 0.492 C 0.808,1.183 1.041,1.158 1.181,1.107 1.323,1.058 1.437,0.969 1.52,0.846 1.607,0.721 1.647,0.592 1.647,0.45 1.647,0.252 1.577,0.081 1.435,-0.067 1.295,-0.214 1.107,-0.296 0.876,-0.313 0.971,-0.354 1.047,-0.402 1.105,-0.458 1.213,-0.563 1.346,-0.742 1.505,-0.992 L 1.836,-1.524 H 1.302 l -0.24,0.428 c -0.189,0.335 -0.341,0.545 -0.456,0.63 -0.08,0.061 -0.197,0.093 -0.352,0.093 H 0 V -1.524 Z M 0.666,1.965 C 0.312,1.965 -0.032,1.875 -0.367,1.694 -0.702,1.514 -0.96,1.255 -1.151,0.916 -1.34,0.581 -1.435,0.231 -1.435,-0.133 c 0,-0.363 0.093,-0.71 0.277,-1.041 0.187,-0.333 0.448,-0.592 0.781,-0.779 0.333,-0.184 0.68,-0.277 1.043,-0.277 0.36,0 0.708,0.093 1.043,0.277 0.331,0.187 0.591,0.446 0.776,0.779 0.184,0.331 0.278,0.678 0.278,1.041 0,0.364 -0.096,0.714 -0.285,1.049 C 2.294,1.255 2.031,1.514 1.696,1.694 1.361,1.875 1.016,1.965 0.666,1.965 m 0,0.418 C 1.088,2.383 1.501,2.275 1.902,2.057 2.304,1.84 2.616,1.531 2.843,1.128 3.066,0.723 3.178,0.303 3.178,-0.133 c 0,-0.435 -0.11,-0.85 -0.331,-1.251 -0.22,-0.399 -0.532,-0.71 -0.93,-0.931 -0.399,-0.22 -0.817,-0.331 -1.251,-0.331 -0.437,0 -0.852,0.111 -1.253,0.331 -0.397,0.221 -0.711,0.532 -0.931,0.931 -0.223,0.401 -0.333,0.816 -0.333,1.251 0,0.436 0.112,0.856 0.337,1.261 0.227,0.403 0.541,0.712 0.944,0.929 0.403,0.218 0.814,0.326 1.236,0.326"
         style="fill:#231f20;fill-opacity:1;fill-rule:nonzero;stroke:none"
         id="path941" />
    </g>
  </g>
</svg>
