<?xml version="1.0" encoding="UTF-8" standalone="no"?>
<svg
   xmlns:dc="http://purl.org/dc/elements/1.1/"
   xmlns:cc="http://creativecommons.org/ns#"
   xmlns:rdf="http://www.w3.org/1999/02/22-rdf-syntax-ns#"
   xmlns:svg="http://www.w3.org/2000/svg"
   xmlns="http://www.w3.org/2000/svg"
   xmlns:sodipodi="http://sodipodi.sourceforge.net/DTD/sodipodi-0.dtd"
   xmlns:inkscape="http://www.inkscape.org/namespaces/inkscape"
   width="50.000004mm"
   height="14.825906mm"
   viewBox="0 0 50.000004 14.825906"
   version="1.1"
   id="svg2964"
   inkscape:version="1.0.2 (e86c8708, 2021-01-15)"
   sodipodi:docname="Logo_Dunlop.svg">
  <defs
     id="defs2958" />
  <sodipodi:namedview
     id="base"
     pagecolor="#ffffff"
     bordercolor="#666666"
     borderopacity="1.0"
     inkscape:pageopacity="0.0"
     inkscape:pageshadow="2"
     inkscape:zoom="0.35"
     inkscape:cx="180.31514"
     inkscape:cy="-8.6768836"
     inkscape:document-units="mm"
     inkscape:current-layer="layer1"
     inkscape:document-rotation="0"
     showgrid="false"
     inkscape:window-width="1440"
     inkscape:window-height="900"
     inkscape:window-x="0"
     inkscape:window-y="0"
     inkscape:window-maximized="0" />
  <metadata
     id="metadata2961">
    <rdf:RDF>
      <cc:Work
         rdf:about="">
        <dc:format>image/svg+xml</dc:format>
        <dc:type
           rdf:resource="http://purl.org/dc/dcmitype/StillImage" />
        <dc:title />
      </cc:Work>
    </rdf:RDF>
  </metadata>
  <g
     inkscape:label="Layer 1"
     inkscape:groupmode="layer"
     id="layer1"
     transform="translate(-58.124952,-150.46243)">
    <g
       id="g1099"
       transform="matrix(0.58013388,0,0,-0.58013388,70.998123,154.35802)"
       style="display:inline">
      <path
         d="m 0,0 c -0.401,-1.018 -0.869,-2.094 -1.866,-2.094 h -1.639 l 1.973,4.461 h 1.153 C 0.926,2.262 0.32,0.811 0,0 m 1.563,3.521 h -7.42 L -6.358,2.397 h 1.275 l -2.003,-4.476 h -1.289 l -0.532,-1.169 h 8.422 c 2.055,0 3.086,1.379 3.9,3.219 0.743,1.684 1.352,3.55 -1.852,3.55"
         style="fill:#1d1d1b;fill-opacity:1;fill-rule:nonzero;stroke:none"
         id="path1101" />
    </g>
    <g
       id="g1103"
       transform="matrix(0.58013388,0,0,-0.58013388,74.336794,152.31016)"
       style="display:inline">
      <path
         d="M 0,0 H 6.019 L 5.506,-1.13 H 4.235 l -1.45,-3.325 c -0.552,-1.411 2.477,-1.859 3.298,0 L 7.521,-1.13 H 6.327 L 6.84,0 h 3.851 L 10.177,-1.13 H 8.996 L 7.533,-4.455 C 6.43,-6.636 5.57,-6.752 2.297,-6.803 c -3.72,-0.058 -3.516,0.924 -2.939,2.348 l 1.463,3.325 h -1.309 z"
         style="fill:#1d1d1b;fill-opacity:1;fill-rule:nonzero;stroke:none"
         id="path1105" />
    </g>
    <g
       id="g1107"
       transform="matrix(0.58013388,0,0,-0.58013388,81.08201,152.96571)"
       style="display:inline">
      <path
         d="M 0,0 H 1.259 L -0.673,-4.465 H -1.961 L -2.488,-5.65 h 3.922 l 0.542,1.185 H 0.732 L 2.152,-1.288 4.45,-5.65 H 7.274 L 9.748,0 h 1.186 l 0.454,1.113 H 7.538 L 7.04,0 H 8.313 L 6.865,-3.265 4.552,1.113 h -4.04 z"
         style="fill:#1d1d1b;fill-opacity:1;fill-rule:nonzero;stroke:none"
         id="path1109" />
    </g>
    <g
       id="g1111"
       transform="matrix(0.58013388,0,0,-0.58013388,88.302358,152.96571)"
       style="display:inline">
      <path
         d="M 0,0 H 1.272 L -0.659,-4.466 H -1.947 L -2.43,-5.651 h 8.884 l 1.361,3.175 H 6.776 L 4.961,-4.466 H 2.766 L 4.697,0 H 5.854 L 6.322,1.112 H 0.468 Z"
         style="fill:#1d1d1b;fill-opacity:1;fill-rule:nonzero;stroke:none"
         id="path1113" />
    </g>
    <g
       id="g1115"
       transform="matrix(0.58013388,0,0,-0.58013388,97.72199,153.74889)"
       style="display:inline">
      <path
         d="M 0,0 -0.958,-2.229 C -1.316,-3.016 -2.107,-3.243 -2.53,-3.243 h -0.671 c -0.423,0 -1.529,0.086 -1.029,1.514 l 0.957,2.157 c 0.486,0.858 1.164,1 1.586,1 h 0.8 C -0.464,1.428 0.485,1.028 0,0 m -0.558,2.515 c -4.6,0 -5.343,-0.612 -6.501,-3.187 -1.272,-2.828 -1.328,-3.701 3.772,-3.701 4.615,0 5.458,1.516 6.4,3.701 1.216,2.82 0.629,3.187 -3.671,3.187"
         style="fill:#1d1d1b;fill-opacity:1;fill-rule:nonzero;stroke:none"
         id="path1117" />
    </g>
    <g
       id="g1119"
       transform="matrix(0.58013388,0,0,-0.58013388,104.64473,153.52263)"
       style="display:inline">
      <path
         d="m 0,0 c -0.239,-0.415 -0.228,-0.787 -1.158,-0.787 h -1.501 l 0.7,1.645 h 1.402 C 0.472,0.858 0.019,0.226 0,0 M 2.388,2.073 H -6.133 L -6.677,0.858 h 1.259 L -7.32,-3.504 H -8.549 L -9.05,-4.69 h 5.762 l 0.529,1.186 h -1.102 l 0.644,1.559 h 3.188 c 2.745,0 2.818,0.744 3.504,2.089 0.257,0.871 1.143,1.929 -1.087,1.929"
         style="fill:#1d1d1b;fill-opacity:1;fill-rule:nonzero;stroke:none"
         id="path1121" />
    </g>
    <g
       id="g1123"
       transform="matrix(0.58013388,0,0,-0.58013388,60.782545,156.44071)"
       style="display:inline">
      <path
         d="M 0,0 C 2.104,0 3.809,1.647 3.809,3.678 3.809,5.709 2.104,7.356 0,7.356 -2.104,7.356 -3.809,5.709 -3.809,3.678 -3.809,1.647 -2.104,0 0,0 M 0.017,7.441 -3.656,10.305 8.066,3.689 -3.662,-3.244 0.253,-0.059 c -0.205,-0.03 -0.504,-0.044 -0.717,-0.044 -2.274,0 -4.117,1.692 -4.117,3.781 0,2.089 1.843,3.781 4.117,3.781 0.139,0 0.347,-0.006 0.481,-0.018"
         style="fill:#1d1d1b;fill-opacity:1;fill-rule:nonzero;stroke:none"
         id="path1125" />
    </g>
    <g
       id="g1127"
       transform="matrix(0.58013388,0,0,-0.58013388,60.980372,154.83954)"
       style="display:inline">
      <path
         d="M 0,0 C 0.646,0 1.083,0.41 1.225,0.831 1.337,1.161 1.309,1.73 0.646,1.771 H 0.166 L -0.663,0 Z m -3.343,-0.458 0.224,0.464 h 0.668 l 0.845,1.777 h -0.778 l 0.21,0.446 h 3.485 c 1.264,0 1.696,-0.733 1.596,-1.41 C 2.831,0.306 2.518,-0.458 0.866,-0.458 Z"
         style="fill:#1d1d1b;fill-opacity:1;fill-rule:nonzero;stroke:none"
         id="path1129" />
    </g>
    <g
       id="g1131"
       transform="matrix(0.58013388,0,0,-0.58013388,108.05592,152.76846)"
       style="display:inline">
      <path
         d="m 0,0 -0.031,0.468 c -0.004,0.061 0,0.135 -0.002,0.211 H -0.038 C -0.058,0.606 -0.081,0.525 -0.105,0.457 L -0.267,0.009 h -0.089 l -0.158,0.459 c -0.02,0.063 -0.04,0.138 -0.058,0.211 h -0.006 c -0.001,-0.075 0,-0.141 -0.003,-0.211 L -0.61,0 h -0.114 l 0.061,0.776 h 0.154 L -0.356,0.355 C -0.337,0.296 -0.321,0.232 -0.302,0.16 h 0.003 c 0.018,0.072 0.036,0.14 0.055,0.196 l 0.152,0.42 H 0.061 L 0.119,0 Z M -0.751,0.776 V 0.677 H -0.989 V 0 h -0.117 v 0.677 h -0.236 v 0.099 z"
         style="fill:#1d1d1b;fill-opacity:1;fill-rule:nonzero;stroke:none"
         id="path1133" />
    </g>
    <g
       id="g1135"
       transform="matrix(0.58013388,0,0,-0.58013388,73.297195,164.74243)"
       style="display:inline">
      <path
         d="m 0,0 c 0.111,-0.174 0.312,-0.262 0.604,-0.262 0.291,0 0.492,0.088 0.603,0.262 0.111,0.175 0.167,0.433 0.167,0.774 V 3.292 C 1.374,3.628 1.319,3.879 1.209,4.046 1.099,4.212 0.897,4.295 0.604,4.295 0.31,4.295 0.108,4.212 -0.002,4.046 -0.112,3.879 -0.167,3.628 -0.167,3.292 V 0.774 C -0.167,0.433 -0.111,0.175 0,0 m 0.604,-0.941 c -0.292,0 -0.541,0.044 -0.75,0.132 -0.208,0.088 -0.373,0.218 -0.496,0.389 -0.123,0.17 -0.213,0.37 -0.269,0.6 -0.056,0.23 -0.084,0.497 -0.084,0.801 v 2.103 c 0,0.305 0.028,0.57 0.084,0.796 0.056,0.227 0.146,0.424 0.269,0.591 0.123,0.168 0.288,0.293 0.496,0.377 0.209,0.085 0.458,0.127 0.75,0.127 0.565,0 0.973,-0.163 1.223,-0.486 C 2.077,4.166 2.202,3.697 2.202,3.084 V 0.981 C 2.202,0.681 2.174,0.416 2.117,0.186 2.059,-0.043 1.969,-0.244 1.846,-0.416 1.723,-0.587 1.558,-0.718 1.35,-0.807 1.141,-0.897 0.893,-0.941 0.604,-0.941"
         style="fill:#1d1d1b;fill-opacity:1;fill-rule:nonzero;stroke:none"
         id="path1137" />
    </g>
    <g
       id="g1139"
       transform="matrix(0.58013388,0,0,-0.58013388,74.995246,165.25875)"
       style="display:inline">
      <path
         d="M 0,0 V 5.799 H 2.278 V 5.178 H 0.829 V 3.314 H 1.864 V 2.692 H 0.829 V 0 Z"
         style="fill:#1d1d1b;fill-opacity:1;fill-rule:nonzero;stroke:none"
         id="path1141" />
    </g>
    <g
       id="g1143"
       transform="matrix(0.58013388,0,0,-0.58013388,76.537241,165.25875)"
       style="display:inline">
      <path
         d="M 0,0 V 5.799 H 2.278 V 5.178 H 0.829 V 3.314 H 1.864 V 2.692 H 0.829 V 0 Z"
         style="fill:#1d1d1b;fill-opacity:1;fill-rule:nonzero;stroke:none"
         id="path1145" />
    </g>
    <path
       d="m 78.100702,161.89397 h 0.480926 v 3.36409 h -0.480926 z"
       style="display:inline;fill:#1d1d1b;fill-opacity:1;fill-rule:nonzero;stroke:none;stroke-width:0.580134"
       id="path1147" />
    <g
       id="g1149"
       transform="matrix(0.58013388,0,0,-0.58013388,79.959451,165.28775)"
       style="display:inline">
      <path
         d="M 0,0 C -0.244,0 -0.459,0.034 -0.644,0.104 -0.83,0.172 -0.982,0.268 -1.1,0.39 -1.219,0.512 -1.316,0.664 -1.39,0.846 -1.464,1.028 -1.517,1.223 -1.547,1.43 -1.577,1.637 -1.592,1.872 -1.592,2.133 v 1.653 c 0,0.261 0.015,0.496 0.045,0.703 0.03,0.207 0.083,0.402 0.157,0.584 0.074,0.182 0.171,0.334 0.29,0.454 0.118,0.121 0.27,0.216 0.456,0.285 0.185,0.069 0.4,0.104 0.644,0.104 0.27,0 0.503,-0.04 0.699,-0.12 C 0.895,5.716 1.052,5.599 1.17,5.443 1.288,5.288 1.376,5.108 1.435,4.903 1.495,4.698 1.53,4.458 1.54,4.185 1.543,4.144 1.544,4.08 1.544,3.994 H 0.715 V 4.178 C 0.713,4.292 0.709,4.39 0.702,4.471 0.696,4.552 0.684,4.635 0.667,4.722 0.649,4.808 0.624,4.88 0.591,4.937 0.557,4.994 0.515,5.047 0.464,5.096 0.414,5.144 0.35,5.18 0.272,5.202 0.194,5.225 0.104,5.236 0,5.236 -0.134,5.236 -0.249,5.215 -0.345,5.171 -0.441,5.128 -0.516,5.073 -0.57,5.005 -0.624,4.937 -0.665,4.846 -0.694,4.731 -0.723,4.617 -0.742,4.505 -0.751,4.396 -0.759,4.288 -0.764,4.153 -0.764,3.994 V 1.922 c 0,-0.138 0.006,-0.263 0.018,-0.375 0.012,-0.112 0.035,-0.224 0.07,-0.335 0.034,-0.111 0.079,-0.205 0.134,-0.28 0.055,-0.076 0.128,-0.137 0.22,-0.183 C -0.23,0.703 -0.123,0.68 0,0.68 c 0.123,0 0.229,0.023 0.317,0.07 0.089,0.048 0.158,0.108 0.209,0.182 0.051,0.073 0.091,0.167 0.12,0.281 0.029,0.115 0.048,0.226 0.056,0.334 0.009,0.108 0.013,0.233 0.013,0.375 V 2.129 H 1.544 V 1.922 C 1.544,1.623 1.517,1.359 1.464,1.132 1.412,0.906 1.326,0.706 1.209,0.532 1.091,0.358 0.932,0.227 0.73,0.136 0.528,0.045 0.285,0 0,0"
         style="fill:#1d1d1b;fill-opacity:1;fill-rule:nonzero;stroke:none"
         id="path1151" />
    </g>
    <path
       d="m 81.196876,161.89397 h 0.480938 v 3.36409 h -0.480938 z"
       style="display:inline;fill:#1d1d1b;fill-opacity:1;fill-rule:nonzero;stroke:none;stroke-width:0.580134"
       id="path1153" />
    <g
       id="g1155"
       transform="matrix(0.58013388,0,0,-0.58013388,82.702906,164.05206)"
       style="display:inline">
      <path
         d="M 0,0 H 0.829 L 0.414,2.485 Z M -1.243,-2.071 0,3.728 H 0.829 L 2.071,-2.071 H 1.243 l -0.311,1.449 h -1.036 l -0.31,-1.449 z"
         style="fill:#1d1d1b;fill-opacity:1;fill-rule:nonzero;stroke:none"
         id="path1157" />
    </g>
    <g
       id="g1159"
       transform="matrix(0.58013388,0,0,-0.58013388,84.174705,165.25875)"
       style="display:inline">
      <path
         d="M 0,0 V 5.799 H 0.829 V 0.622 H 2.278 V 0 Z"
         style="fill:#1d1d1b;fill-opacity:1;fill-rule:nonzero;stroke:none"
         id="path1161" />
    </g>
    <g
       id="g1163"
       transform="matrix(0.58013388,0,0,-0.58013388,86.981972,164.89326)"
       style="display:inline">
      <path
         d="M 0,0 H 0.414 C 0.772,0 1.035,0.083 1.201,0.248 1.367,0.413 1.45,0.675 1.45,1.036 1.45,1.396 1.367,1.658 1.201,1.823 1.035,1.988 0.772,2.071 0.414,2.071 H 0 Z m 0,2.692 h 0.414 c 0.691,0 1.036,0.346 1.036,1.036 0,0.114 -0.014,0.215 -0.042,0.303 C 1.38,4.118 1.346,4.191 1.307,4.249 1.269,4.308 1.21,4.356 1.131,4.396 1.052,4.437 0.981,4.467 0.916,4.489 0.851,4.51 0.759,4.526 0.639,4.536 0.519,4.545 0.42,4.551 0.34,4.553 0.26,4.556 0.147,4.557 0,4.557 Z m -0.829,-3.314 v 5.8 H 0.414 C 0.682,5.178 0.921,5.15 1.133,5.094 1.344,5.038 1.529,4.953 1.688,4.838 1.846,4.724 1.968,4.573 2.053,4.385 2.139,4.197 2.181,3.979 2.181,3.728 2.181,3.366 2.105,3.09 1.952,2.901 1.798,2.712 1.562,2.574 1.243,2.485 1.588,2.371 1.847,2.203 2.02,1.982 2.192,1.761 2.278,1.445 2.278,1.036 2.278,0.524 2.13,0.12 1.833,-0.177 1.537,-0.473 1.133,-0.622 0.621,-0.622 Z"
         style="fill:#1d1d1b;fill-opacity:1;fill-rule:nonzero;stroke:none"
         id="path1165" />
    </g>
    <g
       id="g1167"
       transform="matrix(0.58013388,0,0,-0.58013388,89.163276,164.05206)"
       style="display:inline">
      <path
         d="M 0,0 H 0.828 L 0.414,2.485 Z M -1.243,-2.071 0,3.728 H 0.828 L 2.071,-2.071 H 1.243 l -0.311,1.449 h -1.036 l -0.31,-1.449 z"
         style="fill:#1d1d1b;fill-opacity:1;fill-rule:nonzero;stroke:none"
         id="path1169" />
    </g>
    <g
       id="g1171"
       transform="matrix(0.58013388,0,0,-0.58013388,90.635075,165.25875)"
       style="display:inline">
      <path
         d="M 0,0 V 5.799 H 0.828 V 0.622 h 1.45 V 0 Z"
         style="fill:#1d1d1b;fill-opacity:1;fill-rule:nonzero;stroke:none"
         id="path1173" />
    </g>
    <g
       id="g1175"
       transform="matrix(0.58013388,0,0,-0.58013388,92.180552,165.25875)"
       style="display:inline">
      <path
         d="M 0,0 V 5.799 H 0.828 V 0.622 h 1.45 V 0 Z"
         style="fill:#1d1d1b;fill-opacity:1;fill-rule:nonzero;stroke:none"
         id="path1177" />
    </g>
    <path
       d="M 106.48897,159.8519 H 59.552663 v -0.23201 h 46.936307 z"
       style="display:inline;fill:#1d1d1b;fill-opacity:1;fill-rule:nonzero;stroke:none;stroke-width:0.580134"
       id="path1179" />
  </g>
</svg>
