<?xml version="1.0" encoding="UTF-8" standalone="no"?>
<svg
   xmlns:dc="http://purl.org/dc/elements/1.1/"
   xmlns:cc="http://creativecommons.org/ns#"
   xmlns:rdf="http://www.w3.org/1999/02/22-rdf-syntax-ns#"
   xmlns:svg="http://www.w3.org/2000/svg"
   xmlns="http://www.w3.org/2000/svg"
   xmlns:sodipodi="http://sodipodi.sourceforge.net/DTD/sodipodi-0.dtd"
   xmlns:inkscape="http://www.inkscape.org/namespaces/inkscape"
   width="50mm"
   height="44.94025mm"
   viewBox="0 0 50.000001 44.94025"
   version="1.1"
   id="svg3942"
   inkscape:version="1.0.2 (e86c8708, 2021-01-15)"
   sodipodi:docname="Logo_SACC.svg">
  <defs
     id="defs3936" />
  <sodipodi:namedview
     id="base"
     pagecolor="#ffffff"
     bordercolor="#666666"
     borderopacity="1.0"
     inkscape:pageopacity="0.0"
     inkscape:pageshadow="2"
     inkscape:zoom="7.5912328"
     inkscape:cx="83.598345"
     inkscape:cy="38.026625"
     inkscape:document-units="mm"
     inkscape:current-layer="layer1"
     inkscape:document-rotation="0"
     showgrid="false"
     inkscape:window-width="1440"
     inkscape:window-height="872"
     inkscape:window-x="0"
     inkscape:window-y="28"
     inkscape:window-maximized="0" />
  <metadata
     id="metadata3939">
    <rdf:RDF>
      <cc:Work
         rdf:about="">
        <dc:format>image/svg+xml</dc:format>
        <dc:type
           rdf:resource="http://purl.org/dc/dcmitype/StillImage" />
        <dc:title />
      </cc:Work>
    </rdf:RDF>
  </metadata>
  <g
     inkscape:label="Layer 1"
     inkscape:groupmode="layer"
     id="layer1"
     transform="translate(-179.89359,-86.039358)">
    <g
       id="g1185"
       transform="matrix(0.68504405,0,0,-0.68504405,181.71444,125.69314)"
       style="display:inline;opacity:1">
      <path
         d="m 0,0 c -0.384,0 -0.853,0.07 -1.408,0.209 -0.554,0.14 -0.919,0.289 -1.093,0.446 l 0.288,0.995 c 0.279,-0.149 0.624,-0.279 1.034,-0.393 0.411,-0.113 0.799,-0.17 1.166,-0.17 0.62,0 1.1,0.116 1.44,0.347 0.341,0.231 0.511,0.544 0.511,0.936 0,0.279 -0.085,0.526 -0.255,0.74 C 1.513,3.324 1.27,3.521 0.956,3.699 0.642,3.878 0.205,4.09 -0.354,4.334 -0.904,4.579 -1.342,4.817 -1.67,5.048 -1.997,5.279 -2.244,5.55 -2.41,5.86 c -0.165,0.31 -0.248,0.683 -0.248,1.12 0,0.436 0.117,0.829 0.353,1.178 0.236,0.349 0.574,0.624 1.015,0.825 0.441,0.201 0.958,0.302 1.552,0.302 0.41,0 0.823,-0.057 1.237,-0.171 C 1.914,9.001 2.287,8.861 2.619,8.695 L 2.2,7.7 C 1.894,7.848 1.604,7.964 1.329,8.047 1.054,8.13 0.729,8.171 0.354,8.171 -0.17,8.171 -0.594,8.071 -0.917,7.87 -1.24,7.669 -1.401,7.381 -1.401,7.006 -1.401,6.718 -1.318,6.467 -1.152,6.253 -0.987,6.039 -0.751,5.845 -0.445,5.67 -0.14,5.496 0.31,5.273 0.904,5.002 1.698,4.644 2.281,4.273 2.652,3.889 3.023,3.505 3.208,3.007 3.208,2.396 3.208,1.925 3.082,1.508 2.829,1.146 2.575,0.783 2.209,0.502 1.729,0.301 1.248,0.101 0.672,0 0,0"
         style="fill:#153a2a;fill-opacity:1;fill-rule:nonzero;stroke:none"
         id="path1187" />
    </g>
    <g
       id="g1189"
       transform="matrix(0.68504405,0,0,-0.68504405,186.50973,123.25438)"
       style="display:inline;opacity:1">
      <path
         d="M 0,0 H 2.894 L 1.427,3.824 Z m -2.514,-3.497 3.391,9.01 h 1.14 L 5.52,-3.496 4.204,-3.497 3.274,-1.008 h -3.628 l -0.929,-2.489 z"
         style="fill:#153a2a;fill-opacity:1;fill-rule:nonzero;stroke:none"
         id="path1191" />
    </g>
    <g
       id="g1193"
       transform="matrix(0.68504405,0,0,-0.68504405,204.48529,123.25438)"
       style="display:inline;opacity:1">
      <path
         d="M 0,0 H 2.894 L 1.427,3.824 Z m -2.514,-3.497 3.391,9.01 h 1.14 L 5.52,-3.496 4.204,-3.497 3.274,-1.008 h -3.628 l -0.929,-2.489 z"
         style="fill:#153a2a;fill-opacity:1;fill-rule:nonzero;stroke:none"
         id="path1195" />
    </g>
    <g
       id="g1197"
       transform="matrix(0.68504405,0,0,-0.68504405,213.0004,123.25438)"
       style="display:inline;opacity:1">
      <path
         d="M 0,0 H 2.894 L 1.427,3.824 Z m -2.514,-3.497 3.391,9.01 h 1.14 L 5.52,-3.496 4.204,-3.497 3.274,-1.008 h -3.628 l -0.929,-2.489 z"
         style="fill:#153a2a;fill-opacity:1;fill-rule:nonzero;stroke:none"
         id="path1199" />
    </g>
    <g
       id="g1201"
       transform="matrix(0.68504405,0,0,-0.68504405,226.11215,123.25438)"
       style="display:inline;opacity:1">
      <path
         d="M 0,0 H 2.894 L 1.427,3.824 Z m -2.514,-3.497 3.391,9.01 h 1.14 L 5.52,-3.496 4.204,-3.497 3.274,-1.008 h -3.628 l -0.929,-2.489 z"
         style="fill:#153a2a;fill-opacity:1;fill-rule:nonzero;stroke:none"
         id="path1203" />
    </g>
    <g
       id="g1205"
       transform="matrix(0.68504405,0,0,-0.68504405,192.53813,121.02799)"
       style="display:inline;opacity:1">
      <path
         d="m 0,0 v -6.746 h -1.257 v 9.012 h 1.113 l 4.623,-6.693 v 6.693 h 1.27 V -6.745 H 4.623 Z"
         style="fill:#153a2a;fill-opacity:1;fill-rule:nonzero;stroke:none"
         id="path1207" />
    </g>
    <g
       id="g1209"
       transform="matrix(0.68504405,0,0,-0.68504405,197.90888,119.47979)"
       style="display:inline;opacity:1">
      <path
         d="M 0,0 H 7.058 L 7.069,-0.996 H 4.164 v -8.015 h -1.27 v 8.015 H 0 Z"
         style="fill:#153a2a;fill-opacity:1;fill-rule:nonzero;stroke:none"
         id="path1211" />
    </g>
    <g
       id="g1213"
       transform="matrix(0.68504405,0,0,-0.68504405,219.02877,121.02799)"
       style="display:inline;opacity:1">
      <path
         d="m 0,0 v -6.746 h -1.257 v 9.012 h 1.113 l 4.623,-6.693 v 6.693 h 1.27 V -6.745 H 4.623 Z"
         style="fill:#153a2a;fill-opacity:1;fill-rule:nonzero;stroke:none"
         id="path1215" />
    </g>
    <g
       id="g1217"
       transform="matrix(0.68504405,0,0,-0.68504405,210.21911,109.19727)"
       style="display:inline;opacity:1">
      <path
         d="m 0,0 c -0.014,-3.425 -2.818,-6.237 -6.219,-7.573 2.318,0.474 4.552,1.36 6.39,2.727 C 0.061,-4.27 0,-3.596 0,-2.784 Z"
         style="fill:#153a2a;fill-opacity:1;fill-rule:nonzero;stroke:none"
         id="path1219" />
    </g>
    <g
       id="g1221"
       transform="matrix(0.68504405,0,0,-0.68504405,198.32674,89.72832)"
       style="display:inline;opacity:1">
      <path
         d="M 0,0 C 0,2.288 1.096,4.181 2.931,5.385 -1.99,3.832 -5.125,0 -5.125,-4.971 c 0,-14.26 22.452,-13.174 22.486,-23.404 v 13.292 C 10.805,-9.877 0,-8.567 0,0"
         style="fill:#153a2a;fill-opacity:1;fill-rule:nonzero;stroke:none"
         id="path1223" />
    </g>
    <g
       id="g1225"
       transform="matrix(0.68504405,0,0,-0.68504405,200.37504,114.38306)"
       style="display:inline;opacity:1">
      <path
         d="M 0,0 C -4.228,1.375 -6.47,0.162 -7.581,-0.871 V 8.994 C -7,5.32 -3.34,1.316 0,0"
         style="fill:#153a2a;fill-opacity:1;fill-rule:nonzero;stroke:none"
         id="path1227" />
    </g>
    <g
       id="g1229"
       transform="matrix(0.68504405,0,0,-0.68504405,210.21911,109.16301)"
       style="display:inline;opacity:1">
      <path
         d="M 0,0 V -0.044 Z"
         style="fill:#1eb2a0;fill-opacity:1;fill-rule:nonzero;stroke:none"
         id="path1231" />
    </g>
    <g
       id="g1233"
       transform="matrix(0.68504405,0,0,-0.68504405,213.40457,105.97072)"
       style="display:inline;opacity:1">
      <path
         d="M 0,0 C -0.078,3.844 -2.016,6.547 -4.642,8.633 V -7.489 c 0,-0.811 0.061,-1.485 0.171,-2.06 C -1.274,-7.165 0,-3.918 0,0"
         style="fill:#e95a25;fill-opacity:1;fill-rule:nonzero;stroke:none"
         id="path1235" />
    </g>
    <g
       id="g1237"
       transform="matrix(0.68504405,0,0,-0.68504405,213.40457,95.907409)"
       style="display:inline;opacity:1">
      <path
         d="m 0,0 v -14.696 c -0.078,3.842 -2.016,6.546 -4.642,8.633 v 7.036 c 0,3.652 -1.141,5.277 -3.714,5.277 -1.051,0 -2.891,-0.361 -3.684,-0.948 1.202,1.075 3.034,1.664 5.405,1.693 C -2.359,6.995 0,4.507 0,0"
         style="fill:#76c6d2;fill-opacity:1;fill-rule:nonzero;stroke:none"
         id="path1239" />
    </g>
    <g
       id="g1241"
       transform="matrix(0.68504405,0,0,-0.68504405,214.96647,112.89651)"
       style="display:inline;opacity:1">
      <path
         d="m 0,0 c -0.371,-1.39 -1.649,-2.172 -3.603,-2.172 -1.621,0 -2.749,0.622 -3.157,2.728 3.197,2.382 4.472,5.629 4.472,9.548 V 0.887 C -2.288,-1.391 -0.403,-1.176 0,0"
         style="fill:#76c6d2;fill-opacity:1;fill-rule:nonzero;stroke:none"
         id="path1243" />
    </g>
    <g
       id="g1245"
       transform="matrix(0.68504405,0,0,-0.68504405,183.84492,127.48109)"
       style="display:inline;opacity:1">
      <path
         d="m 0,0 c 0.173,0 0.385,-0.026 0.635,-0.08 0.25,-0.052 0.471,-0.131 0.663,-0.237 L 1.01,-0.988 0.83,-0.937 c -0.188,0.057 -0.337,0.097 -0.448,0.118 -0.11,0.022 -0.247,0.033 -0.411,0.033 -0.26,0 -0.493,-0.072 -0.7,-0.217 -0.206,-0.144 -0.369,-0.351 -0.487,-0.62 -0.117,-0.27 -0.176,-0.585 -0.176,-0.945 0,-0.322 0.051,-0.617 0.155,-0.884 0.103,-0.267 0.253,-0.478 0.451,-0.635 0.197,-0.156 0.43,-0.234 0.699,-0.234 0.356,0 0.715,0.074 1.075,0.223 L 1.342,-4.79 C 1.159,-4.886 0.937,-4.963 0.674,-5.021 0.412,-5.079 0.176,-5.107 -0.036,-5.107 c -0.495,0 -0.919,0.11 -1.27,0.332 -0.351,0.221 -0.615,0.523 -0.793,0.905 -0.178,0.382 -0.267,0.814 -0.267,1.295 0,0.5 0.097,0.945 0.292,1.334 0.195,0.39 0.471,0.694 0.83,0.913 C -0.886,-0.109 -0.471,0 0,0"
         style="fill:#e95a25;fill-opacity:1;fill-rule:nonzero;stroke:none"
         id="path1247" />
    </g>
    <g
       id="g1249"
       transform="matrix(0.68504405,0,0,-0.68504405,187.55784,128.00858)"
       style="display:inline;opacity:1">
      <path
         d="m 0,0 c -0.26,0 -0.499,-0.073 -0.718,-0.22 -0.219,-0.147 -0.394,-0.356 -0.527,-0.627 -0.132,-0.272 -0.198,-0.586 -0.198,-0.942 0,-0.341 0.058,-0.646 0.173,-0.912 0.116,-0.267 0.28,-0.474 0.494,-0.621 0.214,-0.146 0.466,-0.22 0.754,-0.22 0.27,0 0.514,0.066 0.733,0.199 0.218,0.132 0.391,0.334 0.519,0.606 0.127,0.271 0.191,0.602 0.191,0.991 0,0.337 -0.058,0.638 -0.173,0.902 C 1.132,-0.58 0.967,-0.373 0.75,-0.224 0.534,-0.074 0.284,0 0,0 m -2.417,-1.796 c 0,0.495 0.1,0.938 0.3,1.327 0.199,0.39 0.482,0.695 0.847,0.916 0.366,0.221 0.784,0.337 1.255,0.347 0.496,0 0.926,-0.112 1.292,-0.336 C 1.642,0.235 1.92,-0.069 2.11,-0.454 2.3,-0.839 2.395,-1.27 2.395,-1.746 2.395,-2.246 2.294,-2.689 2.092,-3.077 1.89,-3.463 1.607,-3.767 1.244,-3.985 0.881,-4.204 0.462,-4.318 -0.015,-4.328 c -0.495,0 -0.924,0.112 -1.287,0.335 -0.363,0.224 -0.64,0.527 -0.83,0.91 -0.19,0.382 -0.285,0.811 -0.285,1.287"
         style="fill:#e95a25;fill-opacity:1;fill-rule:nonzero;stroke:none"
         id="path1251" />
    </g>
    <g
       id="g1253"
       transform="matrix(0.68504405,0,0,-0.68504405,190.63371,127.5496)"
       style="display:inline;opacity:1">
      <path
         d="m 0,0 h 0.945 v -3.051 c 0,-0.39 0.097,-0.682 0.292,-0.877 0.195,-0.195 0.456,-0.292 0.783,-0.292 0.327,0 0.588,0.1 0.783,0.3 0.194,0.199 0.292,0.489 0.292,0.869 V 0 H 4.04 V -3.124 C 4.04,-3.479 3.956,-3.798 3.787,-4.079 3.619,-4.361 3.381,-4.582 3.073,-4.743 2.765,-4.904 2.409,-4.984 2.005,-4.984 c -0.399,0 -0.75,0.08 -1.053,0.241 -0.303,0.161 -0.536,0.384 -0.7,0.667 -0.163,0.284 -0.245,0.601 -0.245,0.952 z"
         style="fill:#e95a25;fill-opacity:1;fill-rule:nonzero;stroke:none"
         id="path1255" />
    </g>
    <g
       id="g1257"
       transform="matrix(0.68504405,0,0,-0.68504405,195.71674,128.65938)"
       style="display:inline;opacity:1">
      <path
         d="M 0,0 V -3.282 H -0.931 V 1.623 H 0 L 2.272,-1.652 V 1.623 H 3.21 V -3.282 H 2.272 Z"
         style="fill:#e95a25;fill-opacity:1;fill-rule:nonzero;stroke:none"
         id="path1259" />
    </g>
    <g
       id="g1261"
       transform="matrix(0.68504405,0,0,-0.68504405,199.2721,127.5496)"
       style="display:inline;opacity:1">
      <path
         d="M 0,0 H 3.968 L 4.119,-0.736 H 2.438 V -4.905 H 1.493 v 4.169 H 0 Z"
         style="fill:#e95a25;fill-opacity:1;fill-rule:nonzero;stroke:none"
         id="path1263" />
    </g>
    <g
       id="g1265"
       transform="matrix(0.68504405,0,0,-0.68504405,205.16349,128.61142)"
       style="display:inline;opacity:1">
      <path
         d="m 0,0 c 0,0.515 -0.327,0.772 -0.981,0.772 h -0.577 v -1.501 h 0.591 c 0.294,0 0.528,0.059 0.704,0.177 C -0.088,-0.434 0,-0.25 0,0 m -2.489,-3.354 v 4.905 h 1.537 c 0.567,0 1.033,-0.129 1.396,-0.386 C 0.807,0.908 0.988,0.534 0.988,0.043 0.988,-0.25 0.913,-0.507 0.761,-0.729 0.61,-0.95 0.406,-1.123 0.151,-1.248 L 1.356,-3.354 H 0.361 l -1.039,1.86 h -0.88 v -1.86 z"
         style="fill:#e95a25;fill-opacity:1;fill-rule:nonzero;stroke:none"
         id="path1267" />
    </g>
    <g
       id="g1269"
       transform="matrix(0.68504405,0,0,-0.68504405,208.81478,129.62529)"
       style="display:inline;opacity:1">
      <path
         d="m 0,0 v -1.875 h -0.938 v 1.911 l -1.601,2.828 0.923,0.267 1.14,-2.15 1.19,2.049 h 0.988 z"
         style="fill:#e95a25;fill-opacity:1;fill-rule:nonzero;stroke:none"
         id="path1271" />
    </g>
    <g
       id="g1273"
       transform="matrix(0.68504405,0,0,-0.68504405,214.71985,127.48109)"
       style="display:inline;opacity:1">
      <path
         d="m 0,0 c 0.173,0 0.385,-0.026 0.635,-0.08 0.25,-0.052 0.471,-0.131 0.663,-0.237 L 1.01,-0.988 0.83,-0.937 c -0.188,0.057 -0.337,0.097 -0.448,0.118 -0.11,0.022 -0.247,0.033 -0.411,0.033 -0.26,0 -0.493,-0.072 -0.7,-0.217 -0.206,-0.144 -0.369,-0.351 -0.487,-0.62 -0.117,-0.27 -0.176,-0.585 -0.176,-0.945 0,-0.322 0.051,-0.617 0.155,-0.884 0.103,-0.267 0.253,-0.478 0.451,-0.635 0.197,-0.156 0.43,-0.234 0.699,-0.234 0.356,0 0.715,0.074 1.075,0.223 L 1.342,-4.79 C 1.159,-4.886 0.937,-4.963 0.674,-5.021 0.412,-5.079 0.176,-5.107 -0.036,-5.107 c -0.495,0 -0.919,0.11 -1.27,0.332 -0.351,0.221 -0.615,0.523 -0.793,0.905 -0.178,0.382 -0.267,0.814 -0.267,1.295 0,0.5 0.097,0.945 0.292,1.334 0.195,0.39 0.471,0.694 0.83,0.913 C -0.886,-0.109 -0.471,0 0,0"
         style="fill:#e95a25;fill-opacity:1;fill-rule:nonzero;stroke:none"
         id="path1275" />
    </g>
    <g
       id="g1277"
       transform="matrix(0.68504405,0,0,-0.68504405,217.6587,130.40623)"
       style="display:inline;opacity:1">
      <path
         d="M 0,0 H 2.164 L 2.308,-0.729 H -0.931 V 4.177 H 0 Z"
         style="fill:#e95a25;fill-opacity:1;fill-rule:nonzero;stroke:none"
         id="path1279" />
    </g>
    <g
       id="g1281"
       transform="matrix(0.68504405,0,0,-0.68504405,220.54957,127.5496)"
       style="display:inline;opacity:1">
      <path
         d="m 0,0 h 0.945 v -3.051 c 0,-0.39 0.097,-0.682 0.292,-0.877 0.195,-0.195 0.456,-0.292 0.783,-0.292 0.327,0 0.588,0.1 0.783,0.3 0.194,0.199 0.292,0.489 0.292,0.869 V 0 H 4.04 V -3.124 C 4.04,-3.479 3.956,-3.798 3.787,-4.079 3.619,-4.361 3.381,-4.582 3.073,-4.743 2.765,-4.904 2.409,-4.984 2.005,-4.984 c -0.399,0 -0.75,0.08 -1.053,0.241 -0.303,0.161 -0.536,0.384 -0.7,0.667 -0.163,0.284 -0.245,0.601 -0.245,0.952 z"
         style="fill:#e95a25;fill-opacity:1;fill-rule:nonzero;stroke:none"
         id="path1283" />
    </g>
    <g
       id="g1285"
       transform="matrix(0.68504405,0,0,-0.68504405,226.89308,129.92671)"
       style="display:inline;opacity:1">
      <path
         d="M 0,0 C 0,0.226 -0.069,0.401 -0.206,0.526 -0.343,0.652 -0.529,0.714 -0.765,0.714 H -1.84 v -1.378 h 1.01 c 0.255,0 0.457,0.058 0.606,0.173 C -0.075,-0.375 0,-0.212 0,0 m -0.245,2.085 c 0,0.221 -0.064,0.377 -0.191,0.469 -0.128,0.091 -0.317,0.137 -0.567,0.137 H -1.84 V 1.472 h 0.693 c 0.274,0 0.493,0.051 0.656,0.154 0.164,0.104 0.246,0.257 0.246,0.459 M 0.974,0.007 C 0.974,-0.44 0.818,-0.792 0.505,-1.05 0.192,-1.307 -0.229,-1.436 -0.757,-1.436 H -2.77 V 3.47 h 1.904 c 0.505,0 0.9,-0.111 1.183,-0.332 C 0.601,2.917 0.743,2.57 0.743,2.099 0.743,1.792 0.567,1.5 0.216,1.226 0.721,0.962 0.974,0.555 0.974,0.007"
         style="fill:#e95a25;fill-opacity:1;fill-rule:nonzero;stroke:none"
         id="path1287" />
    </g>
  </g>
</svg>
