<?xml version="1.0" encoding="UTF-8" standalone="no"?>
<svg
   xmlns:dc="http://purl.org/dc/elements/1.1/"
   xmlns:cc="http://creativecommons.org/ns#"
   xmlns:rdf="http://www.w3.org/1999/02/22-rdf-syntax-ns#"
   xmlns:svg="http://www.w3.org/2000/svg"
   xmlns="http://www.w3.org/2000/svg"
   xmlns:sodipodi="http://sodipodi.sourceforge.net/DTD/sodipodi-0.dtd"
   xmlns:inkscape="http://www.inkscape.org/namespaces/inkscape"
   width="56.538284mm"
   height="19.334339mm"
   viewBox="0 0 56.538284 19.334339"
   version="1.1"
   id="svg1842"
   inkscape:version="1.0.2 (e86c8708, 2021-01-15)"
   sodipodi:docname="Logo_MercadoV.svg">
  <defs
     id="defs1836" />
  <sodipodi:namedview
     id="base"
     pagecolor="#ffffff"
     bordercolor="#666666"
     borderopacity="1.0"
     inkscape:pageopacity="0.0"
     inkscape:pageshadow="2"
     inkscape:zoom="0.35"
     inkscape:cx="88.272567"
     inkscape:cy="187.96605"
     inkscape:document-units="mm"
     inkscape:current-layer="layer1"
     inkscape:document-rotation="0"
     showgrid="false"
     inkscape:window-width="1440"
     inkscape:window-height="872"
     inkscape:window-x="0"
     inkscape:window-y="28"
     inkscape:window-maximized="0" />
  <metadata
     id="metadata1839">
    <rdf:RDF>
      <cc:Work
         rdf:about="">
        <dc:format>image/svg+xml</dc:format>
        <dc:type
           rdf:resource="http://purl.org/dc/dcmitype/StillImage" />
        <dc:title></dc:title>
      </cc:Work>
    </rdf:RDF>
  </metadata>
  <g
     inkscape:label="Layer 1"
     inkscape:groupmode="layer"
     id="layer1"
     transform="translate(-76.808241,-76.511365)">
    <g
       id="g509"
       transform="matrix(0.35277777,0,0,-0.35277777,80.552271,95.843234)"
       style="display:inline">
      <path
         d="M 0,0 H -10.613 L 5.264,54.798 h 9.413 l 6.009,-12.388 6.01,12.388 h 9.412 L 52.263,0.075 H 41.669 L 29.585,40.371 20.686,22.026 11.787,40.371 Z"
         style="fill:#bb9758;fill-opacity:1;fill-rule:nonzero;stroke:none"
         id="path511" />
    </g>
    <g
       id="g513"
       transform="matrix(0.35277777,0,0,-0.35277777,89.969321,76.51454)"
       style="display:inline">
      <path
         d="M 0,0 V 0 L -6.009,-12.388 -12.019,0 v 0 h -9.412 l 2.651,-6.446 2.423,-4.994 1.448,-2.986 8.9,-18.346 v 0 L 2.89,-14.426 4.339,-11.44 6.761,-6.446 9.412,0 Z"
         style="fill:#bb9758;fill-opacity:1;fill-rule:nonzero;stroke:none"
         id="path515" />
    </g>
    <g
       id="g517"
       transform="matrix(0.35277777,0,0,-0.35277777,77.272849,76.51454)"
       style="display:inline">
      <path
         d="M 0,0 H 9.96 L 29.981,-43.708 50.001,0 h 9.96 l -25.292,-54.797 -9.405,0.062 z"
         style="fill:#bb9758;fill-opacity:1;fill-rule:nonzero;stroke:none"
         id="path519" />
    </g>
    <g
       id="g521"
       transform="matrix(0.35277777,0,0,-0.35277777,107.06634,95.539845)"
       style="display:inline">
      <path
         d="m 0,0 c -0.802,-0.463 -1.736,-0.694 -2.801,-0.694 -1.361,0 -2.433,0.417 -3.217,1.251 -0.784,0.834 -1.176,1.973 -1.176,3.417 0,1.464 0.377,2.602 1.131,3.414 0.754,0.812 1.812,1.218 3.172,1.218 0.694,0 1.606,-0.148 2.735,-0.443 V 6.47 H -0.892 L -0.9,6.589 c -0.005,0.12 -0.011,0.238 -0.016,0.353 0,0.391 -0.181,0.7 -0.544,0.925 -0.362,0.225 -0.857,0.338 -1.482,0.338 -0.897,0 -1.612,-0.383 -2.146,-1.149 -0.534,-0.766 -0.801,-1.789 -0.801,-3.07 0,-1.285 0.313,-2.287 0.94,-3.007 0.626,-0.721 1.498,-1.081 2.615,-1.081 0.73,0 1.508,0.226 2.334,0.677 z"
         style="fill:#0d1e32;fill-opacity:1;fill-rule:nonzero;stroke:none"
         id="path523" />
    </g>
    <g
       id="g525"
       transform="matrix(0.35277777,0,0,-0.35277777,108.91243,95.642151)"
       style="display:inline">
      <path
         d="m 0,0 c 0.882,0 1.573,0.375 2.072,1.125 0.5,0.751 0.75,1.792 0.75,3.121 0,1.33 -0.25,2.371 -0.75,3.123 C 1.573,8.122 0.882,8.498 0,8.498 -0.883,8.498 -1.574,8.122 -2.073,7.369 -2.572,6.617 -2.822,5.576 -2.822,4.246 c 0,-1.329 0.25,-2.37 0.749,-3.121 C -1.574,0.375 -0.883,0 0,0 m 0,-0.401 c -1.286,0 -2.299,0.415 -3.039,1.245 -0.741,0.829 -1.112,1.965 -1.112,3.405 0,1.44 0.371,2.575 1.112,3.405 0.74,0.83 1.753,1.245 3.039,1.245 1.285,0 2.298,-0.415 3.039,-1.245 C 3.78,6.824 4.15,5.689 4.15,4.249 4.15,2.809 3.78,1.673 3.039,0.844 2.298,0.014 1.285,-0.401 0,-0.401"
         style="fill:#0d1e32;fill-opacity:1;fill-rule:nonzero;stroke:none"
         id="path527" />
    </g>
    <g
       id="g529"
       transform="matrix(0.35277777,0,0,-0.35277777,110.75252,95.642151)"
       style="display:inline">
      <path
         d="M 0,0 V 1.706 H 0.628 L 0.634,1.598 c 0.012,-0.2 0.018,-0.349 0.018,-0.449 0,-0.316 0.13,-0.553 0.389,-0.712 0.423,-0.264 0.89,-0.395 1.401,-0.395 0.53,0 0.945,0.15 1.244,0.452 0.3,0.301 0.449,0.717 0.449,1.247 0,0.447 -0.096,0.802 -0.287,1.066 C 3.656,3.07 3.283,3.357 2.729,3.668 L 2.1,4.027 C 0.744,4.793 0.066,5.629 0.066,6.535 c 0,0.682 0.244,1.247 0.733,1.694 0.488,0.446 1.102,0.67 1.84,0.67 0.319,0 0.665,-0.031 1.038,-0.093 C 4.05,8.744 4.45,8.649 4.877,8.522 V 6.948 H 4.213 L 4.208,7.05 C 4.195,7.265 4.189,7.423 4.189,7.522 c 0,0.335 -0.12,0.582 -0.36,0.74 C 3.589,8.419 3.214,8.498 2.702,8.498 2.274,8.498 1.927,8.357 1.661,8.076 1.395,7.795 1.262,7.425 1.262,6.966 1.262,6.575 1.354,6.251 1.538,5.997 1.721,5.741 2.053,5.478 2.531,5.207 L 3.16,4.848 C 4.03,4.353 4.616,3.922 4.919,3.555 5.222,3.188 5.374,2.727 5.374,2.172 5.374,1.434 5.1,0.821 4.551,0.332 4.003,-0.157 3.317,-0.401 2.496,-0.401 2.017,-0.401 1.569,-0.367 1.152,-0.299 0.735,-0.231 0.351,-0.132 0,0"
         style="fill:#0d1e32;fill-opacity:1;fill-rule:nonzero;stroke:none"
         id="path531" />
    </g>
    <g
       id="g533"
       transform="matrix(0.35277777,0,0,-0.35277777,113.96809,92.749373)"
       style="display:inline">
      <path
         d="m 0,0 h -1.412 c -0.332,0 -0.621,-0.018 -0.868,-0.054 -0.164,-0.024 -0.246,-0.171 -0.246,-0.443 0,-0.203 -0.004,-0.378 -0.012,-0.526 l -0.006,-0.12 h -0.628 v 1.622 h 7.6 V -1.143 H 3.8 l -0.006,0.12 c -0.012,0.148 -0.018,0.323 -0.018,0.526 0,0.272 -0.08,0.419 -0.24,0.443 C 3.285,-0.018 2.997,0 2.67,0 H 1.257 v -6.829 c 0,-0.53 0.047,-0.852 0.143,-0.966 0.096,-0.114 0.381,-0.183 0.856,-0.206 l 0.257,-0.006 v -0.371 h -3.764 v 0.371 l 0.257,0.006 c 0.475,0.023 0.76,0.092 0.853,0.206 C -0.047,-7.681 0,-7.359 0,-6.829 Z"
         style="fill:#0d1e32;fill-opacity:1;fill-rule:nonzero;stroke:none"
         id="path535" />
    </g>
    <g
       id="g537"
       transform="matrix(0.35277777,0,0,-0.35277777,116.39379,94.569706)"
       style="display:inline">
      <path
         d="M 0,0 H 3.393 L 1.709,4.034 Z m -0.192,-0.485 -0.512,-1.177 c -0.197,-0.464 -0.295,-0.774 -0.295,-0.929 0,-0.168 0.257,-0.252 0.772,-0.252 h 0.095 v -0.371 h -2.297 v 0.371 l 0.125,0.007 c 0.343,0.015 0.548,0.058 0.614,0.128 0.065,0.069 0.232,0.418 0.499,1.044 L 1.934,5.757 H 2.351 L 5.458,-1.706 C 5.701,-2.241 5.873,-2.559 5.973,-2.66 6.072,-2.762 6.268,-2.821 6.559,-2.836 L 6.697,-2.843 V -3.214 H 3.411 v 0.371 h 0.108 c 0.559,0 0.838,0.08 0.838,0.239 0,0.236 -0.084,0.549 -0.252,0.94 L 3.61,-0.485 Z"
         style="fill:#0d1e32;fill-opacity:1;fill-rule:nonzero;stroke:none"
         id="path539" />
    </g>
    <g
       id="g541"
       transform="matrix(0.35277777,0,0,-0.35277777,120.82115,94.188706)"
       style="display:inline">
      <path
         d="m 0,0 h 0.439 c 1.551,0 2.326,0.74 2.326,2.22 0,0.702 -0.146,1.2 -0.436,1.493 -0.291,0.293 -0.786,0.44 -1.486,0.44 L 0,4.153 Z m -0.012,-0.401 v -2.352 c 0,-0.535 0.041,-0.857 0.123,-0.967 0.081,-0.11 0.324,-0.178 0.727,-0.206 l 0.114,-0.006 v -0.371 h -3.316 v 0.371 l 0.114,0.006 c 0.483,0.032 0.769,0.101 0.859,0.206 0.089,0.106 0.134,0.428 0.134,0.967 v 5.757 c 0,0.54 -0.045,0.861 -0.134,0.965 -0.09,0.103 -0.376,0.17 -0.859,0.202 l -0.114,0.012 v 0.371 h 2.123 l 1.073,0.03 0.477,0.012 c 1.824,0 2.737,-0.745 2.737,-2.236 0,-1.239 -0.605,-2.068 -1.815,-2.486 L 3.952,-2.737 C 4.335,-3.29 4.584,-3.62 4.7,-3.728 4.816,-3.836 4.967,-3.894 5.155,-3.902 5.211,-3.91 5.344,-3.918 5.556,-3.926 l 0.12,-0.006 V -4.303 H 3.417 l -2.402,3.902 z"
         style="fill:#0d1e32;fill-opacity:1;fill-rule:nonzero;stroke:none"
         id="path543" />
    </g>
    <g
       id="g545"
       transform="matrix(0.35277777,0,0,-0.35277777,124.05965,95.575123)"
       style="display:inline">
      <path
         d="M 0,0 V -0.371 H -3.471 V 0 l 0.114,0.006 c 0.483,0.032 0.769,0.101 0.859,0.206 0.089,0.106 0.134,0.428 0.134,0.967 v 5.757 c 0,0.54 -0.045,0.861 -0.134,0.965 -0.09,0.103 -0.376,0.17 -0.859,0.202 L -3.471,8.115 V 8.486 H 0 V 8.115 L -0.113,8.103 C -0.6,8.071 -0.888,8.004 -0.975,7.901 -1.063,7.797 -1.107,7.476 -1.107,6.936 V 1.179 c 0,-0.539 0.044,-0.861 0.132,-0.967 0.087,-0.105 0.375,-0.174 0.862,-0.206 z"
         style="fill:#0d1e32;fill-opacity:1;fill-rule:nonzero;stroke:none"
         id="path547" />
    </g>
    <g
       id="g549"
       transform="matrix(0.35277777,0,0,-0.35277777,126.82155,95.539845)"
       style="display:inline">
      <path
         d="m 0,0 c -0.802,-0.463 -1.736,-0.694 -2.801,-0.694 -1.361,0 -2.433,0.417 -3.217,1.251 -0.783,0.834 -1.176,1.973 -1.176,3.417 0,1.464 0.377,2.602 1.131,3.414 0.754,0.812 1.812,1.218 3.172,1.218 0.694,0 1.606,-0.148 2.735,-0.443 V 6.47 H -0.892 L -0.9,6.589 c -0.005,0.12 -0.011,0.238 -0.016,0.353 0,0.391 -0.181,0.7 -0.544,0.925 -0.362,0.225 -0.856,0.338 -1.482,0.338 -0.897,0 -1.612,-0.383 -2.146,-1.149 -0.534,-0.766 -0.801,-1.789 -0.801,-3.07 0,-1.285 0.313,-2.287 0.94,-3.007 0.626,-0.721 1.498,-1.081 2.615,-1.081 0.73,0 1.508,0.226 2.334,0.677 z"
         style="fill:#0d1e32;fill-opacity:1;fill-rule:nonzero;stroke:none"
         id="path551" />
    </g>
    <g
       id="g553"
       transform="matrix(0.35277777,0,0,-0.35277777,127.84107,94.569706)"
       style="display:inline">
      <path
         d="M 0,0 H 3.393 L 1.709,4.034 Z m -0.192,-0.485 -0.512,-1.177 c -0.197,-0.464 -0.295,-0.774 -0.295,-0.929 0,-0.168 0.257,-0.252 0.772,-0.252 h 0.095 v -0.371 h -2.297 v 0.371 l 0.125,0.007 c 0.343,0.015 0.548,0.058 0.614,0.128 0.065,0.069 0.232,0.418 0.499,1.044 L 1.934,5.757 H 2.351 L 5.458,-1.706 C 5.701,-2.241 5.873,-2.559 5.973,-2.66 6.072,-2.762 6.268,-2.821 6.559,-2.836 L 6.697,-2.843 V -3.214 H 3.411 v 0.371 h 0.108 c 0.559,0 0.838,0.08 0.838,0.239 0,0.236 -0.084,0.549 -0.252,0.94 l -0.496,1.179 z"
         style="fill:#0d1e32;fill-opacity:1;fill-rule:nonzero;stroke:none"
         id="path555" />
    </g>
    <path
       d="m 103.38758,94.164012 h -2.83704 v -0.12954 h 2.83704 z"
       style="display:inline;fill:#0d1e32;fill-opacity:1;fill-rule:nonzero;stroke:none;stroke-width:0.352778"
       id="path557" />
    <path
       d="m 133.33382,94.146373 h -2.83703 v -0.12954 h 2.83703 z"
       style="display:inline;fill:#0d1e32;fill-opacity:1;fill-rule:nonzero;stroke:none;stroke-width:0.352778"
       id="path559" />
    <g
       id="g561"
       transform="matrix(0.35277777,0,0,-0.35277777,100.58864,76.835568)"
       style="display:inline">
      <path
         d="m 0,0 v 0.574 h 3.93 l 4.088,-9.978 4.001,9.978 h 3.443 V 0 L 15.286,-0.019 C 14.54,-0.068 14.097,-0.172 13.958,-0.332 13.819,-0.491 13.75,-0.988 13.75,-1.823 v -8.902 c 0,-0.832 0.069,-1.331 0.208,-1.494 0.139,-0.163 0.582,-0.27 1.328,-0.319 l 0.176,-0.009 v -0.574 h -5.219 v 0.574 l 0.167,0.009 c 0.746,0.049 1.187,0.156 1.323,0.319 0.135,0.163 0.204,0.662 0.204,1.494 v 9.411 L 7.65,-12.029 H 6.965 L 2.73,-1.166 v -9.559 c 0,-0.832 0.069,-1.331 0.208,-1.494 0.139,-0.163 0.581,-0.27 1.328,-0.319 l 0.176,-0.009 v -0.574 H 0 v 0.574 l 0.176,0.009 c 0.746,0.049 1.189,0.156 1.328,0.319 0.138,0.163 0.208,0.662 0.208,1.494 v 8.902 c 0,0.835 -0.068,1.332 -0.204,1.491 -0.136,0.16 -0.58,0.264 -1.332,0.313 z"
         style="fill:#0d1e32;fill-opacity:1;fill-rule:nonzero;stroke:none"
         id="path563" />
    </g>
    <g
       id="g565"
       transform="matrix(0.35277777,0,0,-0.35277777,109.6896,81.464012)"
       style="display:inline">
      <path
         d="m 0,0 h -9.873 v 0.574 l 0.176,0.009 c 0.746,0.049 1.189,0.156 1.328,0.319 0.138,0.163 0.208,0.662 0.208,1.494 v 8.902 c 0,0.835 -0.07,1.332 -0.208,1.491 -0.139,0.16 -0.582,0.264 -1.328,0.313 l -0.176,0.019 v 0.574 h 9.364 v -2.397 h -1.027 l -0.018,0.176 c -0.05,0.851 -0.113,1.311 -0.19,1.379 -0.077,0.067 -0.572,0.101 -1.485,0.101 H -6.218 V 7.477 l 2.507,0.009 c 0.556,0 0.897,0.029 1.023,0.087 0.126,0.059 0.202,0.351 0.227,0.875 l 0.009,0.167 h 0.74 V 5.607 h -0.74 l -0.009,0.165 c -0.025,0.465 -0.101,0.742 -0.227,0.831 -0.126,0.089 -0.467,0.133 -1.023,0.133 h -2.507 v -4.34 c 0,-0.715 0.085,-1.161 0.254,-1.336 0.17,-0.176 0.61,-0.265 1.319,-0.265 h 1.462 c 1.085,0 1.704,0.055 1.855,0.163 0.151,0.107 0.248,0.569 0.292,1.383 l 0.009,0.167 H 0 Z"
         style="fill:#0d1e32;fill-opacity:1;fill-rule:nonzero;stroke:none"
         id="path567" />
    </g>
    <g
       id="g569"
       transform="matrix(0.35277777,0,0,-0.35277777,111.14904,79.11804)"
       style="display:inline">
      <path
         d="m 0,0 h 0.679 c 2.398,0 3.596,1.145 3.596,3.433 0,1.086 -0.225,1.855 -0.674,2.309 -0.45,0.453 -1.216,0.68 -2.298,0.68 H 0 Z m -0.018,-0.62 v -3.636 c 0,-0.827 0.063,-1.325 0.19,-1.494 0.126,-0.17 0.501,-0.277 1.124,-0.32 l 0.175,-0.009 v -0.574 h -5.126 v 0.574 l 0.176,0.009 c 0.746,0.049 1.189,0.156 1.328,0.32 0.139,0.163 0.208,0.661 0.208,1.494 v 8.901 c 0,0.835 -0.069,1.332 -0.208,1.491 -0.139,0.16 -0.582,0.264 -1.328,0.313 l -0.176,0.019 v 0.574 h 3.282 L 1.286,7.088 2.024,7.106 C 4.844,7.106 6.255,5.954 6.255,3.65 6.255,1.734 5.32,0.453 3.45,-0.194 L 6.11,-4.232 C 6.702,-5.086 7.088,-5.597 7.267,-5.764 7.446,-5.931 7.68,-6.021 7.97,-6.033 8.057,-6.045 8.263,-6.057 8.59,-6.07 L 8.775,-6.079 V -6.653 H 5.284 L 1.569,-0.62 Z"
         style="fill:#0d1e32;fill-opacity:1;fill-rule:nonzero;stroke:none"
         id="path571" />
    </g>
    <g
       id="g573"
       transform="matrix(0.35277777,0,0,-0.35277777,118.38592,81.206484)"
       style="display:inline">
      <path
         d="m 0,0 c -1.24,-0.715 -2.684,-1.073 -4.331,-1.073 -2.104,0 -3.761,0.644 -4.973,1.934 -1.212,1.288 -1.819,3.05 -1.819,5.283 0,2.264 0.584,4.023 1.749,5.279 1.166,1.255 2.801,1.883 4.905,1.883 1.073,0 2.482,-0.228 4.228,-0.685 v -2.618 h -1.138 l -0.012,0.185 c -0.009,0.185 -0.017,0.367 -0.025,0.545 0,0.605 -0.281,1.081 -0.841,1.43 -0.561,0.349 -1.325,0.523 -2.292,0.523 -1.386,0 -2.493,-0.592 -3.318,-1.777 -0.825,-1.184 -1.238,-2.766 -1.238,-4.746 0,-1.987 0.484,-3.537 1.452,-4.65 0.969,-1.114 2.317,-1.67 4.044,-1.67 1.129,0 2.332,0.348 3.609,1.045 z"
         style="fill:#0d1e32;fill-opacity:1;fill-rule:nonzero;stroke:none"
         id="path575" />
    </g>
    <g
       id="g577"
       transform="matrix(0.35277777,0,0,-0.35277777,119.96284,79.710707)"
       style="display:inline">
      <path
         d="M 0,0 H 5.245 L 2.642,6.236 Z m -0.298,-0.75 -0.791,-1.82 c -0.304,-0.717 -0.456,-1.196 -0.456,-1.437 0,-0.259 0.398,-0.389 1.194,-0.389 h 0.147 v -0.573 h -3.552 v 0.573 l 0.194,0.01 c 0.531,0.024 0.847,0.091 0.949,0.199 0.101,0.107 0.358,0.646 0.772,1.614 L 2.99,8.901 H 3.635 L 8.439,-2.638 c 0.376,-0.826 0.642,-1.318 0.796,-1.475 0.154,-0.158 0.457,-0.249 0.907,-0.273 l 0.213,-0.01 V -4.969 H 5.274 v 0.573 h 0.167 c 0.864,0 1.296,0.124 1.296,0.371 0,0.364 -0.13,0.848 -0.389,1.453 L 5.581,-0.75 Z"
         style="fill:#0d1e32;fill-opacity:1;fill-rule:nonzero;stroke:none"
         id="path579" />
    </g>
    <g
       id="g581"
       transform="matrix(0.35277777,0,0,-0.35277777,124.90808,76.853207)"
       style="display:inline">
      <path
         d="m 0,0 v -10.686 c 0,-0.834 0.083,-1.309 0.249,-1.426 0.331,-0.228 0.975,-0.343 1.933,-0.343 1.737,0 3.04,0.523 3.908,1.57 0.869,1.046 1.303,2.615 1.303,4.709 0,2.178 -0.466,3.753 -1.399,4.722 C 5.061,-0.485 3.548,0 1.455,0 Z m -3.655,-13.075 v 0.574 l 0.176,0.009 c 0.747,0.05 1.189,0.156 1.328,0.32 0.139,0.163 0.208,0.661 0.208,1.494 v 8.901 c 0,0.835 -0.069,1.332 -0.208,1.491 -0.139,0.16 -0.581,0.265 -1.328,0.313 L -3.655,0.046 V 0.62 h 4.374 l 1.43,0.037 0.664,0.009 c 2.141,0 3.783,-0.567 4.927,-1.703 1.138,-1.134 1.708,-2.766 1.708,-4.894 0,-2.202 -0.588,-3.944 -1.763,-5.224 -1.175,-1.28 -2.774,-1.92 -4.798,-1.92 z"
         style="fill:#0d1e32;fill-opacity:1;fill-rule:nonzero;stroke:none"
         id="path583" />
    </g>
    <g
       id="g585"
       transform="matrix(0.35277777,0,0,-0.35277777,131.08275,81.365234)"
       style="display:inline">
      <path
         d="m 0,0 c 1.364,0 2.432,0.58 3.204,1.741 0.772,1.16 1.159,2.768 1.159,4.824 0,2.056 -0.387,3.665 -1.159,4.829 -0.772,1.163 -1.84,1.745 -3.204,1.745 -1.365,0 -2.433,-0.582 -3.205,-1.745 -0.772,-1.164 -1.158,-2.773 -1.158,-4.829 0,-2.056 0.386,-3.664 1.158,-4.824 C -2.433,0.58 -1.365,0 0,0 m 0,-0.62 c -1.988,0 -3.554,0.641 -4.7,1.924 -1.144,1.283 -1.717,3.039 -1.717,5.265 0,2.227 0.573,3.982 1.717,5.265 1.146,1.283 2.712,1.925 4.7,1.925 1.987,0 3.553,-0.642 4.699,-1.925 C 5.844,10.551 6.417,8.796 6.417,6.569 6.417,4.343 5.844,2.587 4.699,1.304 3.553,0.021 1.987,-0.62 0,-0.62"
         style="fill:#0d1e32;fill-opacity:1;fill-rule:nonzero;stroke:none"
         id="path587" />
    </g>
    <g
       id="g589"
       transform="matrix(0.35277777,0,0,-0.35277777,101.41308,85.764373)"
       style="display:inline">
      <path
         d="m 0,0 v -6.888 c 0,-0.537 0.053,-0.843 0.16,-0.919 0.214,-0.147 0.629,-0.221 1.246,-0.221 1.12,0 1.96,0.338 2.52,1.012 0.559,0.675 0.839,1.686 0.839,3.035 0,1.404 -0.3,2.419 -0.902,3.044 C 3.262,-0.312 2.287,0 0.938,0 Z m -2.356,-8.427 v 0.369 l 0.113,0.006 c 0.481,0.032 0.767,0.101 0.856,0.206 0.09,0.105 0.134,0.427 0.134,0.963 v 5.738 c 0,0.538 -0.044,0.858 -0.134,0.961 -0.089,0.103 -0.375,0.17 -0.856,0.202 L -2.356,0.03 V 0.4 H 0.463 L 1.385,0.423 1.813,0.43 c 1.38,0 2.438,-0.367 3.176,-1.098 0.734,-0.731 1.1,-1.783 1.1,-3.155 0,-1.419 -0.378,-2.542 -1.136,-3.366 C 4.196,-8.015 3.165,-8.427 1.861,-8.427 Z"
         style="fill:#0d1e32;fill-opacity:1;fill-rule:nonzero;stroke:none"
         id="path591" />
    </g>
    <g
       id="g593"
       transform="matrix(0.35277777,0,0,-0.35277777,106.05034,88.73829)"
       style="display:inline">
      <path
         d="m 0,0 h -6.364 v 0.37 l 0.114,0.005 c 0.48,0.033 0.766,0.101 0.855,0.207 0.09,0.105 0.135,0.426 0.135,0.962 v 5.738 c 0,0.538 -0.045,0.859 -0.135,0.962 -0.089,0.102 -0.375,0.17 -0.855,0.201 l -0.114,0.012 v 0.37 h 6.036 V 7.282 H -0.99 L -1.002,7.396 C -1.034,7.944 -1.075,8.24 -1.124,8.284 -1.174,8.328 -1.493,8.35 -2.081,8.35 H -4.008 V 4.819 l 1.616,0.006 c 0.358,0 0.578,0.019 0.659,0.056 0.082,0.038 0.131,0.226 0.147,0.564 l 0.005,0.108 h 0.478 V 3.614 h -0.478 l -0.005,0.107 c -0.016,0.3 -0.065,0.478 -0.147,0.535 -0.081,0.057 -0.301,0.086 -0.659,0.086 H -4.008 V 1.544 c 0,-0.461 0.055,-0.748 0.164,-0.861 0.109,-0.114 0.393,-0.17 0.85,-0.17 h 0.942 c 0.7,0 1.099,0.034 1.196,0.104 0.098,0.07 0.16,0.367 0.188,0.892 l 0.006,0.107 H 0 Z"
         style="fill:#0d1e32;fill-opacity:1;fill-rule:nonzero;stroke:none"
         id="path595" />
    </g>
    <g
       id="g597"
       transform="matrix(0.35277777,0,0,-0.35277777,109.69172,88.748873)"
       style="display:inline">
      <path
         d="m 0,0 -4.239,10.316 c -0.362,0.836 -0.599,1.319 -0.71,1.45 -0.111,0.131 -0.354,0.205 -0.728,0.221 l -0.175,0.016 v 0.518 h 4.488 v -0.518 h -0.184 c -0.857,0 -1.286,-0.107 -1.286,-0.323 0,-0.089 0.167,-0.543 0.501,-1.363 l 3.201,-7.786 3.009,7.794 c 0.066,0.167 0.122,0.309 0.167,0.426 0.178,0.454 0.267,0.749 0.267,0.888 0,0.243 -0.404,0.364 -1.211,0.364 H 2.916 v 0.518 H 6.11 V 12.003 L 5.926,11.987 C 5.542,11.971 5.306,11.91 5.22,11.804 5.134,11.697 4.915,11.204 4.564,10.325 L 0.567,0 Z"
         style="fill:#0d1e32;fill-opacity:1;fill-rule:nonzero;stroke:none"
         id="path599" />
    </g>
    <g
       id="g601"
       transform="matrix(0.35277777,0,0,-0.35277777,112.07473,87.111984)"
       style="display:inline">
      <path
         d="M 0,0 H 4.735 L 2.385,5.63 Z M -0.269,-0.677 -0.983,-2.32 c -0.275,-0.647 -0.412,-1.08 -0.412,-1.297 0,-0.234 0.359,-0.351 1.078,-0.351 h 0.133 v -0.518 h -3.207 v 0.518 l 0.175,0.008 c 0.479,0.022 0.765,0.083 0.857,0.18 0.091,0.097 0.324,0.583 0.697,1.457 L 2.699,8.036 H 3.282 L 7.619,-2.381 C 7.958,-3.127 8.198,-3.571 8.337,-3.713 8.476,-3.855 8.749,-3.938 9.156,-3.96 L 9.348,-3.968 V -4.486 H 4.762 v 0.518 h 0.15 c 0.78,0 1.169,0.111 1.169,0.334 0,0.329 -0.117,0.766 -0.351,1.312 l -0.692,1.645 z"
         style="fill:#0d1e32;fill-opacity:1;fill-rule:nonzero;stroke:none"
         id="path603" />
    </g>
    <g
       id="g605"
       transform="matrix(0.35277777,0,0,-0.35277777,118.52527,88.695956)"
       style="display:inline">
      <path
         d="m 0,0 h -8.93 v 0.518 l 0.159,0.008 c 0.674,0.045 1.074,0.141 1.199,0.288 0.125,0.148 0.188,0.598 0.188,1.349 v 8.036 c 0,0.754 -0.063,1.202 -0.188,1.346 -0.125,0.144 -0.525,0.239 -1.199,0.283 l -0.159,0.017 v 0.518 h 4.845 V 11.845 L -4.243,11.828 C -4.923,11.784 -5.324,11.689 -5.446,11.545 -5.569,11.401 -5.63,10.953 -5.63,10.199 V 2.163 c 0,-0.74 0.056,-1.166 0.169,-1.278 0.113,-0.111 0.541,-0.167 1.285,-0.167 h 1.277 c 1.008,0 1.586,0.057 1.733,0.172 0.147,0.113 0.24,0.586 0.28,1.415 l 0.009,0.168 H 0 Z"
         style="fill:#0d1e32;fill-opacity:1;fill-rule:nonzero;stroke:none"
         id="path607" />
    </g>
    <g
       id="g609"
       transform="matrix(0.35277777,0,0,-0.35277777,120.84055,88.604234)"
       style="display:inline">
      <path
         d="m 0,0 c 1.231,0 2.196,0.524 2.893,1.571 0.697,1.048 1.046,2.5 1.046,4.356 0,1.856 -0.349,3.308 -1.046,4.359 -0.697,1.05 -1.662,1.576 -2.893,1.576 -1.232,0 -2.196,-0.526 -2.894,-1.576 C -3.59,9.235 -3.939,7.783 -3.939,5.927 -3.939,4.071 -3.59,2.619 -2.894,1.571 -2.196,0.524 -1.232,0 0,0 m 0,-0.56 c -1.795,0 -3.208,0.58 -4.242,1.738 -1.034,1.158 -1.551,2.742 -1.551,4.753 0,2.01 0.517,3.594 1.551,4.753 1.034,1.158 2.447,1.737 4.242,1.737 1.794,0 3.208,-0.579 4.242,-1.737 C 5.276,9.525 5.793,7.941 5.793,5.931 5.793,3.92 5.276,2.336 4.242,1.178 3.208,0.02 1.794,-0.56 0,-0.56"
         style="fill:#0d1e32;fill-opacity:1;fill-rule:nonzero;stroke:none"
         id="path611" />
    </g>
    <g
       id="g613"
       transform="matrix(0.35277777,0,0,-0.35277777,124.34857,86.575762)"
       style="display:inline">
      <path
         d="M 0,0 H 0.613 C 2.778,0 3.859,1.033 3.859,3.099 3.859,4.079 3.656,4.774 3.25,5.183 2.845,5.593 2.153,5.797 1.176,5.797 H 0 Z m -0.017,-0.56 v -3.283 c 0,-0.746 0.057,-1.196 0.172,-1.348 0.114,-0.154 0.452,-0.25 1.015,-0.289 l 0.158,-0.008 v -0.518 h -4.627 v 0.518 l 0.158,0.008 c 0.674,0.045 1.074,0.141 1.199,0.289 0.125,0.147 0.188,0.597 0.188,1.348 v 8.036 c 0,0.754 -0.063,1.203 -0.188,1.347 -0.125,0.144 -0.525,0.238 -1.199,0.282 l -0.158,0.017 v 0.518 h 2.962 l 1.498,0.041 0.666,0.018 c 2.546,0 3.82,-1.041 3.82,-3.121 0,-1.73 -0.844,-2.886 -2.533,-3.47 L 5.516,-3.821 C 6.051,-4.592 6.399,-5.052 6.56,-5.203 6.722,-5.354 6.933,-5.435 7.195,-5.446 7.273,-5.458 7.459,-5.468 7.755,-5.48 L 7.922,-5.488 V -6.006 H 4.77 L 1.416,-0.56 Z"
         style="fill:#0d1e32;fill-opacity:1;fill-rule:nonzero;stroke:none"
         id="path615" />
    </g>
    <g
       id="g617"
       transform="matrix(0.35277777,0,0,-0.35277777,130.30452,88.695956)"
       style="display:inline">
      <path
         d="m 0,0 h -8.913 v 0.518 l 0.159,0.008 c 0.674,0.045 1.073,0.141 1.198,0.288 0.126,0.148 0.188,0.598 0.188,1.349 v 8.036 c 0,0.754 -0.062,1.202 -0.188,1.346 -0.125,0.144 -0.524,0.239 -1.198,0.283 l -0.159,0.017 v 0.518 h 8.454 v -2.164 h -0.927 l -0.018,0.159 c -0.044,0.768 -0.101,1.184 -0.171,1.245 -0.069,0.061 -0.516,0.091 -1.34,0.091 H -5.614 V 6.749 l 2.265,0.009 c 0.5,0 0.808,0.026 0.922,0.079 0.114,0.053 0.183,0.316 0.205,0.789 l 0.009,0.151 h 0.668 V 5.062 h -0.668 l -0.009,0.149 c -0.022,0.42 -0.091,0.67 -0.205,0.75 -0.114,0.08 -0.422,0.12 -0.922,0.12 H -5.614 V 2.163 c 0,-0.646 0.077,-1.048 0.23,-1.206 0.153,-0.16 0.55,-0.239 1.19,-0.239 h 1.32 c 0.98,0 1.539,0.049 1.675,0.146 0.137,0.098 0.225,0.514 0.263,1.249 l 0.009,0.151 H 0 Z"
         style="fill:#0d1e32;fill-opacity:1;fill-rule:nonzero;stroke:none"
         id="path619" />
    </g>
    <g
       id="g621"
       transform="matrix(0.35277777,0,0,-0.35277777,130.68199,88.604234)"
       style="display:inline">
      <path
         d="M 0,0 V 2.38 H 0.877 L 0.885,2.23 C 0.902,1.952 0.91,1.743 0.91,1.604 0.91,1.164 1.091,0.833 1.453,0.61 2.043,0.242 2.695,0.059 3.408,0.059 c 0.741,0 1.319,0.21 1.737,0.63 C 5.563,1.11 5.772,1.69 5.772,2.431 5.772,3.055 5.638,3.55 5.371,3.917 5.104,4.285 4.583,4.687 3.809,5.121 L 2.932,5.622 c -1.894,1.069 -2.84,2.235 -2.84,3.5 0,0.952 0.341,1.74 1.023,2.364 0.682,0.623 1.538,0.935 2.569,0.935 0.445,0 0.928,-0.043 1.449,-0.129 0.521,-0.086 1.079,-0.219 1.675,-0.397 V 9.698 H 5.881 L 5.874,9.84 c -0.018,0.301 -0.027,0.521 -0.027,0.66 0,0.468 -0.167,0.812 -0.502,1.032 -0.335,0.219 -0.859,0.33 -1.574,0.33 -0.597,0 -1.081,-0.196 -1.452,-0.589 C 1.948,10.88 1.762,10.364 1.762,9.723 1.762,9.178 1.89,8.726 2.146,8.37 2.402,8.014 2.865,7.646 3.533,7.268 L 4.41,6.766 C 5.624,6.076 6.443,5.474 6.866,4.962 7.289,4.45 7.501,3.806 7.501,3.032 7.501,2.002 7.118,1.146 6.352,0.464 5.587,-0.219 4.63,-0.56 3.483,-0.56 2.815,-0.56 2.19,-0.512 1.608,-0.417 1.026,-0.323 0.489,-0.184 0,0"
         style="fill:#0d1e32;fill-opacity:1;fill-rule:nonzero;stroke:none"
         id="path623" />
    </g>
  </g>
</svg>
