<?xml version="1.0" encoding="UTF-8" standalone="no"?>
<svg
   xmlns:dc="http://purl.org/dc/elements/1.1/"
   xmlns:cc="http://creativecommons.org/ns#"
   xmlns:rdf="http://www.w3.org/1999/02/22-rdf-syntax-ns#"
   xmlns:svg="http://www.w3.org/2000/svg"
   xmlns="http://www.w3.org/2000/svg"
   xmlns:sodipodi="http://sodipodi.sourceforge.net/DTD/sodipodi-0.dtd"
   xmlns:inkscape="http://www.inkscape.org/namespaces/inkscape"
   width="49.999996mm"
   height="20.588493mm"
   viewBox="0 0 49.999996 20.588494"
   version="1.1"
   id="svg3167"
   inkscape:version="1.0.2 (e86c8708, 2021-01-15)"
   sodipodi:docname="Logo_PSA.svg">
  <defs
     id="defs3161" />
  <sodipodi:namedview
     id="base"
     pagecolor="#ffffff"
     bordercolor="#666666"
     borderopacity="1.0"
     inkscape:pageopacity="0.0"
     inkscape:pageshadow="2"
     inkscape:zoom="0.35"
     inkscape:cx="56.848912"
     inkscape:cy="23.408561"
     inkscape:document-units="mm"
     inkscape:current-layer="layer1"
     inkscape:document-rotation="0"
     showgrid="false"
     inkscape:window-width="1440"
     inkscape:window-height="900"
     inkscape:window-x="0"
     inkscape:window-y="0"
     inkscape:window-maximized="0" />
  <metadata
     id="metadata3164">
    <rdf:RDF>
      <cc:Work
         rdf:about="">
        <dc:format>image/svg+xml</dc:format>
        <dc:type
           rdf:resource="http://purl.org/dc/dcmitype/StillImage" />
        <dc:title />
      </cc:Work>
    </rdf:RDF>
  </metadata>
  <g
     inkscape:label="Layer 1"
     inkscape:groupmode="layer"
     id="layer1"
     transform="translate(-90.792059,-141.97316)">
    <g
       id="g1019"
       transform="matrix(0.58634953,0,0,-0.58634953,90.925494,152.23134)"
       style="display:inline">
      <path
         d="m 0,0 c 0.816,3.889 2.23,5.221 5.316,5.221 2.203,0 3.807,-1.047 3.155,-4.188 H 5.643 C 5.86,2.434 5.602,2.76 4.8,2.76 3.93,2.76 3.386,2.243 2.937,0 2.475,-2.23 2.692,-2.747 3.671,-2.747 c 0.68,0 1.197,0.327 1.577,1.809 H 8.063 C 7.383,-4.147 5.969,-5.208 3.141,-5.208 0.639,-5.208 -0.816,-3.889 0,0"
         style="fill:#231f20;fill-opacity:1;fill-rule:nonzero;stroke:none"
         id="path1021" />
    </g>
    <g
       id="g1023"
       transform="matrix(0.58634953,0,0,-0.58634953,101.81002,149.33477)"
       style="display:inline">
      <path
         d="m 0,0 -2.053,-9.858 h -2.869 l 0.775,3.712 h -2.352 l -0.776,-3.712 h -2.882 L -8.104,0 h 2.883 l -0.734,-3.549 h 2.352 L -2.869,0 Z"
         style="fill:#231f20;fill-opacity:1;fill-rule:nonzero;stroke:none"
         id="path1025" />
    </g>
    <g
       id="g1027"
       transform="matrix(0.58634953,0,0,-0.58634953,104.6931,152.89978)"
       style="display:inline">
      <path
         d="M 0,0 -0.054,3.304 -1.632,0 Z M 0.041,-2.135 H -2.638 L -3.426,-3.78 h -3.019 l 5.588,9.858 H 1.836 L 3.209,-3.78 H 0.068 Z"
         style="fill:#231f20;fill-opacity:1;fill-rule:nonzero;stroke:none"
         id="path1029" />
    </g>
    <g
       id="g1031"
       transform="matrix(0.58634953,0,0,-0.58634953,110.64806,153.62098)"
       style="display:inline">
      <path
         d="m 0,0 -0.557,-2.556 h -5.888 l 2.053,9.858 h 2.883 L -3.032,0 Z"
         style="fill:#231f20;fill-opacity:1;fill-rule:nonzero;stroke:none"
         id="path1033" />
    </g>
    <g
       id="g1035"
       transform="matrix(0.58634953,0,0,-0.58634953,114.45171,153.62098)"
       style="display:inline">
      <path
         d="m 0,0 -0.557,-2.556 h -5.888 l 2.053,9.858 h 2.883 L -3.032,0 Z"
         style="fill:#231f20;fill-opacity:1;fill-rule:nonzero;stroke:none"
         id="path1037" />
    </g>
    <g
       id="g1039"
       transform="matrix(0.58634953,0,0,-0.58634953,117.07504,150.72442)"
       style="display:inline">
      <path
         d="M 0,0 -0.299,-1.441 H 3.073 L 2.611,-3.563 H -0.748 L -1.074,-5.126 H 3.059 L 2.556,-7.492 H -4.433 L -2.38,2.366 H 4.514 L 4.025,0 Z"
         style="fill:#231f20;fill-opacity:1;fill-rule:nonzero;stroke:none"
         id="path1041" />
    </g>
    <g
       id="g1043"
       transform="matrix(0.58634953,0,0,-0.58634953,125.42759,149.33477)"
       style="display:inline">
      <path
         d="m 0,0 -2.053,-9.858 h -2.855 l -1.85,5.725 -1.196,-5.725 h -2.393 L -8.294,0 h 2.869 L -3.562,-5.806 -2.407,0 Z"
         style="fill:#231f20;fill-opacity:1;fill-rule:nonzero;stroke:none"
         id="path1045" />
    </g>
    <g
       id="g1047"
       transform="matrix(0.58634953,0,0,-0.58634953,128.829,151.46322)"
       style="display:inline">
      <path
         d="m 0,0 c 0.191,1.183 -0.095,1.537 -0.924,1.537 -0.898,0 -1.428,-0.531 -1.918,-2.842 -0.489,-2.38 -0.258,-2.91 0.952,-2.91 0.816,0 1.292,0.435 1.346,0.72 l 0.136,0.613 h -1.319 l 0.395,1.849 H 2.529 L 1.727,-4.854 C 1.673,-5.153 0.503,-6.5 -2.597,-6.513 c -2.529,-0.014 -3.997,1.278 -3.168,5.208 0.829,3.93 2.23,5.221 5.344,5.221 2.447,0 3.725,-1.183 3.154,-3.916 z"
         style="fill:#231f20;fill-opacity:1;fill-rule:nonzero;stroke:none"
         id="path1049" />
    </g>
    <g
       id="g1051"
       transform="matrix(0.58634953,0,0,-0.58634953,133.03137,150.72442)"
       style="display:inline">
      <path
         d="M 0,0 -0.299,-1.441 H 3.073 L 2.611,-3.563 H -0.748 L -1.074,-5.126 H 3.059 L 2.556,-7.492 H -4.433 L -2.38,2.366 H 4.514 L 4.025,0 Z"
         style="fill:#231f20;fill-opacity:1;fill-rule:nonzero;stroke:none"
         id="path1053" />
    </g>
    <g
       id="g1055"
       transform="matrix(0.58634953,0,0,-0.58634953,137.73213,152.03199)"
       style="display:inline">
      <path
         d="M 0,0 C 1.509,0 2.053,0.041 2.284,1.21 2.529,2.393 2.067,2.434 0.489,2.434 H 0.122 L -0.394,0 Z M 3.236,-1.754 4.188,-5.262 H 1.183 l -0.544,3.073 c -0.34,-0.014 -0.707,-0.014 -1.101,-0.014 h -0.395 l -0.639,-3.059 h -2.882 l 2.053,9.858 H 1.033 C 4.256,4.596 5.657,3.93 5.099,1.183 4.773,-0.395 4.351,-1.292 3.236,-1.754"
         style="fill:#231f20;fill-opacity:1;fill-rule:nonzero;stroke:none"
         id="path1057" />
    </g>
    <g
       id="g1059"
       transform="matrix(0.58634953,0,0,-0.58634953,123.63394,158.11242)"
       style="display:inline">
      <path
         d="M 0,0 H -2.271 L -3.807,-7.302 H -6.676 L -5.153,0 h -2.298 l 0.544,2.556 h 7.451 z"
         style="fill:#e51b2e;fill-opacity:1;fill-rule:nonzero;stroke:none"
         id="path1061" />
    </g>
    <g
       id="g1063"
       transform="matrix(0.58634953,0,0,-0.58634953,126.85124,159.50793)"
       style="display:inline">
      <path
         d="M 0,0 C 0.462,2.23 0.258,2.76 -0.775,2.76 -1.7,2.76 -2.244,2.23 -2.692,0 -3.141,-2.216 -2.937,-2.747 -1.904,-2.747 -0.979,-2.747 -0.462,-2.216 0,0 m -5.615,0 c 0.815,3.889 2.216,5.222 5.37,5.222 2.489,0 3.998,-1.333 3.182,-5.222 -0.829,-3.889 -2.23,-5.208 -5.357,-5.208 -2.502,0 -4.025,1.319 -3.195,5.208"
         style="fill:#e51b2e;fill-opacity:1;fill-rule:nonzero;stroke:none"
         id="path1065" />
    </g>
    <g
       id="g1067"
       transform="matrix(0.58634953,0,0,-0.58634953,128.97441,159.7073)"
       style="display:inline">
      <path
         d="M 0,0 1.101,5.276 H 3.97 L 2.91,0.163 c -0.449,-2.135 -0.259,-2.488 0.598,-2.488 0.762,0 1.183,0.353 1.618,2.488 L 6.187,5.276 H 9.096 L 7.995,0 C 7.274,-3.467 6.418,-4.868 2.978,-4.868 0.136,-4.868 -0.721,-3.467 0,0"
         style="fill:#e51b2e;fill-opacity:1;fill-rule:nonzero;stroke:none"
         id="path1069" />
    </g>
    <g
       id="g1071"
       transform="matrix(0.58634953,0,0,-0.58634953,136.21642,159.30857)"
       style="display:inline">
      <path
         d="M 0,0 C 1.509,0 2.053,0.041 2.284,1.21 2.529,2.393 2.067,2.434 0.489,2.434 H 0.122 L -0.394,0 Z M 3.236,-1.754 4.188,-5.262 H 1.183 l -0.544,3.073 c -0.34,-0.014 -0.707,-0.014 -1.101,-0.014 h -0.395 l -0.639,-3.059 h -2.882 l 2.053,9.858 H 1.033 C 4.256,4.596 5.657,3.929 5.099,1.183 4.773,-0.395 4.351,-1.292 3.236,-1.754"
         style="fill:#e51b2e;fill-opacity:1;fill-rule:nonzero;stroke:none"
         id="path1073" />
    </g>
    <g
       id="g1075"
       transform="matrix(0.58634953,0,0,-0.58634953,104.63329,146.0043)"
       style="display:inline">
      <path
         d="M 0,0 C 0.338,1.727 -0.766,3.167 -2.957,3.167 L -6.279,3.163 c -0.3,0 -0.495,0.247 -0.439,0.55 0.06,0.302 0.351,0.54 0.652,0.54 H 0.402 L 0.942,6.836 -5.6,6.834 c -2.191,0 -3.845,-1.4 -4.181,-3.126 -0.341,-1.725 0.769,-3.125 2.96,-3.125 l 3.294,-0.007 c 0.3,0 0.52,-0.276 0.46,-0.579 -0.058,-0.306 -0.349,-0.54 -0.648,-0.54 h -6.9 l -0.537,-2.586 6.97,0.004 c 2.19,0 3.843,1.398 4.182,3.125"
         style="fill:#e51b2e;fill-opacity:1;fill-rule:nonzero;stroke:none"
         id="path1077" />
    </g>
    <g
       id="g1079"
       transform="matrix(0.58634953,0,0,-0.58634953,97.189582,141.99367)"
       style="display:inline">
      <path
         d="m 0,0 h -7.046 l -0.498,-2.56 h 6.617 c 0.3,0 0.498,-0.235 0.438,-0.54 -0.06,-0.302 -0.354,-0.548 -0.655,-0.548 h -6.611 l -1.229,-6.321 h 3.407 l 0.725,3.735 3.641,0.002 c 1.721,0 3.387,1.395 3.721,3.116 C 2.845,-1.395 1.721,0 0,0"
         style="fill:#e51b2e;fill-opacity:1;fill-rule:nonzero;stroke:none"
         id="path1081" />
    </g>
    <g
       id="g1083"
       transform="matrix(0.58634953,0,0,-0.58634953,108.00187,145.53523)"
       style="display:inline">
      <path
         d="M 0,0 2.067,2.306 2.515,0 Z m 4.898,4.409 c 0,0 -0.342,1.666 -1.944,1.666 -1.286,0 -2.105,-1.027 -2.105,-1.027 l -8.044,-8.972 h 3.677 l 1.825,2.035 h 4.576 l 0.395,-2.035 h 3.24 z"
         style="fill:#e51b2e;fill-opacity:1;fill-rule:nonzero;stroke:none"
         id="path1085" />
    </g>
    <g
       id="g1087"
       transform="matrix(0.58634953,0,0,-0.58634953,111.53286,142.02299)"
       style="display:inline">
      <path
         d="m 0,0 c -0.227,0 -0.412,-0.185 -0.412,-0.413 0,-0.227 0.185,-0.412 0.412,-0.412 0.227,0 0.412,0.185 0.412,0.412 C 0.412,-0.185 0.227,0 0,0 m 0,-0.909 c -0.274,0 -0.496,0.223 -0.496,0.496 0,0.274 0.222,0.496 0.496,0.496 0.274,0 0.496,-0.222 0.496,-0.496 0,-0.273 -0.222,-0.496 -0.496,-0.496"
         style="fill:#e51b2e;fill-opacity:1;fill-rule:nonzero;stroke:none"
         id="path1089" />
    </g>
    <g
       id="g1091"
       transform="matrix(0.58634953,0,0,-0.58634953,111.52641,142.2634)"
       style="display:inline">
      <path
         d="M 0,0 C 0.078,0 0.129,0.005 0.129,0.095 0.129,0.184 0.078,0.19 0,0.19 H -0.096 V 0 Z M 0.138,-0.272 0.041,-0.079 C 0.028,-0.08 0.014,-0.08 0,-0.08 h -0.096 v -0.192 h -0.09 v 0.541 h 0.188 c 0.177,0 0.218,-0.045 0.218,-0.174 0,-0.089 -0.02,-0.138 -0.09,-0.16 l 0.111,-0.207 z"
         style="fill:#e51b2e;fill-opacity:1;fill-rule:nonzero;stroke:none"
         id="path1093" />
    </g>
  </g>
</svg>
