<svg xmlns="http://www.w3.org/2000/svg" viewBox="0 0 2268.5 308.33">
  <g id="Слой_2" data-name="Слой 2">
    <g id="Layer_1" data-name="Layer 1">
      <g>
        <path d="M1107.35,70.48C1118.36,18,1137.45,0,1179.11,0c29.73,0,51.39,14.13,42.58,56.53h-38.18c2.94-18.91-.55-23.31-11.37-23.31-11.75,0-19.09,7-25.15,37.26-6.24,30.1-3.3,37.07,9.91,37.07,9.18,0,16.15-4.4,21.29-24.41h38c-9.17,43.31-28.26,57.63-66.44,57.63C1116,140.77,1096.33,123,1107.35,70.48Z" fill="#96c6d6"/>
        <path d="M1360.6,3.85l-27.72,133.07h-38.72l10.46-50.11h-31.75l-10.46,50.11H1223.5L1251.21,3.85h38.91l-9.91,47.91H1312l9.91-47.91Z" fill="#96c6d6"/>
        <path d="M1427.52,114.71h-36.15l-10.65,22.21H1340L1415.41,3.85h36.34l18.54,133.07h-42.4ZM1427,85.89l-.73-44.6L1405,85.89Z" fill="#96c6d6"/>
        <path d="M1564.06,102.41l-7.52,34.51h-79.47L1504.78,3.85h38.91l-20.55,98.56Z" fill="#96c6d6"/>
        <path d="M1651.62,102.41l-7.52,34.51h-79.47L1592.34,3.85h38.91l-20.56,98.56Z" fill="#96c6d6"/>
        <path d="M1712,35.79l-4,19.45h45.51l-6.24,28.64h-45.33l-4.4,21.1h55.79l-6.79,31.94h-94.34L1679.89,3.85H1773l-6.61,31.94Z" fill="#96c6d6"/>
        <path d="M1904.29,3.85l-27.71,133.07H1838l-25-77.27-16.15,77.27h-32.31L1792.34,3.85h38.72l25.15,78.37,15.6-78.37Z" fill="#96c6d6"/>
        <path d="M1986.12,52.86c2.57-16-1.28-20.74-12.48-20.74-12.11,0-19.27,7.16-25.88,38.36-6.6,32.12-3.48,39.27,12.85,39.27,11,0,17.44-5.87,18.17-9.72l1.84-8.26h-17.81l5.33-25h52.12l-10.83,51.57c-.73,4-16.52,22.21-58.36,22.39-34.14.19-54-17.25-42.76-70.29S1938.4,0,1980.43,0c33,0,50.29,16,42.58,52.86Z" fill="#96c6d6"/>
        <path d="M2086.36,35.79l-4,19.45h45.52l-6.24,28.64h-45.34l-4.4,21.1h55.79l-6.79,31.94h-94.33L2054.24,3.85h93.05l-6.6,31.94Z" fill="#96c6d6"/>
        <path d="M2241.75,89.56l12.84,47.36H2214l-7.35-41.48c-4.59.18-9.54.18-14.87.18h-5.32l-8.62,41.3H2139L2166.68,3.85H2212c43.51,0,62.41,9,54.88,46.07C2262.49,71.21,2256.8,83.32,2241.75,89.56Zm-43.68-23.67c20.37,0,27.71-.55,30.83-16.34,3.3-16-2.94-16.52-24.23-16.52h-5l-7,32.86Z" fill="#96c6d6"/>
      </g>
      <g>
        <path d="M1204.85,205.91H1174.2l-20.74,98.56h-38.72l20.56-98.56h-31l7.34-34.5H1212.2Z" fill="#96c6d6"/>
        <path d="M1204.48,238c11-52.49,29.91-70.48,72.49-70.48,33.59,0,54,18,43,70.48-11.2,52.49-30.1,70.3-72.32,70.3C1213.84,308.33,1193.28,290.52,1204.48,238Zm75.79,0c6.25-30.1,3.49-37.26-10.46-37.26-12.48,0-19.82,7.16-25.88,37.26-6,29.92-3.3,37.08,10.65,37.08C1267.06,275.11,1274,268,1280.27,238Z" fill="#96c6d6"/>
        <path d="M1331.22,242.62l14.87-71.21h38.72l-14.32,69c-6,28.81-3.48,33.58,8.08,33.58,10.28,0,16-4.77,21.84-33.58l14.32-69H1454l-14.86,71.21c-9.73,46.8-21.29,65.71-67.73,65.71C1333.05,308.33,1321.49,289.42,1331.22,242.62Z" fill="#96c6d6"/>
        <path d="M1551.34,257.12l12.85,47.35h-40.56L1516.29,263c-4.59.19-9.55.19-14.87.19h-5.32l-8.63,41.29h-38.91l27.71-133.06h45.34c43.5,0,62.4,9,54.87,46.07C1572.08,238.77,1566.39,250.88,1551.34,257.12Zm-43.68-23.68c20.37,0,27.71-.55,30.83-16.33,3.31-16-2.94-16.52-24.23-16.52h-5l-7,32.85Z" fill="#96c6d6"/>
      </g>
      <g>
        <path d="M653.38,209.89c10.18-52-23.09-95.45-89.13-95.45l-100.1.13c-9,0-14.94-7.43-13.24-16.57s10.57-16.29,19.65-16.29H665.5L681.78,3.86,484.6,3.92c-66,0-115.89,42.21-126,94.21s23.19,94.19,89.21,94.19l99.27.21A14.33,14.33,0,0,1,561,210a20.58,20.58,0,0,1-19.54,16.28H333.47L317.28,304.2l210.05-.11C593.34,304.09,643.17,261.93,653.38,209.89Z" fill="#96c6d6"/>
        <path d="M270.76,3.77H58.4l-15,77.14H242.81c9.06,0,15,7.11,13.22,16.29s-10.69,16.53-19.74,16.53H37L0,304.2H102.67l21.88-112.55,109.7-.06c51.86,0,102.08-42,112.16-93.91S322.63,3.77,270.76,3.77Z" fill="#96c6d6"/>
        <path d="M974.14,53.07S963.85,2.85,915.57,2.85c-38.76,0-63.47,31-63.47,31L609.68,304.2H720.5l55-61.34H913.4l11.93,61.34H1023ZM826.53,185.94l62.3-69.5,13.51,69.5Z" fill="#96c6d6"/>
        <g>
          <path d="M1008,32.76a15,15,0,1,1,15-14.95A15,15,0,0,1,1008,32.76Zm0-27.38a12.43,12.43,0,1,0,12.43,12.43A12.43,12.43,0,0,0,1008,5.38Z" fill="#96c6d6"/>
          <path d="M1011.84,26l-2.94-5.82c-.39,0-.8,0-1.23,0h-2.9V26h-2.71V9.66h5.67c5.32,0,6.57,1.36,6.57,5.24,0,2.69-.62,4.17-2.71,4.83l3.35,6.23Zm-4.17-8.19c2.34,0,3.87-.16,3.87-2.87s-1.53-2.85-3.87-2.85h-2.9v5.7Z" fill="#96c6d6"/>
        </g>
      </g>
    </g>
  </g>
</svg>
