<svg width="300" height="143" viewBox="0 0 300 143" fill="none" xmlns="http://www.w3.org/2000/svg">
<path d="M94.656 40.7744L59.3443 20.3872L94.6559 8.00451e-07L94.656 40.7744Z" fill="#3D9BBB"/>
<path d="M94.656 40.7744L77.0001 10.1936L94.6559 8.00451e-07L94.656 40.7744Z" fill="#1B7B9C"/>
<path d="M57.6572 63.7776L57.6572 23.0033L92.9688 43.3905L57.6572 63.7776Z" fill="#FF7B44"/>
<path d="M57.6573 63.7776L75.308 33.2057L57.6572 23L57.6573 63.7776Z" fill="#E85E24"/>
<path d="M94.656 86.7744L59.3443 66.3872L94.6559 46L94.656 86.7744Z" fill="#3D9BBB"/>
<path d="M94.656 86.7744L77.0001 56.1936L94.6559 46L94.656 86.7744Z" fill="#1B7B9C"/>
<path d="M57.6572 109.778L57.6572 69.0033L92.9688 89.3905L57.6572 109.778Z" fill="#FF7B44"/>
<path d="M57.6573 109.778L75.308 79.2057L57.6572 69L57.6573 109.778Z" fill="#E85E24"/>
<path d="M54.656 63.7744L19.3443 43.3872L54.6559 23L54.656 63.7744Z" fill="#3D9BBB"/>
<path d="M54.656 63.7744L37.0001 33.1936L54.6559 23L54.656 63.7744Z" fill="#1B7B9C"/>
<path d="M17.6572 86.7776L17.6572 46.0033L52.9688 66.3905L17.6572 86.7776Z" fill="#FF7B44"/>
<path d="M17.6573 86.7776L35.308 56.2057L17.6572 46L17.6573 86.7776Z" fill="#E85E24"/>
<path d="M54.656 109.774L19.3443 89.3872L54.6559 69L54.656 109.774Z" fill="#3D9BBB"/>
<path d="M54.656 109.774L37.0001 79.1936L54.6559 69L54.656 109.774Z" fill="#1B7B9C"/>
<path d="M17.6572 132.778L17.6572 92.0033L52.9688 112.39L17.6572 132.778Z" fill="#FF7B44"/>
<path d="M17.6573 132.778L35.308 102.206L17.6572 92L17.6573 132.778Z" fill="#E85E24"/>
<path d="M131.943 36.363C130.293 36.363 128.918 36.066 127.818 35.472C126.718 34.856 125.882 33.943 125.31 32.733C124.76 31.501 124.441 29.939 124.353 28.047L129.039 27.255C129.083 28.355 129.193 29.279 129.369 30.027C129.567 30.753 129.853 31.303 130.227 31.677C130.623 32.029 131.107 32.205 131.679 32.205C132.383 32.205 132.856 31.985 133.098 31.545C133.362 31.105 133.494 30.599 133.494 30.027C133.494 28.905 133.219 27.97 132.669 27.222C132.141 26.452 131.437 25.682 130.557 24.912L127.785 22.503C126.795 21.667 125.981 20.721 125.343 19.665C124.727 18.609 124.419 17.311 124.419 15.771C124.419 13.571 125.057 11.888 126.333 10.722C127.631 9.534 129.402 8.94 131.646 8.94C132.988 8.94 134.088 9.16 134.946 9.6C135.804 10.04 136.464 10.634 136.926 11.382C137.41 12.108 137.74 12.911 137.916 13.791C138.114 14.649 138.235 15.507 138.279 16.365L133.626 17.058C133.582 16.244 133.505 15.529 133.395 14.913C133.307 14.297 133.109 13.813 132.801 13.461C132.515 13.109 132.075 12.933 131.481 12.933C130.843 12.933 130.37 13.175 130.062 13.659C129.754 14.121 129.6 14.638 129.6 15.21C129.6 16.156 129.809 16.937 130.227 17.553C130.667 18.147 131.261 18.774 132.009 19.434L134.715 21.81C135.837 22.778 136.794 23.889 137.586 25.143C138.4 26.375 138.807 27.904 138.807 29.73C138.807 30.984 138.521 32.117 137.949 33.129C137.377 34.141 136.574 34.933 135.54 35.505C134.528 36.077 133.329 36.363 131.943 36.363ZM140.161 36L145.342 9.27H151.381L156.529 36H151.48L150.523 30.126H146.299L145.276 36H140.161ZM146.794 26.793H149.995L148.378 16.002L146.794 26.793ZM166.308 36.363C164.328 36.363 162.755 35.989 161.589 35.241C160.445 34.493 159.642 33.459 159.18 32.139C158.718 30.797 158.487 29.246 158.487 27.486V17.883C158.487 16.035 158.718 14.451 159.18 13.131C159.642 11.789 160.445 10.755 161.589 10.029C162.755 9.303 164.328 8.94 166.308 8.94C168.222 8.94 169.718 9.259 170.796 9.897C171.896 10.535 172.666 11.437 173.106 12.603C173.568 13.769 173.799 15.122 173.799 16.662V18.906H168.519V16.398C168.519 15.782 168.486 15.21 168.42 14.682C168.354 14.132 168.167 13.692 167.859 13.362C167.573 13.01 167.067 12.834 166.341 12.834C165.615 12.834 165.087 13.01 164.757 13.362C164.427 13.714 164.218 14.176 164.13 14.748C164.042 15.298 163.998 15.914 163.998 16.596V28.74C163.998 29.488 164.053 30.148 164.163 30.72C164.295 31.27 164.526 31.699 164.856 32.007C165.208 32.293 165.703 32.436 166.341 32.436C167.045 32.436 167.54 32.271 167.826 31.941C168.134 31.589 168.321 31.127 168.387 30.555C168.475 29.983 168.519 29.378 168.519 28.74V26.133H173.799V28.344C173.799 29.906 173.579 31.292 173.139 32.502C172.699 33.69 171.94 34.636 170.862 35.34C169.784 36.022 168.266 36.363 166.308 36.363ZM184.549 36.363C182.569 36.363 180.996 35.989 179.83 35.241C178.686 34.493 177.883 33.459 177.421 32.139C176.959 30.797 176.728 29.246 176.728 27.486V17.883C176.728 16.035 176.959 14.451 177.421 13.131C177.883 11.789 178.686 10.755 179.83 10.029C180.996 9.303 182.569 8.94 184.549 8.94C186.463 8.94 187.959 9.259 189.037 9.897C190.137 10.535 190.907 11.437 191.347 12.603C191.809 13.769 192.04 15.122 192.04 16.662V18.906H186.76V16.398C186.76 15.782 186.727 15.21 186.661 14.682C186.595 14.132 186.408 13.692 186.1 13.362C185.814 13.01 185.308 12.834 184.582 12.834C183.856 12.834 183.328 13.01 182.998 13.362C182.668 13.714 182.459 14.176 182.371 14.748C182.283 15.298 182.239 15.914 182.239 16.596V28.74C182.239 29.488 182.294 30.148 182.404 30.72C182.536 31.27 182.767 31.699 183.097 32.007C183.449 32.293 183.944 32.436 184.582 32.436C185.286 32.436 185.781 32.271 186.067 31.941C186.375 31.589 186.562 31.127 186.628 30.555C186.716 29.983 186.76 29.378 186.76 28.74V26.133H192.04V28.344C192.04 29.906 191.82 31.292 191.38 32.502C190.94 33.69 190.181 34.636 189.103 35.34C188.025 36.022 186.507 36.363 184.549 36.363ZM211.039 36.363C209.059 36.363 207.486 35.989 206.32 35.241C205.176 34.493 204.373 33.459 203.911 32.139C203.449 30.797 203.218 29.246 203.218 27.486V17.883C203.218 16.035 203.449 14.451 203.911 13.131C204.373 11.789 205.176 10.755 206.32 10.029C207.486 9.303 209.059 8.94 211.039 8.94C212.953 8.94 214.449 9.259 215.527 9.897C216.627 10.535 217.397 11.437 217.837 12.603C218.299 13.769 218.53 15.122 218.53 16.662V18.906H213.25V16.398C213.25 15.782 213.217 15.21 213.151 14.682C213.085 14.132 212.898 13.692 212.59 13.362C212.304 13.01 211.798 12.834 211.072 12.834C210.346 12.834 209.818 13.01 209.488 13.362C209.158 13.714 208.949 14.176 208.861 14.748C208.773 15.298 208.729 15.914 208.729 16.596V28.74C208.729 29.488 208.784 30.148 208.894 30.72C209.026 31.27 209.257 31.699 209.587 32.007C209.939 32.293 210.434 32.436 211.072 32.436C211.776 32.436 212.271 32.271 212.557 31.941C212.865 31.589 213.052 31.127 213.118 30.555C213.206 29.983 213.25 29.378 213.25 28.74V26.133H218.53V28.344C218.53 29.906 218.31 31.292 217.87 32.502C217.43 33.69 216.671 34.636 215.593 35.34C214.515 36.022 212.997 36.363 211.039 36.363ZM221.854 36V9.27H228.784C230.588 9.27 232.128 9.479 233.404 9.897C234.702 10.293 235.692 11.008 236.374 12.042C237.078 13.076 237.43 14.506 237.43 16.332C237.43 17.432 237.331 18.411 237.133 19.269C236.957 20.105 236.627 20.842 236.143 21.48C235.681 22.096 235.021 22.591 234.163 22.965L237.859 36H232.282L229.213 23.889H227.299V36H221.854ZM227.299 20.655H228.883C229.763 20.655 230.456 20.512 230.962 20.226C231.468 19.94 231.82 19.511 232.018 18.939C232.238 18.345 232.348 17.619 232.348 16.761C232.348 15.529 232.117 14.594 231.655 13.956C231.215 13.296 230.379 12.966 229.147 12.966H227.299V20.655ZM131.943 74.363C130.293 74.363 128.918 74.066 127.818 73.472C126.718 72.856 125.882 71.943 125.31 70.733C124.76 69.501 124.441 67.939 124.353 66.047L129.039 65.255C129.083 66.355 129.193 67.279 129.369 68.027C129.567 68.753 129.853 69.303 130.227 69.677C130.623 70.029 131.107 70.205 131.679 70.205C132.383 70.205 132.856 69.985 133.098 69.545C133.362 69.105 133.494 68.599 133.494 68.027C133.494 66.905 133.219 65.97 132.669 65.222C132.141 64.452 131.437 63.682 130.557 62.912L127.785 60.503C126.795 59.667 125.981 58.721 125.343 57.665C124.727 56.609 124.419 55.311 124.419 53.771C124.419 51.571 125.057 49.888 126.333 48.722C127.631 47.534 129.402 46.94 131.646 46.94C132.988 46.94 134.088 47.16 134.946 47.6C135.804 48.04 136.464 48.634 136.926 49.382C137.41 50.108 137.74 50.911 137.916 51.791C138.114 52.649 138.235 53.507 138.279 54.365L133.626 55.058C133.582 54.244 133.505 53.529 133.395 52.913C133.307 52.297 133.109 51.813 132.801 51.461C132.515 51.109 132.075 50.933 131.481 50.933C130.843 50.933 130.37 51.175 130.062 51.659C129.754 52.121 129.6 52.638 129.6 53.21C129.6 54.156 129.809 54.937 130.227 55.553C130.667 56.147 131.261 56.774 132.009 57.434L134.715 59.81C135.837 60.778 136.794 61.889 137.586 63.143C138.4 64.375 138.807 65.904 138.807 67.73C138.807 68.984 138.521 70.117 137.949 71.129C137.377 72.141 136.574 72.933 135.54 73.505C134.528 74.077 133.329 74.363 131.943 74.363ZM155.039 79.28C154.533 79.038 153.95 78.664 153.29 78.158C152.63 77.652 151.981 77.058 151.343 76.376C150.705 75.716 150.166 75.034 149.726 74.33C149.638 74.352 149.539 74.363 149.429 74.363C149.341 74.363 149.242 74.363 149.132 74.363C147.174 74.363 145.623 74.011 144.479 73.307C143.335 72.603 142.51 71.602 142.004 70.304C141.52 68.984 141.278 67.411 141.278 65.585V55.619C141.278 53.793 141.52 52.231 142.004 50.933C142.51 49.635 143.335 48.645 144.479 47.963C145.623 47.281 147.174 46.94 149.132 46.94C151.112 46.94 152.674 47.292 153.818 47.996C154.984 48.678 155.809 49.668 156.293 50.966C156.799 52.242 157.052 53.793 157.052 55.619V65.585C157.052 66.861 156.931 68.016 156.689 69.05C156.469 70.062 156.095 70.942 155.567 71.69C155.039 72.438 154.335 73.032 153.455 73.472C153.741 73.78 154.038 74.088 154.346 74.396C154.654 74.704 154.962 74.99 155.27 75.254C155.578 75.518 155.875 75.738 156.161 75.914L155.039 79.28ZM149.132 70.436C149.836 70.436 150.353 70.282 150.683 69.974C151.013 69.644 151.233 69.215 151.343 68.687C151.453 68.137 151.508 67.554 151.508 66.938V54.299C151.508 53.683 151.453 53.111 151.343 52.583C151.233 52.055 151.013 51.637 150.683 51.329C150.353 50.999 149.836 50.834 149.132 50.834C148.45 50.834 147.944 50.999 147.614 51.329C147.284 51.637 147.064 52.055 146.954 52.583C146.866 53.111 146.822 53.683 146.822 54.299V66.938C146.822 67.554 146.866 68.137 146.954 68.687C147.064 69.215 147.284 69.644 147.614 69.974C147.944 70.282 148.45 70.436 149.132 70.436ZM168.212 74.363C166.188 74.363 164.615 74.022 163.493 73.34C162.371 72.636 161.579 71.635 161.117 70.337C160.677 69.017 160.457 67.422 160.457 65.552V47.27H165.836V66.311C165.836 66.971 165.88 67.62 165.968 68.258C166.078 68.896 166.298 69.413 166.628 69.809C166.98 70.205 167.508 70.403 168.212 70.403C168.938 70.403 169.466 70.205 169.796 69.809C170.148 69.413 170.368 68.896 170.456 68.258C170.544 67.62 170.588 66.971 170.588 66.311V47.27H175.967V65.552C175.967 67.422 175.736 69.017 175.274 70.337C174.834 71.635 174.053 72.636 172.931 73.34C171.809 74.022 170.236 74.363 168.212 74.363ZM178.253 74L183.434 47.27H189.473L194.621 74H189.572L188.615 68.126H184.391L183.368 74H178.253ZM184.886 64.793H188.087L186.47 54.002L184.886 64.793ZM204.066 74.363C202.416 74.363 201.041 74.066 199.941 73.472C198.841 72.856 198.005 71.943 197.433 70.733C196.883 69.501 196.564 67.939 196.476 66.047L201.162 65.255C201.206 66.355 201.316 67.279 201.492 68.027C201.69 68.753 201.976 69.303 202.35 69.677C202.746 70.029 203.23 70.205 203.802 70.205C204.506 70.205 204.979 69.985 205.221 69.545C205.485 69.105 205.617 68.599 205.617 68.027C205.617 66.905 205.342 65.97 204.792 65.222C204.264 64.452 203.56 63.682 202.68 62.912L199.908 60.503C198.918 59.667 198.104 58.721 197.466 57.665C196.85 56.609 196.542 55.311 196.542 53.771C196.542 51.571 197.18 49.888 198.456 48.722C199.754 47.534 201.525 46.94 203.769 46.94C205.111 46.94 206.211 47.16 207.069 47.6C207.927 48.04 208.587 48.634 209.049 49.382C209.533 50.108 209.863 50.911 210.039 51.791C210.237 52.649 210.358 53.507 210.402 54.365L205.749 55.058C205.705 54.244 205.628 53.529 205.518 52.913C205.43 52.297 205.232 51.813 204.924 51.461C204.638 51.109 204.198 50.933 203.604 50.933C202.966 50.933 202.493 51.175 202.185 51.659C201.877 52.121 201.723 52.638 201.723 53.21C201.723 54.156 201.932 54.937 202.35 55.553C202.79 56.147 203.384 56.774 204.132 57.434L206.838 59.81C207.96 60.778 208.917 61.889 209.709 63.143C210.523 64.375 210.93 65.904 210.93 67.73C210.93 68.984 210.644 70.117 210.072 71.129C209.5 72.141 208.697 72.933 207.663 73.505C206.651 74.077 205.452 74.363 204.066 74.363ZM213.863 74V47.27H219.308V58.259H224.027V47.27H229.472V74H224.027V62.153H219.308V74H213.863ZM132.471 112.363C130.513 112.363 128.962 112.011 127.818 111.307C126.674 110.603 125.849 109.602 125.343 108.304C124.859 106.984 124.617 105.411 124.617 103.585V93.619C124.617 91.793 124.859 90.231 125.343 88.933C125.849 87.635 126.674 86.645 127.818 85.963C128.962 85.281 130.513 84.94 132.471 84.94C134.451 84.94 136.013 85.292 137.157 85.996C138.323 86.678 139.148 87.668 139.632 88.966C140.138 90.242 140.391 91.793 140.391 93.619V103.585C140.391 105.411 140.138 106.984 139.632 108.304C139.148 109.602 138.323 110.603 137.157 111.307C136.013 112.011 134.451 112.363 132.471 112.363ZM132.471 108.436C133.175 108.436 133.692 108.282 134.022 107.974C134.352 107.644 134.572 107.215 134.682 106.687C134.792 106.137 134.847 105.554 134.847 104.938V92.299C134.847 91.683 134.792 91.111 134.682 90.583C134.572 90.055 134.352 89.637 134.022 89.329C133.692 88.999 133.175 88.834 132.471 88.834C131.811 88.834 131.316 88.999 130.986 89.329C130.656 89.637 130.436 90.055 130.326 90.583C130.216 91.111 130.161 91.683 130.161 92.299V104.938C130.161 105.554 130.205 106.137 130.293 106.687C130.403 107.215 130.623 107.644 130.953 107.974C131.283 108.282 131.789 108.436 132.471 108.436ZM144.027 112V85.27H152.508C154.114 85.27 155.423 85.578 156.435 86.194C157.447 86.788 158.195 87.657 158.679 88.801C159.185 89.945 159.438 91.331 159.438 92.959C159.438 94.873 159.108 96.369 158.448 97.447C157.81 98.525 156.93 99.295 155.808 99.757C154.686 100.197 153.399 100.417 151.947 100.417H149.472V112H144.027ZM149.472 96.589H151.386C152.178 96.589 152.783 96.468 153.201 96.226C153.641 95.962 153.938 95.555 154.092 95.005C154.246 94.455 154.323 93.751 154.323 92.893C154.323 92.079 154.257 91.397 154.125 90.847C154.015 90.297 153.751 89.868 153.333 89.56C152.915 89.252 152.255 89.098 151.353 89.098H149.472V96.589ZM162.235 112V85.27H173.884V89.032H167.68V96.127H172.465V99.922H167.68V108.304H173.95V112H162.235ZM176.705 112V85.27H180.5L186.44 99.196V85.27H190.928V112H187.298L181.358 97.216V112H176.705ZM202.567 112V108.403L209.068 98.404C209.552 97.656 210.003 96.941 210.421 96.259C210.861 95.577 211.213 94.884 211.477 94.18C211.763 93.454 211.906 92.684 211.906 91.87C211.906 91.012 211.741 90.363 211.411 89.923C211.081 89.461 210.608 89.23 209.992 89.23C209.332 89.23 208.826 89.417 208.474 89.791C208.122 90.143 207.88 90.616 207.748 91.21C207.616 91.804 207.55 92.453 207.55 93.157V94.411H202.567V93.091C202.567 91.507 202.809 90.099 203.293 88.867C203.799 87.635 204.58 86.678 205.636 85.996C206.714 85.292 208.122 84.94 209.86 84.94C212.214 84.94 213.985 85.556 215.173 86.788C216.361 88.02 216.955 89.747 216.955 91.969C216.955 93.047 216.79 94.048 216.46 94.972C216.13 95.874 215.69 96.754 215.14 97.612C214.612 98.448 214.04 99.317 213.424 100.219L208.276 107.974H216.229V112H202.567ZM226.883 112.462C225.277 112.462 223.946 112.132 222.89 111.472C221.834 110.812 221.042 109.91 220.514 108.766C219.986 107.6 219.722 106.258 219.722 104.74V92.761C219.722 91.199 219.975 89.835 220.481 88.669C220.987 87.481 221.768 86.557 222.824 85.897C223.88 85.237 225.233 84.907 226.883 84.907C228.511 84.907 229.842 85.237 230.876 85.897C231.932 86.557 232.713 87.481 233.219 88.669C233.725 89.835 233.978 91.199 233.978 92.761V104.74C233.978 106.258 233.714 107.6 233.186 108.766C232.658 109.91 231.866 110.812 230.81 111.472C229.754 112.132 228.445 112.462 226.883 112.462ZM226.883 107.974C227.477 107.974 227.906 107.787 228.17 107.413C228.434 107.039 228.61 106.599 228.698 106.093C228.786 105.565 228.83 105.081 228.83 104.641V92.86C228.83 92.376 228.786 91.87 228.698 91.342C228.632 90.814 228.467 90.363 228.203 89.989C227.939 89.593 227.499 89.395 226.883 89.395C226.267 89.395 225.816 89.593 225.53 89.989C225.266 90.363 225.09 90.814 225.002 91.342C224.936 91.87 224.903 92.376 224.903 92.86V104.641C224.903 105.081 224.947 105.565 225.035 106.093C225.123 106.599 225.31 107.039 225.596 107.413C225.882 107.787 226.311 107.974 226.883 107.974ZM237.178 112V108.403L243.679 98.404C244.163 97.656 244.614 96.941 245.032 96.259C245.472 95.577 245.824 94.884 246.088 94.18C246.374 93.454 246.517 92.684 246.517 91.87C246.517 91.012 246.352 90.363 246.022 89.923C245.692 89.461 245.219 89.23 244.603 89.23C243.943 89.23 243.437 89.417 243.085 89.791C242.733 90.143 242.491 90.616 242.359 91.21C242.227 91.804 242.161 92.453 242.161 93.157V94.411H237.178V93.091C237.178 91.507 237.42 90.099 237.904 88.867C238.41 87.635 239.191 86.678 240.247 85.996C241.325 85.292 242.733 84.94 244.471 84.94C246.825 84.94 248.596 85.556 249.784 86.788C250.972 88.02 251.566 89.747 251.566 91.969C251.566 93.047 251.401 94.048 251.071 94.972C250.741 95.874 250.301 96.754 249.751 97.612C249.223 98.448 248.651 99.317 248.035 100.219L242.887 107.974H250.84V112H237.178ZM260.967 112.462C259.185 112.462 257.766 112.132 256.71 111.472C255.676 110.79 254.928 109.844 254.466 108.634C254.004 107.402 253.773 105.994 253.773 104.41V103.453H258.855C258.855 103.497 258.855 103.618 258.855 103.816C258.855 103.992 258.855 104.168 258.855 104.344C258.877 105.202 258.943 105.917 259.053 106.489C259.185 107.039 259.405 107.457 259.713 107.743C260.021 108.029 260.461 108.172 261.033 108.172C261.627 108.172 262.067 108.029 262.353 107.743C262.639 107.435 262.837 106.995 262.947 106.423C263.057 105.851 263.112 105.147 263.112 104.311C263.112 102.969 262.914 101.935 262.518 101.209C262.122 100.461 261.33 100.076 260.142 100.054C260.12 100.054 260.01 100.054 259.812 100.054C259.614 100.054 259.427 100.054 259.251 100.054V96.292C259.383 96.292 259.515 96.292 259.647 96.292C259.801 96.292 259.933 96.292 260.043 96.292C261.231 96.292 262.034 95.973 262.452 95.335C262.892 94.697 263.112 93.696 263.112 92.332C263.112 91.276 262.958 90.451 262.65 89.857C262.342 89.263 261.77 88.966 260.934 88.966C260.098 88.966 259.548 89.296 259.284 89.956C259.02 90.616 258.877 91.463 258.855 92.497C258.855 92.673 258.855 92.871 258.855 93.091C258.855 93.289 258.855 93.487 258.855 93.685H253.773V92.233C253.773 90.671 254.059 89.351 254.631 88.273C255.203 87.173 256.017 86.337 257.073 85.765C258.129 85.193 259.416 84.907 260.934 84.907C262.452 84.907 263.75 85.182 264.828 85.732C265.906 86.282 266.72 87.085 267.27 88.141C267.842 89.197 268.128 90.506 268.128 92.068C268.128 93.63 267.798 94.928 267.138 95.962C266.5 96.996 265.708 97.656 264.762 97.942C265.422 98.162 266.005 98.525 266.511 99.031C267.017 99.537 267.413 100.219 267.699 101.077C267.985 101.913 268.128 102.958 268.128 104.212C268.128 105.818 267.897 107.248 267.435 108.502C266.973 109.734 266.214 110.702 265.158 111.406C264.102 112.11 262.705 112.462 260.967 112.462Z" fill="black"/>
</svg>
