<?xml version="1.0" ?><!DOCTYPE svg  PUBLIC '-//W3C//DTD SVG 1.1//EN'  'http://www.w3.org/Graphics/SVG/1.1/DTD/svg11.dtd'><svg id="Calque_1"  fill="#005a70" style="enable-background:new 0 0 100 100;" version="1.1" viewBox="0 0 100 100" xml:space="preserve" xmlns="http://www.w3.org/2000/svg" xmlns:xlink="http://www.w3.org/1999/xlink"><g><g><path d="M5273.1,2400.1v-2c0-2.8-5-4-9.7-4s-9.7,1.3-9.7,4v2c0,1.8,0.7,3.6,2,4.9l5,4.9c0.3,0.3,0.4,0.6,0.4,1v6.4     c0,0.4,0.2,0.7,0.6,0.8l2.9,0.9c0.5,0.1,1-0.2,1-0.8v-7.2c0-0.4,0.2-0.7,0.4-1l5.1-5C5272.4,2403.7,5273.1,2401.9,5273.1,2400.1z      M5263.4,2400c-4.8,0-7.4-1.3-7.5-1.8v0c0.1-0.5,2.7-1.8,7.5-1.8c4.8,0,7.3,1.3,7.5,1.8C5270.7,2398.7,5268.2,2400,5263.4,2400z"/><path d="M5268.4,2410.3c-0.6,0-1,0.4-1,1c0,0.6,0.4,1,1,1h4.3c0.6,0,1-0.4,1-1c0-0.6-0.4-1-1-1H5268.4z"/><path d="M5272.7,2413.7h-4.3c-0.6,0-1,0.4-1,1c0,0.6,0.4,1,1,1h4.3c0.6,0,1-0.4,1-1C5273.7,2414.1,5273.3,2413.7,5272.7,2413.7z"/><path d="M5272.7,2417h-4.3c-0.6,0-1,0.4-1,1c0,0.6,0.4,1,1,1h4.3c0.6,0,1-0.4,1-1C5273.7,2417.5,5273.3,2417,5272.7,2417z"/></g><path d="M94,71.5l-19.4-10c-2.7-1.4-6.1-0.7-8,1.7l-7.1,9.1c-6.9-3.7-12.2-7.3-18.3-13.4c-6.5-6.5-10-11.9-13.6-18.6l9-7    c2.4-1.9,3.2-5.3,1.7-8L28.4,6c-1.8-3.4-6.1-4.5-9.2-2.4L6.8,11.8C4,13.7,2.4,17,2.6,20.4c0.2,3.5,0.7,7.9,1.5,11    c3.6,13.8,12.2,28.1,24.3,40.2C40.5,83.8,54.8,92.4,68.6,96c3.1,0.8,7.5,1.2,11.1,1.5c3.5,0.2,6.8-1.5,8.7-4.4l8-12.5    C98.5,77.4,97.3,73.2,94,71.5z"/></g></svg>