<svg width="103" height="98" viewBox="0 0 103 98" fill="none" xmlns="http://www.w3.org/2000/svg">
<path d="M47.9131 2.26795C49.3803 -0.705033 53.6197 -0.70504 55.0869 2.26794L67.762 27.9505C68.3447 29.1311 69.4709 29.9493 70.7738 30.1386L99.1161 34.257C102.397 34.7338 103.707 38.7657 101.333 41.0798L80.8243 61.0709C79.8815 61.9898 79.4513 63.3138 79.6739 64.6114L84.5153 92.8392C85.0758 96.1069 81.6461 98.5987 78.7115 97.056L53.3614 83.7286C52.1961 83.1159 50.8039 83.1159 49.6386 83.7286L24.2885 97.056C21.3539 98.5987 17.9242 96.1069 18.4847 92.8393L23.3261 64.6114C23.5487 63.3138 23.1185 61.9898 22.1757 61.0709L1.667 41.0798C-0.70707 38.7657 0.602962 34.7338 3.88384 34.257L32.2262 30.1386C33.5291 29.9493 34.6553 29.1311 35.238 27.9505L47.9131 2.26795Z" fill="#48acce"/>
</svg>
